<ttFont>
    <TTGlyph name=".notdef" xMin="193" yMin="0" xMax="1034" yMax="1462">
      <contour>
        <pt x="193" y="1462" on="1"/>
        <pt x="1034" y="1462" on="1"/>
        <pt x="1034" y="0" on="1"/>
        <pt x="193" y="0" on="1"/>
      </contour>
      <contour>
        <pt x="297" y="104" on="1"/>
        <pt x="930" y="104" on="1"/>
        <pt x="930" y="1358" on="1"/>
        <pt x="297" y="1358" on="1"/>
      </contour>
    </TTGlyph>
    <TTGlyph name="A" xMin="0" yMin="0" xMax="1354" yMax="1468">
      <contour>
        <pt x="1100" y="0" on="1"/>
        <pt x="954" y="406" on="1"/>
        <pt x="395" y="406" on="1"/>
        <pt x="252" y="0" on="1"/>
        <pt x="0" y="0" on="1"/>
        <pt x="547" y="1468" on="1"/>
        <pt x="807" y="1468" on="1"/>
        <pt x="1354" y="0" on="1"/>
      </contour>
      <contour>
        <pt x="891" y="612" on="1"/>
        <pt x="754" y="1010" on="1"/>
        <pt x="739" y="1050" on="0"/>
        <pt x="686" y="1222" on="0"/>
        <pt x="676" y="1262" on="1"/>
        <pt x="649" y="1139" on="0"/>
        <pt x="597" y="993" on="1"/>
        <pt x="465" y="612" on="1"/>
      </contour>
    </TTGlyph>
    <TTGlyph name="AE" xMin="-2" yMin="0" xMax="1747" yMax="1462">
      <contour>
        <pt x="1747" y="0" on="1"/>
        <pt x="936" y="0" on="1"/>
        <pt x="936" y="406" on="1"/>
        <pt x="432" y="406" on="1"/>
        <pt x="244" y="0" on="1"/>
        <pt x="-2" y="0" on="1"/>
        <pt x="676" y="1462" on="1"/>
        <pt x="1747" y="1462" on="1"/>
        <pt x="1747" y="1260" on="1"/>
        <pt x="1176" y="1260" on="1"/>
        <pt x="1176" y="862" on="1"/>
        <pt x="1708" y="862" on="1"/>
        <pt x="1708" y="662" on="1"/>
        <pt x="1176" y="662" on="1"/>
        <pt x="1176" y="203" on="1"/>
        <pt x="1747" y="203" on="1"/>
      </contour>
      <contour>
        <pt x="522" y="612" on="1"/>
        <pt x="936" y="612" on="1"/>
        <pt x="936" y="1253" on="1"/>
        <pt x="813" y="1253" on="1"/>
      </contour>
    </TTGlyph>
    <TTGlyph name="AEacute" xMin="-2" yMin="0" xMax="1747" yMax="1907">
      <component glyphName="AE" x="0" y="0" flags="0x204"/>
      <component glyphName="acute" x="629" y="338" flags="0x4"/>
    </TTGlyph>
    <TTGlyph name="Aacute" xMin="0" yMin="0" xMax="1354" yMax="1907">
      <component glyphName="A" x="0" y="0" flags="0x204"/>
      <component glyphName="acute" x="170" y="338" flags="0x4"/>
    </TTGlyph>
    <TTGlyph name="Abreve" xMin="0" yMin="0" xMax="1354" yMax="1882">
      <component glyphName="A" x="0" y="0" flags="0x204"/>
      <component glyphName="breve" x="63" y="338" flags="0x4"/>
    </TTGlyph>
    <TTGlyph name="Acircumflex" xMin="0" yMin="0" xMax="1354" yMax="1907">
      <component glyphName="A" x="0" y="0" flags="0x204"/>
      <component glyphName="circumflex" x="59" y="338" flags="0x4"/>
    </TTGlyph>
    <TTGlyph name="Adieresis" xMin="0" yMin="0" xMax="1354" yMax="1854">
      <component glyphName="A" x="0" y="0" flags="0x204"/>
      <component glyphName="dieresis" x="70" y="338" flags="0x4"/>
    </TTGlyph>
    <TTGlyph name="Agrave" xMin="0" yMin="0" xMax="1354" yMax="1907">
      <component glyphName="A" x="0" y="0" flags="0x204"/>
      <component glyphName="grave" x="-28" y="338" flags="0x4"/>
    </TTGlyph>
    <TTGlyph name="Alpha" xMin="0" yMin="0" xMax="1354" yMax="1468">
      <component glyphName="A" x="0" y="0" flags="0x204"/>
    </TTGlyph>
    <TTGlyph name="Alphatonos" xMin="-14" yMin="0" xMax="1354" yMax="1535">
      <component glyphName="A" x="0" y="0" flags="0x204"/>
      <component glyphName="tonos" x="-503" y="-105" flags="0x4"/>
    </TTGlyph>
    <TTGlyph name="Amacron" xMin="0" yMin="0" xMax="1354" yMax="1753">
      <component glyphName="A" x="0" y="0" flags="0x204"/>
      <component glyphName="macron" x="76" y="338" flags="0x4"/>
    </TTGlyph>
    <TTGlyph name="Aogonek" xMin="0" yMin="-469" xMax="1354" yMax="1468">
      <component glyphName="A" x="0" y="0" flags="0x204"/>
      <component glyphName="ogonek" x="909" y="0" flags="0x4"/>
    </TTGlyph>
    <TTGlyph name="Aring" xMin="0" yMin="0" xMax="1354" yMax="1801">
      <component glyphName="A" x="0" y="0" flags="0x204"/>
      <component glyphName="ring" x="86" y="109" flags="0x4"/>
    </TTGlyph>
    <TTGlyph name="Aringacute" xMin="0" yMin="0" xMax="1356" yMax="1962">
      <contour>
        <pt x="915" y="1446" on="1"/>
        <pt x="915" y="1340" on="0"/>
        <pt x="840" y="1278" on="1"/>
        <pt x="1356" y="0" on="1"/>
        <pt x="1104" y="0" on="1"/>
        <pt x="963" y="365" on="1"/>
        <pt x="389" y="365" on="1"/>
        <pt x="252" y="0" on="1"/>
        <pt x="0" y="0" on="1"/>
        <pt x="516" y="1276" on="1"/>
        <pt x="440" y="1334" on="0"/>
        <pt x="440" y="1444" on="1"/>
        <pt x="440" y="1546" on="0"/>
        <pt x="569" y="1669" on="0"/>
        <pt x="676" y="1669" on="1"/>
        <pt x="779" y="1669" on="0"/>
        <pt x="915" y="1548" on="0"/>
      </contour>
      <contour>
        <pt x="903" y="571" on="1"/>
        <pt x="786" y="879" on="1"/>
        <pt x="705" y="1077" on="0"/>
        <pt x="678" y="1184" on="1"/>
        <pt x="666" y="1146" on="0"/>
        <pt x="639" y="1066" on="0"/>
        <pt x="455" y="571" on="1"/>
      </contour>
      <contour>
        <pt x="567" y="1722" on="1"/>
        <pt x="567" y="1741" on="1"/>
        <pt x="597" y="1770" on="0"/>
        <pt x="709" y="1909" on="0"/>
        <pt x="741" y="1962" on="1"/>
        <pt x="1014" y="1962" on="1"/>
        <pt x="1014" y="1948" on="1"/>
        <pt x="983" y="1909" on="0"/>
        <pt x="792" y="1764" on="0"/>
        <pt x="725" y="1722" on="1"/>
      </contour>
      <contour>
        <pt x="782" y="1444" on="1"/>
        <pt x="782" y="1495" on="0"/>
        <pt x="722" y="1550" on="0"/>
        <pt x="676" y="1550" on="1"/>
        <pt x="629" y="1550" on="0"/>
        <pt x="569" y="1495" on="0"/>
        <pt x="569" y="1444" on="1"/>
        <pt x="569" y="1394" on="0"/>
        <pt x="620" y="1337" on="0"/>
        <pt x="670" y="1337" on="1"/>
        <pt x="680" y="1337" on="1"/>
        <pt x="725" y="1337" on="0"/>
        <pt x="782" y="1394" on="0"/>
      </contour>
    </TTGlyph>
    <TTGlyph name="Atilde" xMin="0" yMin="0" xMax="1354" yMax="1864">
      <component glyphName="A" x="0" y="0" flags="0x204"/>
      <component glyphName="tilde" x="45" y="338" flags="0x4"/>
    </TTGlyph>
    <TTGlyph name="B" xMin="193" yMin="0" xMax="1241" yMax="1462">
      <contour>
        <pt x="193" y="1462" on="1"/>
        <pt x="627" y="1462" on="1"/>
        <pt x="929" y="1462" on="0"/>
        <pt x="1198" y="1286" on="0"/>
        <pt x="1198" y="1096" on="1"/>
        <pt x="1198" y="968" on="0"/>
        <pt x="1066" y="798" on="0"/>
        <pt x="942" y="776" on="1"/>
        <pt x="942" y="766" on="1"/>
        <pt x="1096" y="737" on="0"/>
        <pt x="1241" y="566" on="0"/>
        <pt x="1241" y="420" on="1"/>
        <pt x="1241" y="223" on="0"/>
        <pt x="966" y="0" on="0"/>
        <pt x="721" y="0" on="1"/>
        <pt x="193" y="0" on="1"/>
      </contour>
      <contour>
        <pt x="432" y="858" on="1"/>
        <pt x="662" y="858" on="1"/>
        <pt x="812" y="858" on="0"/>
        <pt x="950" y="953" on="0"/>
        <pt x="950" y="1067" on="1"/>
        <pt x="950" y="1170" on="0"/>
        <pt x="801" y="1262" on="0"/>
        <pt x="639" y="1262" on="1"/>
        <pt x="432" y="1262" on="1"/>
      </contour>
      <contour>
        <pt x="432" y="664" on="1"/>
        <pt x="432" y="201" on="1"/>
        <pt x="686" y="201" on="1"/>
        <pt x="836" y="201" on="0"/>
        <pt x="989" y="316" on="0"/>
        <pt x="989" y="440" on="1"/>
        <pt x="989" y="554" on="0"/>
        <pt x="833" y="664" on="0"/>
        <pt x="674" y="664" on="1"/>
      </contour>
    </TTGlyph>
    <TTGlyph name="Beta" xMin="193" yMin="0" xMax="1241" yMax="1462">
      <component glyphName="B" x="0" y="0" flags="0x204"/>
    </TTGlyph>
    <TTGlyph name="C" xMin="121" yMin="-20" xMax="1231" yMax="1483">
      <contour>
        <pt x="815" y="1278" on="1"/>
        <pt x="609" y="1278" on="0"/>
        <pt x="373" y="986" on="0"/>
        <pt x="373" y="729" on="1"/>
        <pt x="373" y="460" on="0"/>
        <pt x="600" y="184" on="0"/>
        <pt x="815" y="184" on="1"/>
        <pt x="908" y="184" on="0"/>
        <pt x="1082" y="221" on="0"/>
        <pt x="1176" y="250" on="1"/>
        <pt x="1176" y="45" on="1"/>
        <pt x="1004" y="-20" on="0"/>
        <pt x="786" y="-20" on="1"/>
        <pt x="465" y="-20" on="0"/>
        <pt x="121" y="369" on="0"/>
        <pt x="121" y="731" on="1"/>
        <pt x="121" y="959" on="0"/>
        <pt x="288" y="1301" on="0"/>
        <pt x="604" y="1483" on="0"/>
        <pt x="817" y="1483" on="1"/>
        <pt x="1041" y="1483" on="0"/>
        <pt x="1231" y="1389" on="1"/>
        <pt x="1145" y="1190" on="1"/>
        <pt x="1071" y="1225" on="0"/>
        <pt x="906" y="1278" on="0"/>
      </contour>
    </TTGlyph>
    <TTGlyph name="Cacute" xMin="121" yMin="-20" xMax="1231" yMax="1907">
      <component glyphName="C" x="0" y="0" flags="0x204"/>
      <component glyphName="acute" x="264" y="338" flags="0x4"/>
    </TTGlyph>
    <TTGlyph name="Ccaron" xMin="121" yMin="-20" xMax="1231" yMax="1907">
      <component glyphName="C" x="0" y="0" flags="0x204"/>
      <component glyphName="caron" x="182" y="338" flags="0x4"/>
    </TTGlyph>
    <TTGlyph name="Ccedilla" xMin="121" yMin="-492" xMax="1231" yMax="1483">
      <component glyphName="C" x="0" y="0" flags="0x204"/>
      <component glyphName="cedilla" x="526" y="0" flags="0x4"/>
    </TTGlyph>
    <TTGlyph name="Ccircumflex" xMin="121" yMin="-20" xMax="1231" yMax="1907">
      <component glyphName="C" x="0" y="0" flags="0x204"/>
      <component glyphName="circumflex" x="170" y="338" flags="0x4"/>
    </TTGlyph>
    <TTGlyph name="Cdot" xMin="121" yMin="-20" xMax="1231" yMax="1868">
      <component glyphName="C" x="0" y="0" flags="0x204"/>
      <component glyphName="dotaccent" x="506" y="338" flags="0x4"/>
    </TTGlyph>
    <TTGlyph name="Chi" xMin="4" yMin="0" xMax="1270" yMax="1462">
      <component glyphName="X" x="0" y="0" flags="0x204"/>
    </TTGlyph>
    <TTGlyph name="D" xMin="193" yMin="0" xMax="1382" yMax="1462">
      <contour>
        <pt x="1382" y="745" on="1"/>
        <pt x="1382" y="383" on="0"/>
        <pt x="980" y="0" on="0"/>
        <pt x="602" y="0" on="1"/>
        <pt x="193" y="0" on="1"/>
        <pt x="193" y="1462" on="1"/>
        <pt x="645" y="1462" on="1"/>
        <pt x="994" y="1462" on="0"/>
        <pt x="1382" y="1086" on="0"/>
      </contour>
      <contour>
        <pt x="1130" y="737" on="1"/>
        <pt x="1130" y="1262" on="0"/>
        <pt x="639" y="1262" on="1"/>
        <pt x="432" y="1262" on="1"/>
        <pt x="432" y="201" on="1"/>
        <pt x="602" y="201" on="1"/>
        <pt x="1130" y="201" on="0"/>
      </contour>
    </TTGlyph>
    <TTGlyph name="Dcaron" xMin="193" yMin="0" xMax="1382" yMax="1907">
      <component glyphName="D" x="0" y="0" flags="0x204"/>
      <component glyphName="caron" x="96" y="338" flags="0x4"/>
    </TTGlyph>
    <TTGlyph name="Dcroat" xMin="47" yMin="0" xMax="1374" yMax="1462">
      <component glyphName="Eth" x="0" y="0" flags="0x204"/>
    </TTGlyph>
    <TTGlyph name="Delta" xMin="47" yMin="0" xMax="1210" yMax="1464">
      <contour>
        <pt x="47" y="141" on="1"/>
        <pt x="500" y="1464" on="1"/>
        <pt x="758" y="1464" on="1"/>
        <pt x="1210" y="139" on="1"/>
        <pt x="1210" y="0" on="1"/>
        <pt x="47" y="0" on="1"/>
      </contour>
      <contour>
        <pt x="629" y="1241" on="1"/>
        <pt x="586" y="1068" on="0"/>
        <pt x="553" y="973" on="1"/>
        <pt x="297" y="205" on="1"/>
        <pt x="958" y="205" on="1"/>
        <pt x="705" y="969" on="1"/>
        <pt x="682" y="1033" on="0"/>
        <pt x="636" y="1201" on="0"/>
      </contour>
    </TTGlyph>
    <TTGlyph name="E" xMin="193" yMin="0" xMax="1020" yMax="1462">
      <contour>
        <pt x="1020" y="0" on="1"/>
        <pt x="193" y="0" on="1"/>
        <pt x="193" y="1462" on="1"/>
        <pt x="1020" y="1462" on="1"/>
        <pt x="1020" y="1260" on="1"/>
        <pt x="432" y="1260" on="1"/>
        <pt x="432" y="862" on="1"/>
        <pt x="983" y="862" on="1"/>
        <pt x="983" y="662" on="1"/>
        <pt x="432" y="662" on="1"/>
        <pt x="432" y="203" on="1"/>
        <pt x="1020" y="203" on="1"/>
      </contour>
    </TTGlyph>
    <TTGlyph name="Eacute" xMin="193" yMin="0" xMax="1020" yMax="1907">
      <component glyphName="E" x="0" y="0" flags="0x204"/>
      <component glyphName="acute" x="78" y="338" flags="0x4"/>
    </TTGlyph>
    <TTGlyph name="Ebreve" xMin="193" yMin="0" xMax="1020" yMax="1882">
      <component glyphName="E" x="0" y="0" flags="0x204"/>
      <component glyphName="breve" x="-1" y="338" flags="0x4"/>
    </TTGlyph>
    <TTGlyph name="Ecaron" xMin="193" yMin="0" xMax="1020" yMax="1907">
      <component glyphName="E" x="0" y="0" flags="0x204"/>
      <component glyphName="caron" x="2" y="338" flags="0x4"/>
    </TTGlyph>
    <TTGlyph name="Ecircumflex" xMin="193" yMin="0" xMax="1020" yMax="1907">
      <component glyphName="E" x="0" y="0" flags="0x204"/>
      <component glyphName="circumflex" x="-7" y="338" flags="0x4"/>
    </TTGlyph>
    <TTGlyph name="Edieresis" xMin="193" yMin="0" xMax="1020" yMax="1854">
      <component glyphName="E" x="0" y="0" flags="0x204"/>
      <component glyphName="dieresis" x="4" y="338" flags="0x4"/>
    </TTGlyph>
    <TTGlyph name="Edotaccent" xMin="193" yMin="0" xMax="1020" yMax="1839">
      <component glyphName="E" x="0" y="0" flags="0x204"/>
      <component glyphName="dotaccent" x="334" y="309" flags="0x4"/>
    </TTGlyph>
    <TTGlyph name="Egrave" xMin="193" yMin="0" xMax="1020" yMax="1907">
      <component glyphName="E" x="0" y="0" flags="0x204"/>
      <component glyphName="grave" x="-73" y="338" flags="0x4"/>
    </TTGlyph>
    <TTGlyph name="Emacron" xMin="193" yMin="0" xMax="1020" yMax="1753">
      <component glyphName="E" x="0" y="0" flags="0x204"/>
      <component glyphName="macron" x="4" y="338" flags="0x4"/>
    </TTGlyph>
    <TTGlyph name="Eng" xMin="193" yMin="-408" xMax="1411" yMax="1462">
      <contour>
        <pt x="991" y="-408" on="1"/>
        <pt x="887" y="-408" on="0"/>
        <pt x="817" y="-383" on="1"/>
        <pt x="817" y="-180" on="1"/>
        <pt x="891" y="-201" on="0"/>
        <pt x="977" y="-201" on="1"/>
        <pt x="1083" y="-201" on="0"/>
        <pt x="1195" y="-95" on="0"/>
        <pt x="1200" y="2" on="1"/>
        <pt x="399" y="1165" on="1"/>
        <pt x="391" y="1165" on="1"/>
        <pt x="396" y="1103" on="1"/>
        <pt x="410" y="910" on="0"/>
        <pt x="410" y="745" on="1"/>
        <pt x="410" y="0" on="1"/>
        <pt x="193" y="0" on="1"/>
        <pt x="193" y="1462" on="1"/>
        <pt x="483" y="1462" on="1"/>
        <pt x="1200" y="416" on="1"/>
        <pt x="1206" y="416" on="1"/>
        <pt x="1192" y="539" on="0"/>
        <pt x="1192" y="969" on="1"/>
        <pt x="1192" y="1462" on="1"/>
        <pt x="1411" y="1462" on="1"/>
        <pt x="1411" y="6" on="1"/>
        <pt x="1411" y="-195" on="0"/>
        <pt x="1193" y="-408" on="0"/>
      </contour>
    </TTGlyph>
    <TTGlyph name="Eogonek" xMin="193" yMin="-469" xMax="1020" yMax="1462">
      <component glyphName="E" x="0" y="0" flags="0x204"/>
      <component glyphName="ogonek" x="596" y="0" flags="0x4"/>
    </TTGlyph>
    <TTGlyph name="Epsilon" xMin="193" yMin="0" xMax="1020" yMax="1462">
      <component glyphName="E" x="0" y="0" flags="0x204"/>
    </TTGlyph>
    <TTGlyph name="Epsilontonos" xMin="-71" yMin="0" xMax="1153" yMax="1535">
      <component glyphName="E" x="133" y="0" flags="0x4"/>
      <component glyphName="tonos" x="-560" y="-105" flags="0x4"/>
    </TTGlyph>
    <TTGlyph name="Eta" xMin="193" yMin="0" xMax="1346" yMax="1462">
      <component glyphName="H" x="0" y="0" flags="0x204"/>
    </TTGlyph>
    <TTGlyph name="Etatonos" xMin="-71" yMin="0" xMax="1491" yMax="1535">
      <component glyphName="H" x="145" y="0" flags="0x4"/>
      <component glyphName="tonos" x="-560" y="-105" flags="0x4"/>
    </TTGlyph>
    <TTGlyph name="Eth" xMin="47" yMin="0" xMax="1374" yMax="1462">
      <contour>
        <pt x="1374" y="745" on="1"/>
        <pt x="1374" y="385" on="0"/>
        <pt x="972" y="0" on="0"/>
        <pt x="594" y="0" on="1"/>
        <pt x="193" y="0" on="1"/>
        <pt x="193" y="623" on="1"/>
        <pt x="47" y="623" on="1"/>
        <pt x="47" y="823" on="1"/>
        <pt x="193" y="823" on="1"/>
        <pt x="193" y="1462" on="1"/>
        <pt x="639" y="1462" on="1"/>
        <pt x="986" y="1462" on="0"/>
        <pt x="1374" y="1085" on="0"/>
      </contour>
      <contour>
        <pt x="1122" y="737" on="1"/>
        <pt x="1122" y="997" on="0"/>
        <pt x="873" y="1262" on="0"/>
        <pt x="629" y="1262" on="1"/>
        <pt x="432" y="1262" on="1"/>
        <pt x="432" y="823" on="1"/>
        <pt x="739" y="823" on="1"/>
        <pt x="739" y="623" on="1"/>
        <pt x="432" y="623" on="1"/>
        <pt x="432" y="201" on="1"/>
        <pt x="592" y="201" on="1"/>
        <pt x="1122" y="201" on="0"/>
      </contour>
    </TTGlyph>
    <TTGlyph name="Euro" xMin="63" yMin="-20" xMax="1157" yMax="1477">
      <contour>
        <pt x="799" y="1278" on="1"/>
        <pt x="658" y="1278" on="0"/>
        <pt x="479" y="1110" on="0"/>
        <pt x="449" y="940" on="1"/>
        <pt x="905" y="940" on="1"/>
        <pt x="905" y="786" on="1"/>
        <pt x="434" y="786" on="1"/>
        <pt x="432" y="741" on="1"/>
        <pt x="432" y="686" on="1"/>
        <pt x="434" y="647" on="1"/>
        <pt x="842" y="647" on="1"/>
        <pt x="842" y="494" on="1"/>
        <pt x="451" y="494" on="1"/>
        <pt x="515" y="182" on="0"/>
        <pt x="815" y="182" on="1"/>
        <pt x="958" y="182" on="0"/>
        <pt x="1108" y="244" on="1"/>
        <pt x="1108" y="41" on="1"/>
        <pt x="977" y="-20" on="0"/>
        <pt x="803" y="-20" on="1"/>
        <pt x="562" y="-20" on="0"/>
        <pt x="261" y="244" on="0"/>
        <pt x="215" y="494" on="1"/>
        <pt x="63" y="494" on="1"/>
        <pt x="63" y="647" on="1"/>
        <pt x="199" y="647" on="1"/>
        <pt x="197" y="684" on="1"/>
        <pt x="197" y="721" on="1"/>
        <pt x="199" y="786" on="1"/>
        <pt x="63" y="786" on="1"/>
        <pt x="63" y="940" on="1"/>
        <pt x="213" y="940" on="1"/>
        <pt x="251" y="1191" on="0"/>
        <pt x="557" y="1477" on="0"/>
        <pt x="799" y="1477" on="1"/>
        <pt x="999" y="1477" on="0"/>
        <pt x="1157" y="1389" on="1"/>
        <pt x="1073" y="1202" on="1"/>
        <pt x="919" y="1278" on="0"/>
      </contour>
    </TTGlyph>
    <TTGlyph name="F" xMin="193" yMin="0" xMax="1018" yMax="1462">
      <contour>
        <pt x="430" y="0" on="1"/>
        <pt x="193" y="0" on="1"/>
        <pt x="193" y="1462" on="1"/>
        <pt x="1018" y="1462" on="1"/>
        <pt x="1018" y="1260" on="1"/>
        <pt x="430" y="1260" on="1"/>
        <pt x="430" y="803" on="1"/>
        <pt x="981" y="803" on="1"/>
        <pt x="981" y="600" on="1"/>
        <pt x="430" y="600" on="1"/>
      </contour>
    </TTGlyph>
    <TTGlyph name="G" xMin="121" yMin="-20" xMax="1329" yMax="1483">
      <contour>
        <pt x="791" y="793" on="1"/>
        <pt x="1329" y="793" on="1"/>
        <pt x="1329" y="59" on="1"/>
        <pt x="1197" y="16" on="0"/>
        <pt x="954" y="-20" on="0"/>
        <pt x="813" y="-20" on="1"/>
        <pt x="481" y="-20" on="0"/>
        <pt x="121" y="373" on="0"/>
        <pt x="121" y="731" on="1"/>
        <pt x="121" y="1084" on="0"/>
        <pt x="527" y="1483" on="0"/>
        <pt x="883" y="1483" on="1"/>
        <pt x="1112" y="1483" on="0"/>
        <pt x="1317" y="1395" on="1"/>
        <pt x="1233" y="1196" on="1"/>
        <pt x="1055" y="1278" on="0"/>
        <pt x="877" y="1278" on="1"/>
        <pt x="643" y="1278" on="0"/>
        <pt x="371" y="984" on="0"/>
        <pt x="371" y="729" on="1"/>
        <pt x="371" y="461" on="0"/>
        <pt x="616" y="182" on="0"/>
        <pt x="846" y="182" on="1"/>
        <pt x="962" y="182" on="0"/>
        <pt x="1094" y="211" on="1"/>
        <pt x="1094" y="588" on="1"/>
        <pt x="791" y="588" on="1"/>
      </contour>
    </TTGlyph>
    <TTGlyph name="Gamma" xMin="193" yMin="0" xMax="1061" yMax="1462">
      <contour>
        <pt x="1061" y="1462" on="1"/>
        <pt x="1061" y="1257" on="1"/>
        <pt x="432" y="1257" on="1"/>
        <pt x="432" y="0" on="1"/>
        <pt x="193" y="0" on="1"/>
        <pt x="193" y="1462" on="1"/>
      </contour>
    </TTGlyph>
    <TTGlyph name="Gbreve" xMin="121" yMin="-20" xMax="1329" yMax="1882">
      <component glyphName="G" x="0" y="0" flags="0x204"/>
      <component glyphName="breve" x="223" y="338" flags="0x4"/>
    </TTGlyph>
    <TTGlyph name="Gcircumflex" xMin="121" yMin="-20" xMax="1329" yMax="1907">
      <component glyphName="G" x="0" y="0" flags="0x204"/>
      <component glyphName="circumflex" x="209" y="338" flags="0x4"/>
    </TTGlyph>
    <TTGlyph name="Gcommaaccent" xMin="121" yMin="-453" xMax="1329" yMax="1483">
      <component glyphName="G" x="0" y="0" flags="0x204"/>
      <component glyphName="commaaccent" x="287" y="0" flags="0x4"/>
    </TTGlyph>
    <TTGlyph name="Gdot" xMin="121" yMin="-20" xMax="1329" yMax="1868">
      <component glyphName="G" x="0" y="0" flags="0x204"/>
      <component glyphName="dotaccent" x="559" y="338" flags="0x4"/>
    </TTGlyph>
    <TTGlyph name="H" xMin="193" yMin="0" xMax="1346" yMax="1462">
      <contour>
        <pt x="1346" y="0" on="1"/>
        <pt x="1106" y="0" on="1"/>
        <pt x="1106" y="659" on="1"/>
        <pt x="432" y="659" on="1"/>
        <pt x="432" y="0" on="1"/>
        <pt x="193" y="0" on="1"/>
        <pt x="193" y="1462" on="1"/>
        <pt x="432" y="1462" on="1"/>
        <pt x="432" y="864" on="1"/>
        <pt x="1106" y="864" on="1"/>
        <pt x="1106" y="1462" on="1"/>
        <pt x="1346" y="1462" on="1"/>
      </contour>
    </TTGlyph>
    <TTGlyph name="Hbar" xMin="0" yMin="0" xMax="1538" yMax="1462">
      <contour>
        <pt x="1346" y="1241" on="1"/>
        <pt x="1538" y="1241" on="1"/>
        <pt x="1538" y="1071" on="1"/>
        <pt x="1346" y="1071" on="1"/>
        <pt x="1346" y="0" on="1"/>
        <pt x="1106" y="0" on="1"/>
        <pt x="1106" y="659" on="1"/>
        <pt x="432" y="659" on="1"/>
        <pt x="432" y="0" on="1"/>
        <pt x="193" y="0" on="1"/>
        <pt x="193" y="1071" on="1"/>
        <pt x="0" y="1071" on="1"/>
        <pt x="0" y="1241" on="1"/>
        <pt x="193" y="1241" on="1"/>
        <pt x="193" y="1462" on="1"/>
        <pt x="432" y="1462" on="1"/>
        <pt x="432" y="1241" on="1"/>
        <pt x="1106" y="1241" on="1"/>
        <pt x="1106" y="1462" on="1"/>
        <pt x="1346" y="1462" on="1"/>
      </contour>
      <contour>
        <pt x="1106" y="864" on="1"/>
        <pt x="1106" y="1071" on="1"/>
        <pt x="432" y="1071" on="1"/>
        <pt x="432" y="864" on="1"/>
      </contour>
    </TTGlyph>
    <TTGlyph name="Hcircumflex" xMin="193" yMin="0" xMax="1346" yMax="1907">
      <component glyphName="H" x="0" y="0" flags="0x204"/>
      <component glyphName="circumflex" x="154" y="338" flags="0x4"/>
    </TTGlyph>
    <TTGlyph name="I" xMin="193" yMin="0" xMax="432" yMax="1462">
      <contour>
        <pt x="193" y="0" on="1"/>
        <pt x="193" y="1462" on="1"/>
        <pt x="432" y="1462" on="1"/>
        <pt x="432" y="0" on="1"/>
      </contour>
    </TTGlyph>
    <TTGlyph name="I.alt" xMin="74" yMin="0" xMax="664" yMax="1462">
      <contour>
        <pt x="664" y="0" on="1"/>
        <pt x="74" y="0" on="1"/>
        <pt x="74" y="137" on="1"/>
        <pt x="250" y="195" on="1"/>
        <pt x="250" y="1266" on="1"/>
        <pt x="74" y="1325" on="1"/>
        <pt x="74" y="1462" on="1"/>
        <pt x="664" y="1462" on="1"/>
        <pt x="664" y="1325" on="1"/>
        <pt x="489" y="1266" on="1"/>
        <pt x="489" y="195" on="1"/>
        <pt x="664" y="137" on="1"/>
      </contour>
    </TTGlyph>
    <TTGlyph name="IJ" xMin="193" yMin="-408" xMax="1051" yMax="1462">
      <component glyphName="I" x="0" y="0" flags="0x4"/>
      <component glyphName="J" x="625" y="0" flags="0x4"/>
    </TTGlyph>
    <TTGlyph name="IJ.alt" xMin="74" yMin="-408" xMax="1163" yMax="1462">
      <component glyphName="I.alt" x="0" y="0" flags="0x4"/>
      <component glyphName="J" x="737" y="0" flags="0x4"/>
    </TTGlyph>
    <TTGlyph name="Iacute" xMin="179" yMin="0" xMax="665" yMax="1907">
      <component glyphName="I" x="0" y="0" flags="0x204"/>
      <component glyphName="acute" x="-183" y="338" flags="0x4"/>
    </TTGlyph>
    <TTGlyph name="Iacute.alt" xMin="74" yMin="0" xMax="722" yMax="1907">
      <component glyphName="I.alt" x="0" y="0" flags="0x204"/>
      <component glyphName="acute" x="-126" y="338" flags="0x4"/>
    </TTGlyph>
    <TTGlyph name="Ibreve" xMin="-38" yMin="0" xMax="665" yMax="1882">
      <component glyphName="I" x="0" y="0" flags="0x204"/>
      <component glyphName="breve" x="-298" y="338" flags="0x4"/>
    </TTGlyph>
    <TTGlyph name="Ibreve.alt" xMin="19" yMin="0" xMax="722" yMax="1882">
      <component glyphName="I.alt" x="0" y="0" flags="0x204"/>
      <component glyphName="breve" x="-241" y="338" flags="0x4"/>
    </TTGlyph>
    <TTGlyph name="Icircumflex" xMin="-75" yMin="0" xMax="695" yMax="1907">
      <component glyphName="I" x="0" y="0" flags="0x204"/>
      <component glyphName="circumflex" x="-302" y="338" flags="0x4"/>
    </TTGlyph>
    <TTGlyph name="Icircumflex.alt" xMin="-18" yMin="0" xMax="752" yMax="1907">
      <component glyphName="I.alt" x="0" y="0" flags="0x204"/>
      <component glyphName="circumflex" x="-245" y="338" flags="0x4"/>
    </TTGlyph>
    <TTGlyph name="Idieresis" xMin="1" yMin="0" xMax="626" yMax="1854">
      <component glyphName="I" x="0" y="0" flags="0x204"/>
      <component glyphName="dieresis" x="-292" y="338" flags="0x4"/>
    </TTGlyph>
    <TTGlyph name="Idieresis.alt" xMin="58" yMin="0" xMax="683" yMax="1854">
      <component glyphName="I.alt" x="0" y="0" flags="0x204"/>
      <component glyphName="dieresis" x="-235" y="338" flags="0x4"/>
    </TTGlyph>
    <TTGlyph name="Idotaccent" xMin="179" yMin="0" xMax="443" yMax="1868">
      <component glyphName="I" x="0" y="0" flags="0x204"/>
      <component glyphName="dotaccent" x="25" y="338" flags="0x4"/>
    </TTGlyph>
    <TTGlyph name="Idotaccent.alt" xMin="74" yMin="0" xMax="664" yMax="1868">
      <component glyphName="I.alt" x="0" y="0" flags="0x204"/>
      <component glyphName="dotaccent" x="82" y="338" flags="0x4"/>
    </TTGlyph>
    <TTGlyph name="Igrave" xMin="-6" yMin="0" xMax="480" yMax="1907">
      <component glyphName="I" x="0" y="0" flags="0x204"/>
      <component glyphName="grave" x="-368" y="338" flags="0x4"/>
    </TTGlyph>
    <TTGlyph name="Igrave.alt" xMin="52" yMin="0" xMax="664" yMax="1907">
      <component glyphName="I.alt" x="0" y="0" flags="0x204"/>
      <component glyphName="grave" x="-310" y="338" flags="0x4"/>
    </TTGlyph>
    <TTGlyph name="Imacron" xMin="-5" yMin="0" xMax="634" yMax="1753">
      <component glyphName="I" x="0" y="0" flags="0x204"/>
      <component glyphName="macron" x="-296" y="338" flags="0x4"/>
    </TTGlyph>
    <TTGlyph name="Imacron.alt" xMin="52" yMin="0" xMax="691" yMax="1753">
      <component glyphName="I.alt" x="0" y="0" flags="0x204"/>
      <component glyphName="macron" x="-239" y="338" flags="0x4"/>
    </TTGlyph>
    <TTGlyph name="Iogonek" xMin="76" yMin="-469" xMax="444" yMax="1462">
      <component glyphName="I" x="0" y="0" flags="0x204"/>
      <component glyphName="ogonek" x="53" y="0" flags="0x4"/>
    </TTGlyph>
    <TTGlyph name="Iogonek.alt" xMin="74" yMin="-469" xMax="664" yMax="1462">
      <component glyphName="I.alt" x="0" y="0" flags="0x204"/>
      <component glyphName="ogonek" x="111" y="0" flags="0x4"/>
    </TTGlyph>
    <TTGlyph name="Iota" xMin="193" yMin="0" xMax="432" yMax="1462">
      <component glyphName="I" x="0" y="0" flags="0x204"/>
    </TTGlyph>
    <TTGlyph name="Iota.alt" xMin="74" yMin="0" xMax="664" yMax="1462">
      <component glyphName="I.alt" x="0" y="0" flags="0x204"/>
    </TTGlyph>
    <TTGlyph name="Iotadieresis" xMin="1" yMin="0" xMax="626" yMax="1854">
      <component glyphName="I" x="0" y="0" flags="0x204"/>
      <component glyphName="dieresis" x="-292" y="338" flags="0x4"/>
    </TTGlyph>
    <TTGlyph name="Iotadieresis.alt" xMin="58" yMin="0" xMax="683" yMax="1854">
      <component glyphName="I.alt" x="0" y="0" flags="0x204"/>
      <component glyphName="dieresis" x="-235" y="338" flags="0x4"/>
    </TTGlyph>
    <TTGlyph name="Iotatonos" xMin="-63" yMin="0" xMax="590" yMax="1535">
      <component glyphName="I" x="158" y="0" flags="0x4"/>
      <component glyphName="tonos" x="-552" y="-105" flags="0x4"/>
    </TTGlyph>
    <TTGlyph name="Iotatonos.alt" xMin="-63" yMin="0" xMax="908" yMax="1535">
      <component glyphName="I.alt" x="244" y="0" flags="0x4"/>
      <component glyphName="tonos" x="-552" y="-105" flags="0x4"/>
    </TTGlyph>
    <TTGlyph name="Itilde" xMin="-78" yMin="0" xMax="708" yMax="1864">
      <component glyphName="I" x="0" y="0" flags="0x204"/>
      <component glyphName="tilde" x="-314" y="338" flags="0x4"/>
    </TTGlyph>
    <TTGlyph name="Itilde.alt" xMin="-21" yMin="0" xMax="765" yMax="1864">
      <component glyphName="I.alt" x="0" y="0" flags="0x204"/>
      <component glyphName="tilde" x="-257" y="338" flags="0x4"/>
    </TTGlyph>
    <TTGlyph name="J" xMin="-156" yMin="-408" xMax="426" yMax="1462">
      <contour>
        <pt x="8" y="-408" on="1"/>
        <pt x="-90" y="-408" on="0"/>
        <pt x="-156" y="-383" on="1"/>
        <pt x="-156" y="-182" on="1"/>
        <pt x="-72" y="-203" on="0"/>
        <pt x="-10" y="-203" on="1"/>
        <pt x="186" y="-203" on="0"/>
        <pt x="186" y="45" on="1"/>
        <pt x="186" y="1462" on="1"/>
        <pt x="426" y="1462" on="1"/>
        <pt x="426" y="53" on="1"/>
        <pt x="426" y="-171" on="0"/>
        <pt x="213" y="-408" on="0"/>
      </contour>
    </TTGlyph>
    <TTGlyph name="Jcircumflex" xMin="-156" yMin="-408" xMax="695" yMax="1907">
      <component glyphName="J" x="0" y="0" flags="0x204"/>
      <component glyphName="circumflex" x="-302" y="338" flags="0x4"/>
    </TTGlyph>
    <TTGlyph name="K" xMin="193" yMin="0" xMax="1309" yMax="1462">
      <contour>
        <pt x="1309" y="0" on="1"/>
        <pt x="1032" y="0" on="1"/>
        <pt x="573" y="662" on="1"/>
        <pt x="432" y="547" on="1"/>
        <pt x="432" y="0" on="1"/>
        <pt x="193" y="0" on="1"/>
        <pt x="193" y="1462" on="1"/>
        <pt x="432" y="1462" on="1"/>
        <pt x="432" y="764" on="1"/>
        <pt x="530" y="884" on="0"/>
        <pt x="627" y="995" on="1"/>
        <pt x="1022" y="1462" on="1"/>
        <pt x="1294" y="1462" on="1"/>
        <pt x="911" y="1012" on="0"/>
        <pt x="745" y="821" on="1"/>
      </contour>
    </TTGlyph>
    <TTGlyph name="Kappa" xMin="193" yMin="0" xMax="1309" yMax="1462">
      <component glyphName="K" x="0" y="0" flags="0x204"/>
    </TTGlyph>
    <TTGlyph name="Kcommaaccent" xMin="193" yMin="-453" xMax="1309" yMax="1462">
      <component glyphName="K" x="0" y="0" flags="0x204"/>
      <component glyphName="commaaccent" x="145" y="0" flags="0x4"/>
    </TTGlyph>
    <TTGlyph name="L" xMin="193" yMin="0" xMax="1051" yMax="1462">
      <contour>
        <pt x="193" y="0" on="1"/>
        <pt x="193" y="1462" on="1"/>
        <pt x="432" y="1462" on="1"/>
        <pt x="432" y="205" on="1"/>
        <pt x="1051" y="205" on="1"/>
        <pt x="1051" y="0" on="1"/>
      </contour>
    </TTGlyph>
    <TTGlyph name="Lacute" xMin="193" yMin="0" xMax="1051" yMax="1907">
      <component glyphName="L" x="0" y="0" flags="0x204"/>
      <component glyphName="acute" x="-110" y="338" flags="0x4"/>
    </TTGlyph>
    <TTGlyph name="Lambda" xMin="0" yMin="0" xMax="1282" yMax="1462">
      <contour>
        <pt x="639" y="1235" on="1"/>
        <pt x="630" y="1191" on="0"/>
        <pt x="596" y="1056" on="0"/>
        <pt x="565" y="950" on="0"/>
        <pt x="248" y="0" on="1"/>
        <pt x="0" y="0" on="1"/>
        <pt x="512" y="1462" on="1"/>
        <pt x="768" y="1462" on="1"/>
        <pt x="1282" y="0" on="1"/>
        <pt x="1034" y="0" on="1"/>
        <pt x="733" y="903" on="1"/>
        <pt x="668" y="1097" on="0"/>
      </contour>
    </TTGlyph>
    <TTGlyph name="Lcaron" xMin="193" yMin="0" xMax="1051" yMax="1463">
      <component glyphName="L" x="0" y="0" flags="0x204"/>
      <component glyphName="caroncommaaccent" x="328" y="-93" flags="0x4"/>
    </TTGlyph>
    <TTGlyph name="Lcommaaccent" xMin="193" yMin="-453" xMax="1051" yMax="1462">
      <component glyphName="L" x="0" y="0" flags="0x204"/>
      <component glyphName="commaaccent" x="61" y="0" flags="0x4"/>
    </TTGlyph>
    <TTGlyph name="Ldot" xMin="193" yMin="0" xMax="1051" yMax="1462">
      <component glyphName="L" x="0" y="0" flags="0x204"/>
      <component glyphName="dotaccent" x="537" y="-661" flags="0x4"/>
    </TTGlyph>
    <TTGlyph name="Lslash" xMin="14" yMin="0" xMax="1051" yMax="1462">
      <contour>
        <pt x="193" y="0" on="1"/>
        <pt x="193" y="500" on="1"/>
        <pt x="104" y="449" on="1"/>
        <pt x="14" y="604" on="1"/>
        <pt x="193" y="711" on="1"/>
        <pt x="193" y="1462" on="1"/>
        <pt x="432" y="1462" on="1"/>
        <pt x="432" y="854" on="1"/>
        <pt x="651" y="985" on="1"/>
        <pt x="743" y="827" on="1"/>
        <pt x="432" y="643" on="1"/>
        <pt x="432" y="205" on="1"/>
        <pt x="1051" y="205" on="1"/>
        <pt x="1051" y="0" on="1"/>
      </contour>
    </TTGlyph>
    <TTGlyph name="M" xMin="193" yMin="0" xMax="1698" yMax="1462">
      <contour>
        <pt x="825" y="0" on="1"/>
        <pt x="401" y="1221" on="1"/>
        <pt x="393" y="1221" on="1"/>
        <pt x="410" y="949" on="0"/>
        <pt x="410" y="711" on="1"/>
        <pt x="410" y="0" on="1"/>
        <pt x="193" y="0" on="1"/>
        <pt x="193" y="1462" on="1"/>
        <pt x="530" y="1462" on="1"/>
        <pt x="936" y="299" on="1"/>
        <pt x="942" y="299" on="1"/>
        <pt x="1360" y="1462" on="1"/>
        <pt x="1698" y="1462" on="1"/>
        <pt x="1698" y="0" on="1"/>
        <pt x="1468" y="0" on="1"/>
        <pt x="1468" y="723" on="1"/>
        <pt x="1468" y="832" on="0"/>
        <pt x="1479" y="1182" on="0"/>
        <pt x="1483" y="1219" on="1"/>
        <pt x="1475" y="1219" on="1"/>
        <pt x="1036" y="0" on="1"/>
      </contour>
    </TTGlyph>
    <TTGlyph name="Mu" xMin="193" yMin="0" xMax="1698" yMax="1462">
      <component glyphName="M" x="0" y="0" flags="0x204"/>
    </TTGlyph>
    <TTGlyph name="N" xMin="193" yMin="0" xMax="1411" yMax="1462">
      <contour>
        <pt x="1411" y="0" on="1"/>
        <pt x="1118" y="0" on="1"/>
        <pt x="399" y="1165" on="1"/>
        <pt x="391" y="1165" on="1"/>
        <pt x="396" y="1100" on="1"/>
        <pt x="410" y="914" on="0"/>
        <pt x="410" y="760" on="1"/>
        <pt x="410" y="0" on="1"/>
        <pt x="193" y="0" on="1"/>
        <pt x="193" y="1462" on="1"/>
        <pt x="483" y="1462" on="1"/>
        <pt x="1200" y="303" on="1"/>
        <pt x="1206" y="303" on="1"/>
        <pt x="1204" y="326" on="0"/>
        <pt x="1192" y="615" on="0"/>
        <pt x="1192" y="696" on="1"/>
        <pt x="1192" y="1462" on="1"/>
        <pt x="1411" y="1462" on="1"/>
      </contour>
    </TTGlyph>
    <TTGlyph name="Nacute" xMin="193" yMin="0" xMax="1411" yMax="1907">
      <component glyphName="N" x="0" y="0" flags="0x204"/>
      <component glyphName="acute" x="291" y="338" flags="0x4"/>
    </TTGlyph>
    <TTGlyph name="Ncaron" xMin="193" yMin="0" xMax="1411" yMax="1907">
      <component glyphName="N" x="0" y="0" flags="0x204"/>
      <component glyphName="caron" x="201" y="338" flags="0x4"/>
    </TTGlyph>
    <TTGlyph name="Ncommaaccent" xMin="193" yMin="-453" xMax="1411" yMax="1462">
      <component glyphName="N" x="0" y="0" flags="0x204"/>
      <component glyphName="commaaccent" x="225" y="0" flags="0x4"/>
    </TTGlyph>
    <TTGlyph name="Ntilde" xMin="193" yMin="0" xMax="1411" yMax="1864">
      <component glyphName="N" x="0" y="0" flags="0x204"/>
      <component glyphName="tilde" x="178" y="338" flags="0x4"/>
    </TTGlyph>
    <TTGlyph name="Nu" xMin="193" yMin="0" xMax="1411" yMax="1462">
      <component glyphName="N" x="0" y="0" flags="0x204"/>
    </TTGlyph>
    <TTGlyph name="O" xMin="121" yMin="-20" xMax="1491" yMax="1485">
      <contour>
        <pt x="1491" y="733" on="1"/>
        <pt x="1491" y="376" on="0"/>
        <pt x="1134" y="-20" on="0"/>
        <pt x="807" y="-20" on="1"/>
        <pt x="476" y="-20" on="0"/>
        <pt x="121" y="373" on="0"/>
        <pt x="121" y="735" on="1"/>
        <pt x="121" y="1097" on="0"/>
        <pt x="478" y="1485" on="0"/>
        <pt x="809" y="1485" on="1"/>
        <pt x="1135" y="1485" on="0"/>
        <pt x="1491" y="1091" on="0"/>
      </contour>
      <contour>
        <pt x="375" y="733" on="1"/>
        <pt x="375" y="463" on="0"/>
        <pt x="593" y="184" on="0"/>
        <pt x="807" y="184" on="1"/>
        <pt x="1020" y="184" on="0"/>
        <pt x="1237" y="460" on="0"/>
        <pt x="1237" y="733" on="1"/>
        <pt x="1237" y="1002" on="0"/>
        <pt x="1022" y="1280" on="0"/>
        <pt x="809" y="1280" on="1"/>
        <pt x="594" y="1280" on="0"/>
        <pt x="375" y="1002" on="0"/>
      </contour>
    </TTGlyph>
    <TTGlyph name="OE" xMin="121" yMin="-20" xMax="1819" yMax="1485">
      <contour>
        <pt x="1819" y="0" on="1"/>
        <pt x="999" y="0" on="1"/>
        <pt x="897" y="-20" on="0"/>
        <pt x="788" y="-20" on="1"/>
        <pt x="468" y="-20" on="0"/>
        <pt x="121" y="373" on="0"/>
        <pt x="121" y="735" on="1"/>
        <pt x="121" y="1095" on="0"/>
        <pt x="465" y="1485" on="0"/>
        <pt x="784" y="1485" on="1"/>
        <pt x="899" y="1485" on="0"/>
        <pt x="993" y="1462" on="1"/>
        <pt x="1819" y="1462" on="1"/>
        <pt x="1819" y="1260" on="1"/>
        <pt x="1243" y="1260" on="1"/>
        <pt x="1243" y="862" on="1"/>
        <pt x="1782" y="862" on="1"/>
        <pt x="1782" y="662" on="1"/>
        <pt x="1243" y="662" on="1"/>
        <pt x="1243" y="203" on="1"/>
        <pt x="1819" y="203" on="1"/>
      </contour>
      <contour>
        <pt x="793" y="1280" on="1"/>
        <pt x="585" y="1280" on="0"/>
        <pt x="371" y="1002" on="0"/>
        <pt x="371" y="733" on="1"/>
        <pt x="371" y="464" on="0"/>
        <pt x="583" y="184" on="0"/>
        <pt x="791" y="184" on="1"/>
        <pt x="920" y="184" on="0"/>
        <pt x="1004" y="219" on="1"/>
        <pt x="1004" y="1243" on="1"/>
        <pt x="924" y="1280" on="0"/>
      </contour>
    </TTGlyph>
    <TTGlyph name="Oacute" xMin="121" yMin="-20" xMax="1491" yMax="1907">
      <component glyphName="O" x="0" y="0" flags="0x204"/>
      <component glyphName="acute" x="295" y="338" flags="0x4"/>
    </TTGlyph>
    <TTGlyph name="Obreve" xMin="121" yMin="-20" xMax="1491" yMax="1882">
      <component glyphName="O" x="0" y="0" flags="0x204"/>
      <component glyphName="breve" x="195" y="338" flags="0x4"/>
    </TTGlyph>
    <TTGlyph name="Ocircumflex" xMin="121" yMin="-20" xMax="1491" yMax="1907">
      <component glyphName="O" x="0" y="0" flags="0x204"/>
      <component glyphName="circumflex" x="186" y="338" flags="0x4"/>
    </TTGlyph>
    <TTGlyph name="Odieresis" xMin="121" yMin="-20" xMax="1491" yMax="1854">
      <component glyphName="O" x="0" y="0" flags="0x204"/>
      <component glyphName="dieresis" x="203" y="338" flags="0x4"/>
    </TTGlyph>
    <TTGlyph name="Ograve" xMin="121" yMin="-20" xMax="1491" yMax="1907">
      <component glyphName="O" x="0" y="0" flags="0x204"/>
      <component glyphName="grave" x="119" y="338" flags="0x4"/>
    </TTGlyph>
    <TTGlyph name="Ohorn" xMin="121" yMin="-20" xMax="1694" yMax="1556">
      <contour>
        <pt x="1489" y="733" on="1"/>
        <pt x="1489" y="376" on="0"/>
        <pt x="1133" y="-20" on="0"/>
        <pt x="807" y="-20" on="1"/>
        <pt x="476" y="-20" on="0"/>
        <pt x="121" y="373" on="0"/>
        <pt x="121" y="735" on="1"/>
        <pt x="121" y="1097" on="0"/>
        <pt x="478" y="1485" on="0"/>
        <pt x="809" y="1485" on="1"/>
        <pt x="1144" y="1485" on="0"/>
        <pt x="1323" y="1276" on="1"/>
        <pt x="1382" y="1299" on="0"/>
        <pt x="1438" y="1433" on="0"/>
        <pt x="1438" y="1556" on="1"/>
        <pt x="1679" y="1556" on="1"/>
        <pt x="1694" y="1534" on="1"/>
        <pt x="1662" y="1367" on="0"/>
        <pt x="1525" y="1180" on="0"/>
        <pt x="1411" y="1137" on="1"/>
        <pt x="1489" y="963" on="0"/>
      </contour>
      <contour>
        <pt x="375" y="733" on="1"/>
        <pt x="375" y="460" on="0"/>
        <pt x="594" y="184" on="0"/>
        <pt x="807" y="184" on="1"/>
        <pt x="1237" y="184" on="0"/>
        <pt x="1237" y="733" on="1"/>
        <pt x="1237" y="1280" on="0"/>
        <pt x="809" y="1280" on="1"/>
        <pt x="594" y="1280" on="0"/>
        <pt x="375" y="1005" on="0"/>
      </contour>
    </TTGlyph>
    <TTGlyph name="Ohungarumlaut" xMin="121" yMin="-20" xMax="1491" yMax="1907">
      <component glyphName="O" x="0" y="0" flags="0x204"/>
      <component glyphName="hungarumlaut" x="299" y="338" flags="0x4"/>
    </TTGlyph>
    <TTGlyph name="Omacron" xMin="121" yMin="-20" xMax="1491" yMax="1753">
      <component glyphName="O" x="0" y="0" flags="0x204"/>
      <component glyphName="macron" x="197" y="338" flags="0x4"/>
    </TTGlyph>
    <TTGlyph name="Omega" xMin="68" yMin="0" xMax="1538" yMax="1485">
      <component glyphName="uni03A9" x="0" y="0" flags="0x204"/>
    </TTGlyph>
    <TTGlyph name="Omegatonos" xMin="-42" yMin="0" xMax="1614" yMax="1535">
      <component glyphName="uni03A9" x="76" y="0" flags="0x4"/>
      <component glyphName="tonos" x="-531" y="-105" flags="0x4"/>
    </TTGlyph>
    <TTGlyph name="Omicron" xMin="121" yMin="-20" xMax="1491" yMax="1485">
      <component glyphName="O" x="0" y="0" flags="0x204"/>
    </TTGlyph>
    <TTGlyph name="Omicrontonos" xMin="-42" yMin="-20" xMax="1565" yMax="1535">
      <component glyphName="O" x="74" y="0" flags="0x4"/>
      <component glyphName="tonos" x="-531" y="-105" flags="0x4"/>
    </TTGlyph>
    <TTGlyph name="Oslash" xMin="121" yMin="-76" xMax="1491" yMax="1532">
      <contour>
        <pt x="1491" y="733" on="1"/>
        <pt x="1491" y="376" on="0"/>
        <pt x="1134" y="-20" on="0"/>
        <pt x="807" y="-20" on="1"/>
        <pt x="594" y="-20" on="0"/>
        <pt x="446" y="61" on="1"/>
        <pt x="352" y="-76" on="1"/>
        <pt x="211" y="18" on="1"/>
        <pt x="309" y="162" on="1"/>
        <pt x="121" y="358" on="0"/>
        <pt x="121" y="735" on="1"/>
        <pt x="121" y="1097" on="0"/>
        <pt x="478" y="1485" on="0"/>
        <pt x="809" y="1485" on="1"/>
        <pt x="1008" y="1485" on="0"/>
        <pt x="1163" y="1403" on="1"/>
        <pt x="1253" y="1532" on="1"/>
        <pt x="1395" y="1440" on="1"/>
        <pt x="1296" y="1300" on="1"/>
        <pt x="1491" y="1101" on="0"/>
      </contour>
      <contour>
        <pt x="1237" y="733" on="1"/>
        <pt x="1237" y="958" on="0"/>
        <pt x="1157" y="1094" on="1"/>
        <pt x="571" y="244" on="1"/>
        <pt x="668" y="184" on="0"/>
        <pt x="807" y="184" on="1"/>
        <pt x="1020" y="184" on="0"/>
        <pt x="1237" y="460" on="0"/>
      </contour>
      <contour>
        <pt x="375" y="733" on="1"/>
        <pt x="375" y="502" on="0"/>
        <pt x="453" y="371" on="1"/>
        <pt x="1040" y="1221" on="1"/>
        <pt x="948" y="1280" on="0"/>
        <pt x="809" y="1280" on="1"/>
        <pt x="594" y="1280" on="0"/>
        <pt x="375" y="1002" on="0"/>
      </contour>
    </TTGlyph>
    <TTGlyph name="Oslashacute" xMin="121" yMin="-76" xMax="1491" yMax="1907">
      <component glyphName="Oslash" x="0" y="0" flags="0x204"/>
      <component glyphName="acute" x="293" y="338" flags="0x4"/>
    </TTGlyph>
    <TTGlyph name="Otilde" xMin="121" yMin="-20" xMax="1491" yMax="1864">
      <component glyphName="O" x="0" y="0" flags="0x204"/>
      <component glyphName="tilde" x="174" y="338" flags="0x4"/>
    </TTGlyph>
    <TTGlyph name="P" xMin="193" yMin="0" xMax="1161" yMax="1462">
      <contour>
        <pt x="1161" y="1020" on="1"/>
        <pt x="1161" y="791" on="0"/>
        <pt x="861" y="547" on="0"/>
        <pt x="584" y="547" on="1"/>
        <pt x="432" y="547" on="1"/>
        <pt x="432" y="0" on="1"/>
        <pt x="193" y="0" on="1"/>
        <pt x="193" y="1462" on="1"/>
        <pt x="614" y="1462" on="1"/>
        <pt x="888" y="1462" on="0"/>
        <pt x="1161" y="1238" on="0"/>
      </contour>
      <contour>
        <pt x="432" y="748" on="1"/>
        <pt x="559" y="748" on="1"/>
        <pt x="743" y="748" on="0"/>
        <pt x="915" y="876" on="0"/>
        <pt x="915" y="1012" on="1"/>
        <pt x="915" y="1138" on="0"/>
        <pt x="761" y="1262" on="0"/>
        <pt x="598" y="1262" on="1"/>
        <pt x="432" y="1262" on="1"/>
      </contour>
    </TTGlyph>
    <TTGlyph name="Phi" xMin="98" yMin="-20" xMax="1597" yMax="1483">
      <contour>
        <pt x="961" y="395" on="1"/>
        <pt x="981" y="395" on="1"/>
        <pt x="1161" y="395" on="0"/>
        <pt x="1364" y="588" on="0"/>
        <pt x="1364" y="760" on="1"/>
        <pt x="1364" y="920" on="0"/>
        <pt x="1175" y="1108" on="0"/>
        <pt x="1010" y="1108" on="1"/>
        <pt x="961" y="1108" on="1"/>
      </contour>
      <contour>
        <pt x="735" y="-20" on="1"/>
        <pt x="735" y="205" on="1"/>
        <pt x="702" y="205" on="1"/>
        <pt x="523" y="205" on="0"/>
        <pt x="252" y="336" on="0"/>
        <pt x="98" y="598" on="0"/>
        <pt x="98" y="758" on="1"/>
        <pt x="98" y="913" on="0"/>
        <pt x="238" y="1162" on="0"/>
        <pt x="500" y="1303" on="0"/>
        <pt x="676" y="1303" on="1"/>
        <pt x="735" y="1303" on="1"/>
        <pt x="735" y="1483" on="1"/>
        <pt x="961" y="1483" on="1"/>
        <pt x="961" y="1303" on="1"/>
        <pt x="1022" y="1303" on="1"/>
        <pt x="1199" y="1303" on="0"/>
        <pt x="1460" y="1163" on="0"/>
        <pt x="1597" y="916" on="0"/>
        <pt x="1597" y="758" on="1"/>
        <pt x="1597" y="595" on="0"/>
        <pt x="1443" y="335" on="0"/>
        <pt x="1174" y="205" on="0"/>
        <pt x="993" y="205" on="1"/>
        <pt x="961" y="205" on="1"/>
        <pt x="961" y="-20" on="1"/>
      </contour>
      <contour>
        <pt x="735" y="1108" on="1"/>
        <pt x="686" y="1108" on="1"/>
        <pt x="520" y="1108" on="0"/>
        <pt x="332" y="919" on="0"/>
        <pt x="332" y="760" on="1"/>
        <pt x="332" y="590" on="0"/>
        <pt x="534" y="395" on="0"/>
        <pt x="717" y="395" on="1"/>
        <pt x="735" y="395" on="1"/>
      </contour>
    </TTGlyph>
    <TTGlyph name="Pi" xMin="193" yMin="0" xMax="1317" yMax="1462">
      <contour>
        <pt x="1317" y="0" on="1"/>
        <pt x="1077" y="0" on="1"/>
        <pt x="1077" y="1257" on="1"/>
        <pt x="432" y="1257" on="1"/>
        <pt x="432" y="0" on="1"/>
        <pt x="193" y="0" on="1"/>
        <pt x="193" y="1462" on="1"/>
        <pt x="1317" y="1462" on="1"/>
      </contour>
    </TTGlyph>
    <TTGlyph name="Psi" xMin="109" yMin="0" xMax="1604" yMax="1462">
      <contour>
        <pt x="1604" y="981" on="1"/>
        <pt x="1604" y="718" on="0"/>
        <pt x="1303" y="440" on="0"/>
        <pt x="1016" y="440" on="1"/>
        <pt x="967" y="440" on="1"/>
        <pt x="967" y="0" on="1"/>
        <pt x="743" y="0" on="1"/>
        <pt x="743" y="440" on="1"/>
        <pt x="694" y="440" on="1"/>
        <pt x="411" y="440" on="0"/>
        <pt x="109" y="713" on="0"/>
        <pt x="109" y="979" on="1"/>
        <pt x="109" y="1462" on="1"/>
        <pt x="340" y="1462" on="1"/>
        <pt x="340" y="983" on="1"/>
        <pt x="340" y="807" on="0"/>
        <pt x="523" y="639" on="0"/>
        <pt x="715" y="639" on="1"/>
        <pt x="743" y="639" on="1"/>
        <pt x="743" y="1462" on="1"/>
        <pt x="967" y="1462" on="1"/>
        <pt x="967" y="639" on="1"/>
        <pt x="997" y="639" on="1"/>
        <pt x="1179" y="639" on="0"/>
        <pt x="1370" y="810" on="0"/>
        <pt x="1370" y="979" on="1"/>
        <pt x="1370" y="1462" on="1"/>
        <pt x="1604" y="1462" on="1"/>
      </contour>
    </TTGlyph>
    <TTGlyph name="Q" xMin="121" yMin="-348" xMax="1491" yMax="1485">
      <contour>
        <pt x="1491" y="733" on="1"/>
        <pt x="1491" y="467" on="0"/>
        <pt x="1288" y="103" on="0"/>
        <pt x="1094" y="29" on="1"/>
        <pt x="1444" y="-348" on="1"/>
        <pt x="1122" y="-348" on="1"/>
        <pt x="846" y="-20" on="1"/>
        <pt x="807" y="-20" on="1"/>
        <pt x="476" y="-20" on="0"/>
        <pt x="121" y="373" on="0"/>
        <pt x="121" y="735" on="1"/>
        <pt x="121" y="1097" on="0"/>
        <pt x="478" y="1485" on="0"/>
        <pt x="809" y="1485" on="1"/>
        <pt x="1135" y="1485" on="0"/>
        <pt x="1491" y="1091" on="0"/>
      </contour>
      <contour>
        <pt x="375" y="733" on="1"/>
        <pt x="375" y="463" on="0"/>
        <pt x="593" y="184" on="0"/>
        <pt x="807" y="184" on="1"/>
        <pt x="1020" y="184" on="0"/>
        <pt x="1237" y="460" on="0"/>
        <pt x="1237" y="733" on="1"/>
        <pt x="1237" y="1002" on="0"/>
        <pt x="1022" y="1280" on="0"/>
        <pt x="809" y="1280" on="1"/>
        <pt x="594" y="1280" on="0"/>
        <pt x="375" y="1002" on="0"/>
      </contour>
    </TTGlyph>
    <TTGlyph name="R" xMin="193" yMin="0" xMax="1290" yMax="1462">
      <contour>
        <pt x="432" y="782" on="1"/>
        <pt x="598" y="782" on="1"/>
        <pt x="765" y="782" on="0"/>
        <pt x="915" y="906" on="0"/>
        <pt x="915" y="1028" on="1"/>
        <pt x="915" y="1152" on="0"/>
        <pt x="753" y="1260" on="0"/>
        <pt x="590" y="1260" on="1"/>
        <pt x="432" y="1260" on="1"/>
      </contour>
      <contour>
        <pt x="432" y="584" on="1"/>
        <pt x="432" y="0" on="1"/>
        <pt x="193" y="0" on="1"/>
        <pt x="193" y="1462" on="1"/>
        <pt x="606" y="1462" on="1"/>
        <pt x="889" y="1462" on="0"/>
        <pt x="1161" y="1250" on="0"/>
        <pt x="1161" y="1036" on="1"/>
        <pt x="1161" y="763" on="0"/>
        <pt x="877" y="647" on="1"/>
        <pt x="1290" y="0" on="1"/>
        <pt x="1018" y="0" on="1"/>
        <pt x="668" y="584" on="1"/>
      </contour>
    </TTGlyph>
    <TTGlyph name="Racute" xMin="193" yMin="0" xMax="1290" yMax="1907">
      <component glyphName="R" x="0" y="0" flags="0x204"/>
      <component glyphName="acute" x="133" y="338" flags="0x4"/>
    </TTGlyph>
    <TTGlyph name="Rcaron" xMin="193" yMin="0" xMax="1290" yMax="1907">
      <component glyphName="R" x="0" y="0" flags="0x204"/>
      <component glyphName="caron" x="39" y="338" flags="0x4"/>
    </TTGlyph>
    <TTGlyph name="Rcommaaccent" xMin="193" yMin="-453" xMax="1290" yMax="1462">
      <component glyphName="R" x="0" y="0" flags="0x204"/>
      <component glyphName="commaaccent" x="152" y="0" flags="0x4"/>
    </TTGlyph>
    <TTGlyph name="Rho" xMin="193" yMin="0" xMax="1161" yMax="1462">
      <component glyphName="P" x="0" y="0" flags="0x204"/>
    </TTGlyph>
    <TTGlyph name="S" xMin="100" yMin="-20" xMax="1036" yMax="1483">
      <contour>
        <pt x="1036" y="397" on="1"/>
        <pt x="1036" y="202" on="0"/>
        <pt x="754" y="-20" on="0"/>
        <pt x="506" y="-20" on="1"/>
        <pt x="258" y="-20" on="0"/>
        <pt x="100" y="57" on="1"/>
        <pt x="100" y="283" on="1"/>
        <pt x="200" y="236" on="0"/>
        <pt x="425" y="182" on="0"/>
        <pt x="522" y="182" on="1"/>
        <pt x="664" y="182" on="0"/>
        <pt x="799" y="290" on="0"/>
        <pt x="799" y="381" on="1"/>
        <pt x="799" y="463" on="0"/>
        <pt x="675" y="577" on="0"/>
        <pt x="481" y="655" on="1"/>
        <pt x="281" y="736" on="0"/>
        <pt x="117" y="944" on="0"/>
        <pt x="117" y="1090" on="1"/>
        <pt x="117" y="1273" on="0"/>
        <pt x="377" y="1483" on="0"/>
        <pt x="596" y="1483" on="1"/>
        <pt x="806" y="1483" on="0"/>
        <pt x="1014" y="1391" on="1"/>
        <pt x="938" y="1196" on="1"/>
        <pt x="743" y="1278" on="0"/>
        <pt x="590" y="1278" on="1"/>
        <pt x="474" y="1278" on="0"/>
        <pt x="354" y="1177" on="0"/>
        <pt x="354" y="1094" on="1"/>
        <pt x="354" y="1037" on="0"/>
        <pt x="402" y="956" on="0"/>
        <pt x="512" y="884" on="0"/>
        <pt x="655" y="825" on="1"/>
        <pt x="816" y="758" on="0"/>
        <pt x="966" y="642" on="0"/>
        <pt x="1036" y="496" on="0"/>
      </contour>
    </TTGlyph>
    <TTGlyph name="Sacute" xMin="100" yMin="-20" xMax="1036" yMax="1907">
      <component glyphName="S" x="0" y="0" flags="0x204"/>
      <component glyphName="acute" x="78" y="338" flags="0x4"/>
    </TTGlyph>
    <TTGlyph name="Scaron" xMin="100" yMin="-20" xMax="1036" yMax="1907">
      <component glyphName="S" x="0" y="0" flags="0x204"/>
      <component glyphName="caron" x="-24" y="338" flags="0x4"/>
    </TTGlyph>
    <TTGlyph name="Scedilla" xMin="100" yMin="-492" xMax="1036" yMax="1483">
      <component glyphName="S" x="0" y="0" flags="0x204"/>
      <component glyphName="cedilla" x="324" y="0" flags="0x4"/>
    </TTGlyph>
    <TTGlyph name="Scircumflex" xMin="100" yMin="-20" xMax="1036" yMax="1907">
      <component glyphName="S" x="0" y="0" flags="0x204"/>
      <component glyphName="circumflex" x="-22" y="338" flags="0x4"/>
    </TTGlyph>
    <TTGlyph name="Scommaaccent" xMin="100" yMin="-453" xMax="1036" yMax="1483">
      <component glyphName="S" x="0" y="0" flags="0x204"/>
      <component glyphName="commaaccent" x="0" y="0" flags="0x4"/>
    </TTGlyph>
    <TTGlyph name="Sigma" xMin="76" yMin="0" xMax="1130" yMax="1462">
      <contour>
        <pt x="76" y="0" on="1"/>
        <pt x="76" y="193" on="1"/>
        <pt x="551" y="764" on="1"/>
        <pt x="88" y="1272" on="1"/>
        <pt x="88" y="1462" on="1"/>
        <pt x="1071" y="1462" on="1"/>
        <pt x="1071" y="1257" on="1"/>
        <pt x="567" y="1257" on="1"/>
        <pt x="352" y="1264" on="1"/>
        <pt x="809" y="766" on="1"/>
        <pt x="330" y="197" on="1"/>
        <pt x="643" y="203" on="1"/>
        <pt x="1130" y="203" on="1"/>
        <pt x="1130" y="0" on="1"/>
      </contour>
    </TTGlyph>
    <TTGlyph name="T" xMin="29" yMin="0" xMax="1128" yMax="1462">
      <contour>
        <pt x="698" y="0" on="1"/>
        <pt x="459" y="0" on="1"/>
        <pt x="459" y="1257" on="1"/>
        <pt x="29" y="1257" on="1"/>
        <pt x="29" y="1462" on="1"/>
        <pt x="1128" y="1462" on="1"/>
        <pt x="1128" y="1257" on="1"/>
        <pt x="698" y="1257" on="1"/>
      </contour>
    </TTGlyph>
    <TTGlyph name="Tau" xMin="29" yMin="0" xMax="1128" yMax="1462">
      <component glyphName="T" x="0" y="0" flags="0x204"/>
    </TTGlyph>
    <TTGlyph name="Tbar" xMin="29" yMin="0" xMax="1128" yMax="1462">
      <contour>
        <pt x="698" y="0" on="1"/>
        <pt x="459" y="0" on="1"/>
        <pt x="459" y="635" on="1"/>
        <pt x="178" y="635" on="1"/>
        <pt x="178" y="831" on="1"/>
        <pt x="459" y="831" on="1"/>
        <pt x="459" y="1257" on="1"/>
        <pt x="29" y="1257" on="1"/>
        <pt x="29" y="1462" on="1"/>
        <pt x="1128" y="1462" on="1"/>
        <pt x="1128" y="1257" on="1"/>
        <pt x="698" y="1257" on="1"/>
        <pt x="698" y="831" on="1"/>
        <pt x="977" y="831" on="1"/>
        <pt x="977" y="635" on="1"/>
        <pt x="698" y="635" on="1"/>
      </contour>
    </TTGlyph>
    <TTGlyph name="Tcaron" xMin="29" yMin="0" xMax="1128" yMax="1907">
      <component glyphName="T" x="0" y="0" flags="0x204"/>
      <component glyphName="caron" x="-30" y="338" flags="0x4"/>
    </TTGlyph>
    <TTGlyph name="Tcedilla" xMin="29" yMin="-492" xMax="1128" yMax="1462">
      <component glyphName="T" x="0" y="0" flags="0x204"/>
      <component glyphName="cedilla" x="356" y="0" flags="0x4"/>
    </TTGlyph>
    <TTGlyph name="Tcommaaccent" xMin="29" yMin="-453" xMax="1128" yMax="1462">
      <component glyphName="T" x="0" y="0" flags="0x204"/>
      <component glyphName="commaaccent" x="33" y="0" flags="0x4"/>
    </TTGlyph>
    <TTGlyph name="Theta" xMin="121" yMin="-20" xMax="1491" yMax="1485">
      <contour>
        <pt x="1094" y="844" on="1"/>
        <pt x="1094" y="643" on="1"/>
        <pt x="518" y="643" on="1"/>
        <pt x="518" y="844" on="1"/>
      </contour>
      <contour>
        <pt x="1491" y="733" on="1"/>
        <pt x="1491" y="376" on="0"/>
        <pt x="1134" y="-20" on="0"/>
        <pt x="807" y="-20" on="1"/>
        <pt x="476" y="-20" on="0"/>
        <pt x="121" y="373" on="0"/>
        <pt x="121" y="735" on="1"/>
        <pt x="121" y="1097" on="0"/>
        <pt x="478" y="1485" on="0"/>
        <pt x="809" y="1485" on="1"/>
        <pt x="1135" y="1485" on="0"/>
        <pt x="1491" y="1091" on="0"/>
      </contour>
      <contour>
        <pt x="371" y="733" on="1"/>
        <pt x="371" y="464" on="0"/>
        <pt x="591" y="184" on="0"/>
        <pt x="807" y="184" on="1"/>
        <pt x="1022" y="184" on="0"/>
        <pt x="1241" y="459" on="0"/>
        <pt x="1241" y="733" on="1"/>
        <pt x="1241" y="1004" on="0"/>
        <pt x="1022" y="1280" on="0"/>
        <pt x="809" y="1280" on="1"/>
        <pt x="592" y="1280" on="0"/>
        <pt x="371" y="1001" on="0"/>
      </contour>
    </TTGlyph>
    <TTGlyph name="Thorn" xMin="193" yMin="0" xMax="1169" yMax="1462">
      <contour>
        <pt x="1169" y="776" on="1"/>
        <pt x="1169" y="549" on="0"/>
        <pt x="877" y="305" on="0"/>
        <pt x="600" y="305" on="1"/>
        <pt x="432" y="305" on="1"/>
        <pt x="432" y="0" on="1"/>
        <pt x="193" y="0" on="1"/>
        <pt x="193" y="1462" on="1"/>
        <pt x="432" y="1462" on="1"/>
        <pt x="432" y="1219" on="1"/>
        <pt x="629" y="1219" on="1"/>
        <pt x="897" y="1219" on="0"/>
        <pt x="1169" y="995" on="0"/>
      </contour>
      <contour>
        <pt x="432" y="504" on="1"/>
        <pt x="565" y="504" on="1"/>
        <pt x="752" y="504" on="0"/>
        <pt x="924" y="630" on="0"/>
        <pt x="924" y="770" on="1"/>
        <pt x="924" y="897" on="0"/>
        <pt x="768" y="1020" on="0"/>
        <pt x="596" y="1020" on="1"/>
        <pt x="432" y="1020" on="1"/>
      </contour>
    </TTGlyph>
    <TTGlyph name="U" xMin="180" yMin="-20" xMax="1339" yMax="1462">
      <contour>
        <pt x="1339" y="1462" on="1"/>
        <pt x="1339" y="516" on="1"/>
        <pt x="1339" y="354" on="0"/>
        <pt x="1200" y="111" on="0"/>
        <pt x="937" y="-20" on="0"/>
        <pt x="754" y="-20" on="1"/>
        <pt x="482" y="-20" on="0"/>
        <pt x="180" y="268" on="0"/>
        <pt x="180" y="520" on="1"/>
        <pt x="180" y="1462" on="1"/>
        <pt x="420" y="1462" on="1"/>
        <pt x="420" y="537" on="1"/>
        <pt x="420" y="356" on="0"/>
        <pt x="588" y="184" on="0"/>
        <pt x="762" y="184" on="1"/>
        <pt x="1100" y="184" on="0"/>
        <pt x="1100" y="539" on="1"/>
        <pt x="1100" y="1462" on="1"/>
      </contour>
    </TTGlyph>
    <TTGlyph name="Uacute" xMin="180" yMin="-20" xMax="1339" yMax="1907">
      <component glyphName="U" x="0" y="0" flags="0x204"/>
      <component glyphName="acute" x="238" y="338" flags="0x4"/>
    </TTGlyph>
    <TTGlyph name="Ubreve" xMin="180" yMin="-20" xMax="1339" yMax="1882">
      <component glyphName="U" x="0" y="0" flags="0x204"/>
      <component glyphName="breve" x="145" y="338" flags="0x4"/>
    </TTGlyph>
    <TTGlyph name="Ucircumflex" xMin="180" yMin="-20" xMax="1339" yMax="1907">
      <component glyphName="U" x="0" y="0" flags="0x204"/>
      <component glyphName="circumflex" x="139" y="338" flags="0x4"/>
    </TTGlyph>
    <TTGlyph name="Udieresis" xMin="180" yMin="-20" xMax="1339" yMax="1854">
      <component glyphName="U" x="0" y="0" flags="0x204"/>
      <component glyphName="dieresis" x="152" y="338" flags="0x4"/>
    </TTGlyph>
    <TTGlyph name="Ugrave" xMin="180" yMin="-20" xMax="1339" yMax="1907">
      <component glyphName="U" x="0" y="0" flags="0x204"/>
      <component glyphName="grave" x="55" y="338" flags="0x4"/>
    </TTGlyph>
    <TTGlyph name="Uhorn" xMin="180" yMin="-20" xMax="1745" yMax="1556">
      <contour>
        <pt x="1339" y="1462" on="1"/>
        <pt x="1339" y="1268" on="1"/>
        <pt x="1417" y="1286" on="0"/>
        <pt x="1491" y="1425" on="0"/>
        <pt x="1491" y="1556" on="1"/>
        <pt x="1731" y="1556" on="1"/>
        <pt x="1745" y="1534" on="1"/>
        <pt x="1718" y="1392" on="0"/>
        <pt x="1621" y="1234" on="0"/>
        <pt x="1458" y="1134" on="0"/>
        <pt x="1339" y="1116" on="1"/>
        <pt x="1339" y="516" on="1"/>
        <pt x="1339" y="265" on="0"/>
        <pt x="1035" y="-20" on="0"/>
        <pt x="760" y="-20" on="1"/>
        <pt x="484" y="-20" on="0"/>
        <pt x="180" y="268" on="0"/>
        <pt x="180" y="520" on="1"/>
        <pt x="180" y="1462" on="1"/>
        <pt x="420" y="1462" on="1"/>
        <pt x="420" y="524" on="1"/>
        <pt x="420" y="184" on="0"/>
        <pt x="766" y="184" on="1"/>
        <pt x="1100" y="184" on="0"/>
        <pt x="1100" y="526" on="1"/>
        <pt x="1100" y="1462" on="1"/>
      </contour>
    </TTGlyph>
    <TTGlyph name="Uhungarumlaut" xMin="180" yMin="-20" xMax="1339" yMax="1907">
      <component glyphName="U" x="0" y="0" flags="0x204"/>
      <component glyphName="hungarumlaut" x="254" y="338" flags="0x4"/>
    </TTGlyph>
    <TTGlyph name="Umacron" xMin="180" yMin="-20" xMax="1339" yMax="1753">
      <component glyphName="U" x="0" y="0" flags="0x204"/>
      <component glyphName="macron" x="150" y="338" flags="0x4"/>
    </TTGlyph>
    <TTGlyph name="Uogonek" xMin="180" yMin="-469" xMax="1339" yMax="1462">
      <component glyphName="U" x="0" y="0" flags="0x204"/>
      <component glyphName="ogonek" x="563" y="0" flags="0x4"/>
    </TTGlyph>
    <TTGlyph name="Upsilon" xMin="0" yMin="0" xMax="1212" yMax="1462">
      <component glyphName="Y" x="0" y="0" flags="0x204"/>
    </TTGlyph>
    <TTGlyph name="Upsilondieresis" xMin="0" yMin="0" xMax="1212" yMax="1854">
      <component glyphName="Y" x="0" y="0" flags="0x204"/>
      <component glyphName="dieresis" x="0" y="338" flags="0x4"/>
    </TTGlyph>
    <TTGlyph name="Upsilontonos" xMin="-81" yMin="0" xMax="1488" yMax="1535">
      <component glyphName="Y" x="276" y="0" flags="0x4"/>
      <component glyphName="tonos" x="-570" y="-105" flags="0x4"/>
    </TTGlyph>
    <TTGlyph name="Uring" xMin="180" yMin="-20" xMax="1339" yMax="2030">
      <component glyphName="U" x="0" y="0" flags="0x204"/>
      <component glyphName="ring" x="170" y="338" flags="0x4"/>
    </TTGlyph>
    <TTGlyph name="Utilde" xMin="180" yMin="-20" xMax="1339" yMax="1864">
      <component glyphName="U" x="0" y="0" flags="0x204"/>
      <component glyphName="tilde" x="133" y="338" flags="0x4"/>
    </TTGlyph>
    <TTGlyph name="V" xMin="0" yMin="0" xMax="1274" yMax="1462">
      <contour>
        <pt x="1026" y="1462" on="1"/>
        <pt x="1274" y="1462" on="1"/>
        <pt x="762" y="0" on="1"/>
        <pt x="510" y="0" on="1"/>
        <pt x="0" y="1462" on="1"/>
        <pt x="246" y="1462" on="1"/>
        <pt x="551" y="553" on="1"/>
        <pt x="575" y="488" on="0"/>
        <pt x="629" y="283" on="0"/>
        <pt x="637" y="233" on="1"/>
        <pt x="650" y="309" on="0"/>
        <pt x="704" y="509" on="0"/>
        <pt x="721" y="557" on="1"/>
      </contour>
    </TTGlyph>
    <TTGlyph name="W" xMin="12" yMin="0" xMax="1923" yMax="1462">
      <contour>
        <pt x="1542" y="0" on="1"/>
        <pt x="1282" y="0" on="1"/>
        <pt x="1034" y="872" on="1"/>
        <pt x="1018" y="929" on="0"/>
        <pt x="970" y="1144" on="0"/>
        <pt x="965" y="1186" on="1"/>
        <pt x="955" y="1122" on="0"/>
        <pt x="910" y="918" on="0"/>
        <pt x="895" y="868" on="1"/>
        <pt x="653" y="0" on="1"/>
        <pt x="393" y="0" on="1"/>
        <pt x="204" y="732" on="1"/>
        <pt x="12" y="1462" on="1"/>
        <pt x="256" y="1462" on="1"/>
        <pt x="465" y="610" on="1"/>
        <pt x="514" y="405" on="0"/>
        <pt x="535" y="248" on="1"/>
        <pt x="546" y="333" on="0"/>
        <pt x="590" y="543" on="0"/>
        <pt x="608" y="608" on="1"/>
        <pt x="846" y="1462" on="1"/>
        <pt x="1083" y="1462" on="1"/>
        <pt x="1327" y="604" on="1"/>
        <pt x="1362" y="485" on="0"/>
        <pt x="1401" y="248" on="1"/>
        <pt x="1416" y="391" on="0"/>
        <pt x="1473" y="612" on="1"/>
        <pt x="1681" y="1462" on="1"/>
        <pt x="1923" y="1462" on="1"/>
      </contour>
    </TTGlyph>
    <TTGlyph name="Wacute" xMin="12" yMin="0" xMax="1923" yMax="1907">
      <component glyphName="W" x="0" y="0" flags="0x204"/>
      <component glyphName="acute" x="436" y="338" flags="0x4"/>
    </TTGlyph>
    <TTGlyph name="Wcircumflex" xMin="12" yMin="0" xMax="1923" yMax="1907">
      <component glyphName="W" x="0" y="0" flags="0x204"/>
      <component glyphName="circumflex" x="354" y="338" flags="0x4"/>
    </TTGlyph>
    <TTGlyph name="Wdieresis" xMin="12" yMin="0" xMax="1923" yMax="1854">
      <component glyphName="W" x="0" y="0" flags="0x204"/>
      <component glyphName="dieresis" x="360" y="338" flags="0x4"/>
    </TTGlyph>
    <TTGlyph name="Wgrave" xMin="12" yMin="0" xMax="1923" yMax="1907">
      <component glyphName="W" x="0" y="0" flags="0x204"/>
      <component glyphName="grave" x="264" y="338" flags="0x4"/>
    </TTGlyph>
    <TTGlyph name="X" xMin="4" yMin="0" xMax="1270" yMax="1462">
      <contour>
        <pt x="1270" y="0" on="1"/>
        <pt x="995" y="0" on="1"/>
        <pt x="629" y="598" on="1"/>
        <pt x="260" y="0" on="1"/>
        <pt x="4" y="0" on="1"/>
        <pt x="489" y="758" on="1"/>
        <pt x="35" y="1462" on="1"/>
        <pt x="301" y="1462" on="1"/>
        <pt x="639" y="909" on="1"/>
        <pt x="977" y="1462" on="1"/>
        <pt x="1235" y="1462" on="1"/>
        <pt x="778" y="754" on="1"/>
      </contour>
    </TTGlyph>
    <TTGlyph name="Xi" xMin="76" yMin="0" xMax="1073" yMax="1462">
      <contour>
        <pt x="199" y="862" on="1"/>
        <pt x="950" y="862" on="1"/>
        <pt x="950" y="662" on="1"/>
        <pt x="199" y="662" on="1"/>
      </contour>
      <contour>
        <pt x="117" y="1462" on="1"/>
        <pt x="1032" y="1462" on="1"/>
        <pt x="1032" y="1260" on="1"/>
        <pt x="117" y="1260" on="1"/>
      </contour>
      <contour>
        <pt x="1073" y="203" on="1"/>
        <pt x="1073" y="0" on="1"/>
        <pt x="76" y="0" on="1"/>
        <pt x="76" y="203" on="1"/>
      </contour>
    </TTGlyph>
    <TTGlyph name="Y" xMin="0" yMin="0" xMax="1212" yMax="1462">
      <contour>
        <pt x="606" y="795" on="1"/>
        <pt x="952" y="1462" on="1"/>
        <pt x="1212" y="1462" on="1"/>
        <pt x="725" y="567" on="1"/>
        <pt x="725" y="0" on="1"/>
        <pt x="485" y="0" on="1"/>
        <pt x="485" y="559" on="1"/>
        <pt x="0" y="1462" on="1"/>
        <pt x="260" y="1462" on="1"/>
      </contour>
    </TTGlyph>
    <TTGlyph name="Yacute" xMin="0" yMin="0" xMax="1212" yMax="1907">
      <component glyphName="Y" x="0" y="0" flags="0x204"/>
      <component glyphName="acute" x="88" y="338" flags="0x4"/>
    </TTGlyph>
    <TTGlyph name="Ycircumflex" xMin="0" yMin="0" xMax="1212" yMax="1907">
      <component glyphName="Y" x="0" y="0" flags="0x204"/>
      <component glyphName="circumflex" x="-5" y="338" flags="0x4"/>
    </TTGlyph>
    <TTGlyph name="Ydieresis" xMin="0" yMin="0" xMax="1212" yMax="1854">
      <component glyphName="Y" x="0" y="0" flags="0x204"/>
      <component glyphName="dieresis" x="0" y="338" flags="0x4"/>
    </TTGlyph>
    <TTGlyph name="Ygrave" xMin="0" yMin="0" xMax="1212" yMax="1907">
      <component glyphName="Y" x="0" y="0" flags="0x204"/>
      <component glyphName="grave" x="-120" y="338" flags="0x4"/>
    </TTGlyph>
    <TTGlyph name="Z" xMin="66" yMin="0" xMax="1112" yMax="1462">
      <contour>
        <pt x="1112" y="0" on="1"/>
        <pt x="66" y="0" on="1"/>
        <pt x="66" y="166" on="1"/>
        <pt x="803" y="1257" on="1"/>
        <pt x="86" y="1257" on="1"/>
        <pt x="86" y="1462" on="1"/>
        <pt x="1092" y="1462" on="1"/>
        <pt x="1092" y="1294" on="1"/>
        <pt x="352" y="205" on="1"/>
        <pt x="1112" y="205" on="1"/>
      </contour>
    </TTGlyph>
    <TTGlyph name="Zacute" xMin="66" yMin="0" xMax="1112" yMax="1907">
      <component glyphName="Z" x="0" y="0" flags="0x204"/>
      <component glyphName="acute" x="72" y="338" flags="0x4"/>
    </TTGlyph>
    <TTGlyph name="Zcaron" xMin="66" yMin="0" xMax="1112" yMax="1907">
      <component glyphName="Z" x="0" y="0" flags="0x204"/>
      <component glyphName="caron" x="-17" y="338" flags="0x4"/>
    </TTGlyph>
    <TTGlyph name="Zdotaccent" xMin="66" yMin="0" xMax="1112" yMax="1868">
      <component glyphName="Z" x="0" y="0" flags="0x204"/>
      <component glyphName="dotaccent" x="301" y="338" flags="0x4"/>
    </TTGlyph>
    <TTGlyph name="Zeta" xMin="66" yMin="0" xMax="1112" yMax="1462">
      <component glyphName="Z" x="0" y="0" flags="0x204"/>
    </TTGlyph>
    <TTGlyph name="a" xMin="90" yMin="-20" xMax="1028" yMax="1126">
      <contour>
        <pt x="860" y="0" on="1"/>
        <pt x="813" y="154" on="1"/>
        <pt x="805" y="154" on="1"/>
        <pt x="725" y="53" on="0"/>
        <pt x="563" y="-20" on="0"/>
        <pt x="436" y="-20" on="1"/>
        <pt x="273" y="-20" on="0"/>
        <pt x="90" y="156" on="0"/>
        <pt x="90" y="317" on="1"/>
        <pt x="90" y="488" on="0"/>
        <pt x="344" y="662" on="0"/>
        <pt x="604" y="670" on="1"/>
        <pt x="795" y="676" on="1"/>
        <pt x="795" y="735" on="1"/>
        <pt x="795" y="841" on="0"/>
        <pt x="696" y="946" on="0"/>
        <pt x="592" y="946" on="1"/>
        <pt x="507" y="946" on="0"/>
        <pt x="351" y="896" on="0"/>
        <pt x="279" y="862" on="1"/>
        <pt x="203" y="1030" on="1"/>
        <pt x="293" y="1077" on="0"/>
        <pt x="507" y="1126" on="0"/>
        <pt x="602" y="1126" on="1"/>
        <pt x="813" y="1126" on="0"/>
        <pt x="1028" y="942" on="0"/>
        <pt x="1028" y="745" on="1"/>
        <pt x="1028" y="0" on="1"/>
      </contour>
      <contour>
        <pt x="510" y="160" on="1"/>
        <pt x="638" y="160" on="0"/>
        <pt x="793" y="303" on="0"/>
        <pt x="793" y="432" on="1"/>
        <pt x="793" y="528" on="1"/>
        <pt x="651" y="522" on="1"/>
        <pt x="485" y="516" on="0"/>
        <pt x="334" y="417" on="0"/>
        <pt x="334" y="315" on="1"/>
        <pt x="334" y="241" on="0"/>
        <pt x="422" y="160" on="0"/>
      </contour>
    </TTGlyph>
    <TTGlyph name="aacute" xMin="90" yMin="-20" xMax="1028" yMax="1569">
      <component glyphName="a" x="0" y="0" flags="0x204"/>
      <component glyphName="acute" x="76" y="0" flags="0x4"/>
    </TTGlyph>
    <TTGlyph name="abreve" xMin="90" yMin="-20" xMax="1028" yMax="1544">
      <component glyphName="a" x="0" y="0" flags="0x204"/>
      <component glyphName="breve" x="-7" y="0" flags="0x4"/>
    </TTGlyph>
    <TTGlyph name="acircumflex" xMin="90" yMin="-20" xMax="1028" yMax="1569">
      <component glyphName="a" x="0" y="0" flags="0x204"/>
      <component glyphName="circumflex" x="-24" y="0" flags="0x4"/>
    </TTGlyph>
    <TTGlyph name="acute" xMin="362" yMin="1241" xMax="848" yMax="1569">
      <contour>
        <pt x="362" y="1241" on="1"/>
        <pt x="362" y="1266" on="1"/>
        <pt x="419" y="1336" on="0"/>
        <pt x="540" y="1508" on="0"/>
        <pt x="575" y="1569" on="1"/>
        <pt x="848" y="1569" on="1"/>
        <pt x="848" y="1548" on="1"/>
        <pt x="796" y="1487" on="0"/>
        <pt x="589" y="1294" on="0"/>
        <pt x="518" y="1241" on="1"/>
      </contour>
    </TTGlyph>
    <TTGlyph name="adieresis" xMin="90" yMin="-20" xMax="1028" yMax="1516">
      <component glyphName="a" x="0" y="0" flags="0x204"/>
      <component glyphName="dieresis" x="-11" y="0" flags="0x4"/>
    </TTGlyph>
    <TTGlyph name="ae" xMin="90" yMin="-20" xMax="1720" yMax="1126">
      <contour>
        <pt x="90" y="317" on="1"/>
        <pt x="90" y="489" on="0"/>
        <pt x="333" y="662" on="0"/>
        <pt x="582" y="670" on="1"/>
        <pt x="770" y="676" on="1"/>
        <pt x="770" y="752" on="1"/>
        <pt x="770" y="946" on="0"/>
        <pt x="569" y="946" on="1"/>
        <pt x="428" y="946" on="0"/>
        <pt x="262" y="864" on="1"/>
        <pt x="188" y="1030" on="1"/>
        <pt x="276" y="1077" on="0"/>
        <pt x="485" y="1126" on="0"/>
        <pt x="584" y="1126" on="1"/>
        <pt x="825" y="1126" on="0"/>
        <pt x="924" y="971" on="1"/>
        <pt x="1044" y="1126" on="0"/>
        <pt x="1270" y="1126" on="1"/>
        <pt x="1476" y="1126" on="0"/>
        <pt x="1720" y="857" on="0"/>
        <pt x="1720" y="629" on="1"/>
        <pt x="1720" y="502" on="1"/>
        <pt x="1008" y="502" on="1"/>
        <pt x="1018" y="166" on="0"/>
        <pt x="1309" y="166" on="1"/>
        <pt x="1493" y="166" on="0"/>
        <pt x="1665" y="246" on="1"/>
        <pt x="1665" y="55" on="1"/>
        <pt x="1579" y="14" on="0"/>
        <pt x="1408" y="-20" on="0"/>
        <pt x="1298" y="-20" on="1"/>
        <pt x="1158" y="-20" on="0"/>
        <pt x="941" y="89" on="0"/>
        <pt x="874" y="199" on="1"/>
        <pt x="780" y="74" on="0"/>
        <pt x="587" y="-20" on="0"/>
        <pt x="442" y="-20" on="1"/>
        <pt x="277" y="-20" on="0"/>
        <pt x="90" y="160" on="0"/>
      </contour>
      <contour>
        <pt x="334" y="315" on="1"/>
        <pt x="334" y="160" on="0"/>
        <pt x="500" y="160" on="1"/>
        <pt x="624" y="160" on="0"/>
        <pt x="768" y="305" on="0"/>
        <pt x="768" y="432" on="1"/>
        <pt x="768" y="528" on="1"/>
        <pt x="633" y="522" on="1"/>
        <pt x="478" y="516" on="0"/>
        <pt x="334" y="419" on="0"/>
      </contour>
      <contour>
        <pt x="1266" y="948" on="1"/>
        <pt x="1154" y="948" on="0"/>
        <pt x="1023" y="809" on="0"/>
        <pt x="1014" y="670" on="1"/>
        <pt x="1487" y="670" on="1"/>
        <pt x="1487" y="800" on="0"/>
        <pt x="1370" y="948" on="0"/>
      </contour>
    </TTGlyph>
    <TTGlyph name="aeacute" xMin="90" yMin="-20" xMax="1720" yMax="1569">
      <component glyphName="ae" x="0" y="0" flags="0x204"/>
      <component glyphName="acute" x="426" y="0" flags="0x4"/>
    </TTGlyph>
    <TTGlyph name="afii00208" xMin="82" yMin="455" xMax="1966" yMax="645">
      <contour>
        <pt x="82" y="455" on="1"/>
        <pt x="82" y="645" on="1"/>
        <pt x="1966" y="645" on="1"/>
        <pt x="1966" y="455" on="1"/>
      </contour>
    </TTGlyph>
    <TTGlyph name="afii08941" xMin="74" yMin="0" xMax="1112" yMax="1481">
      <contour>
        <pt x="696" y="1481" on="1"/>
        <pt x="893" y="1481" on="0"/>
        <pt x="1067" y="1401" on="1"/>
        <pt x="991" y="1221" on="1"/>
        <pt x="832" y="1288" on="0"/>
        <pt x="702" y="1288" on="1"/>
        <pt x="502" y="1288" on="0"/>
        <pt x="502" y="1069" on="1"/>
        <pt x="502" y="920" on="1"/>
        <pt x="891" y="920" on="1"/>
        <pt x="891" y="768" on="1"/>
        <pt x="502" y="768" on="1"/>
        <pt x="502" y="627" on="1"/>
        <pt x="891" y="627" on="1"/>
        <pt x="891" y="473" on="1"/>
        <pt x="500" y="473" on="1"/>
        <pt x="500" y="291" on="0"/>
        <pt x="356" y="207" on="1"/>
        <pt x="1112" y="207" on="1"/>
        <pt x="1112" y="0" on="1"/>
        <pt x="74" y="0" on="1"/>
        <pt x="74" y="195" on="1"/>
        <pt x="171" y="223" on="0"/>
        <pt x="257" y="351" on="0"/>
        <pt x="268" y="473" on="1"/>
        <pt x="78" y="473" on="1"/>
        <pt x="78" y="627" on="1"/>
        <pt x="268" y="627" on="1"/>
        <pt x="268" y="768" on="1"/>
        <pt x="78" y="768" on="1"/>
        <pt x="78" y="920" on="1"/>
        <pt x="268" y="920" on="1"/>
        <pt x="268" y="1047" on="1"/>
        <pt x="268" y="1264" on="0"/>
        <pt x="488" y="1481" on="0"/>
      </contour>
    </TTGlyph>
    <TTGlyph name="afii10017" xMin="0" yMin="0" xMax="1354" yMax="1468">
      <component glyphName="A" x="0" y="0" flags="0x204"/>
    </TTGlyph>
    <TTGlyph name="afii10018" xMin="193" yMin="0" xMax="1182" yMax="1462">
      <contour>
        <pt x="1182" y="440" on="1"/>
        <pt x="1182" y="0" on="0"/>
        <pt x="618" y="0" on="1"/>
        <pt x="193" y="0" on="1"/>
        <pt x="193" y="1462" on="1"/>
        <pt x="1085" y="1462" on="1"/>
        <pt x="1085" y="1257" on="1"/>
        <pt x="432" y="1257" on="1"/>
        <pt x="432" y="868" on="1"/>
        <pt x="606" y="868" on="1"/>
        <pt x="1182" y="868" on="0"/>
      </contour>
      <contour>
        <pt x="432" y="201" on="1"/>
        <pt x="604" y="201" on="1"/>
        <pt x="776" y="201" on="0"/>
        <pt x="936" y="314" on="0"/>
        <pt x="936" y="440" on="1"/>
        <pt x="936" y="561" on="0"/>
        <pt x="775" y="668" on="0"/>
        <pt x="575" y="668" on="1"/>
        <pt x="432" y="668" on="1"/>
      </contour>
    </TTGlyph>
    <TTGlyph name="afii10019" xMin="193" yMin="0" xMax="1241" yMax="1462">
      <component glyphName="B" x="0" y="0" flags="0x204"/>
    </TTGlyph>
    <TTGlyph name="afii10020" xMin="193" yMin="0" xMax="1061" yMax="1462">
      <component glyphName="Gamma" x="0" y="0" flags="0x204"/>
    </TTGlyph>
    <TTGlyph name="afii10021" xMin="12" yMin="-403" xMax="1438" yMax="1462">
      <contour>
        <pt x="12" y="205" on="1"/>
        <pt x="125" y="205" on="1"/>
        <pt x="270" y="470" on="0"/>
        <pt x="466" y="1130" on="0"/>
        <pt x="494" y="1462" on="1"/>
        <pt x="1249" y="1462" on="1"/>
        <pt x="1249" y="205" on="1"/>
        <pt x="1438" y="205" on="1"/>
        <pt x="1438" y="-403" on="1"/>
        <pt x="1208" y="-403" on="1"/>
        <pt x="1208" y="0" on="1"/>
        <pt x="242" y="0" on="1"/>
        <pt x="242" y="-403" on="1"/>
        <pt x="12" y="-403" on="1"/>
      </contour>
      <contour>
        <pt x="694" y="1255" on="1"/>
        <pt x="672" y="1028" on="0"/>
        <pt x="492" y="429" on="0"/>
        <pt x="377" y="205" on="1"/>
        <pt x="1010" y="205" on="1"/>
        <pt x="1010" y="1255" on="1"/>
      </contour>
    </TTGlyph>
    <TTGlyph name="afii10022" xMin="193" yMin="0" xMax="1020" yMax="1462">
      <component glyphName="E" x="0" y="0" flags="0x204"/>
    </TTGlyph>
    <TTGlyph name="afii10023" xMin="193" yMin="0" xMax="1020" yMax="1854">
      <component glyphName="E" x="0" y="0" flags="0x204"/>
      <component glyphName="dieresis" x="10" y="338" flags="0x4"/>
    </TTGlyph>
    <TTGlyph name="afii10024" xMin="0" yMin="0" xMax="1827" yMax="1462">
      <contour>
        <pt x="559" y="756" on="1"/>
        <pt x="25" y="1462" on="1"/>
        <pt x="281" y="1462" on="1"/>
        <pt x="801" y="754" on="1"/>
        <pt x="801" y="1462" on="1"/>
        <pt x="1028" y="1462" on="1"/>
        <pt x="1028" y="754" on="1"/>
        <pt x="1548" y="1462" on="1"/>
        <pt x="1804" y="1462" on="1"/>
        <pt x="1270" y="756" on="1"/>
        <pt x="1827" y="0" on="1"/>
        <pt x="1563" y="0" on="1"/>
        <pt x="1028" y="741" on="1"/>
        <pt x="1028" y="0" on="1"/>
        <pt x="801" y="0" on="1"/>
        <pt x="801" y="741" on="1"/>
        <pt x="266" y="0" on="1"/>
        <pt x="0" y="0" on="1"/>
      </contour>
    </TTGlyph>
    <TTGlyph name="afii10025" xMin="88" yMin="-20" xMax="1157" yMax="1483">
      <contour>
        <pt x="1120" y="1120" on="1"/>
        <pt x="1120" y="977" on="0"/>
        <pt x="931" y="795" on="0"/>
        <pt x="764" y="770" on="1"/>
        <pt x="764" y="764" on="1"/>
        <pt x="956" y="741" on="0"/>
        <pt x="1157" y="560" on="0"/>
        <pt x="1157" y="414" on="1"/>
        <pt x="1157" y="210" on="0"/>
        <pt x="838" y="-20" on="0"/>
        <pt x="557" y="-20" on="1"/>
        <pt x="265" y="-20" on="0"/>
        <pt x="90" y="59" on="1"/>
        <pt x="90" y="268" on="1"/>
        <pt x="187" y="222" on="0"/>
        <pt x="428" y="172" on="0"/>
        <pt x="528" y="172" on="1"/>
        <pt x="913" y="172" on="0"/>
        <pt x="913" y="424" on="1"/>
        <pt x="913" y="540" on="0"/>
        <pt x="682" y="662" on="0"/>
        <pt x="455" y="662" on="1"/>
        <pt x="279" y="662" on="1"/>
        <pt x="279" y="854" on="1"/>
        <pt x="444" y="854" on="1"/>
        <pt x="881" y="854" on="0"/>
        <pt x="881" y="1087" on="1"/>
        <pt x="881" y="1180" on="0"/>
        <pt x="732" y="1288" on="0"/>
        <pt x="598" y="1288" on="1"/>
        <pt x="492" y="1288" on="0"/>
        <pt x="300" y="1232" on="0"/>
        <pt x="197" y="1165" on="1"/>
        <pt x="88" y="1327" on="1"/>
        <pt x="313" y="1483" on="0"/>
        <pt x="618" y="1483" on="1"/>
        <pt x="850" y="1483" on="0"/>
        <pt x="1120" y="1285" on="0"/>
      </contour>
    </TTGlyph>
    <TTGlyph name="afii10026" xMin="193" yMin="0" xMax="1432" yMax="1462">
      <contour>
        <pt x="193" y="1462" on="1"/>
        <pt x="412" y="1462" on="1"/>
        <pt x="412" y="702" on="1"/>
        <pt x="412" y="583" on="0"/>
        <pt x="400" y="340" on="0"/>
        <pt x="397" y="297" on="1"/>
        <pt x="406" y="297" on="1"/>
        <pt x="1153" y="1462" on="1"/>
        <pt x="1432" y="1462" on="1"/>
        <pt x="1432" y="0" on="1"/>
        <pt x="1212" y="0" on="1"/>
        <pt x="1212" y="754" on="1"/>
        <pt x="1212" y="927" on="0"/>
        <pt x="1231" y="1174" on="1"/>
        <pt x="1223" y="1174" on="1"/>
        <pt x="473" y="0" on="1"/>
        <pt x="193" y="0" on="1"/>
      </contour>
    </TTGlyph>
    <TTGlyph name="afii10027" xMin="193" yMin="0" xMax="1432" yMax="1911">
      <component glyphName="afii10026" x="0" y="0" flags="0x204"/>
      <component glyphName="cyrillicbreve" x="238" y="338" flags="0x4"/>
    </TTGlyph>
    <TTGlyph name="afii10028" xMin="193" yMin="0" xMax="1315" yMax="1462">
      <contour>
        <pt x="1315" y="0" on="1"/>
        <pt x="1034" y="0" on="1"/>
        <pt x="432" y="741" on="1"/>
        <pt x="432" y="0" on="1"/>
        <pt x="193" y="0" on="1"/>
        <pt x="193" y="1462" on="1"/>
        <pt x="432" y="1462" on="1"/>
        <pt x="432" y="754" on="1"/>
        <pt x="1024" y="1462" on="1"/>
        <pt x="1286" y="1462" on="1"/>
        <pt x="696" y="756" on="1"/>
      </contour>
    </TTGlyph>
    <TTGlyph name="afii10029" xMin="8" yMin="-26" xMax="1290" yMax="1462">
      <contour>
        <pt x="1290" y="0" on="1"/>
        <pt x="1051" y="0" on="1"/>
        <pt x="1051" y="1257" on="1"/>
        <pt x="635" y="1257" on="1"/>
        <pt x="556" y="617" on="0"/>
        <pt x="461" y="155" on="0"/>
        <pt x="289" y="-26" on="0"/>
        <pt x="147" y="-23" on="1"/>
        <pt x="74" y="-23" on="0"/>
        <pt x="8" y="2" on="1"/>
        <pt x="8" y="201" on="1"/>
        <pt x="65" y="176" on="0"/>
        <pt x="119" y="176" on="1"/>
        <pt x="191" y="176" on="0"/>
        <pt x="272" y="349" on="0"/>
        <pt x="369" y="941" on="0"/>
        <pt x="436" y="1462" on="1"/>
        <pt x="1290" y="1462" on="1"/>
      </contour>
    </TTGlyph>
    <TTGlyph name="afii10030" xMin="193" yMin="0" xMax="1698" yMax="1462">
      <component glyphName="M" x="0" y="0" flags="0x204"/>
    </TTGlyph>
    <TTGlyph name="afii10031" xMin="193" yMin="0" xMax="1346" yMax="1462">
      <component glyphName="H" x="0" y="0" flags="0x204"/>
    </TTGlyph>
    <TTGlyph name="afii10032" xMin="121" yMin="-20" xMax="1491" yMax="1485">
      <component glyphName="O" x="0" y="0" flags="0x204"/>
    </TTGlyph>
    <TTGlyph name="afii10033" xMin="193" yMin="0" xMax="1317" yMax="1462">
      <component glyphName="Pi" x="0" y="0" flags="0x204"/>
    </TTGlyph>
    <TTGlyph name="afii10034" xMin="193" yMin="0" xMax="1161" yMax="1462">
      <component glyphName="P" x="0" y="0" flags="0x204"/>
    </TTGlyph>
    <TTGlyph name="afii10035" xMin="121" yMin="-20" xMax="1231" yMax="1483">
      <component glyphName="C" x="0" y="0" flags="0x204"/>
    </TTGlyph>
    <TTGlyph name="afii10036" xMin="29" yMin="0" xMax="1128" yMax="1462">
      <component glyphName="T" x="0" y="0" flags="0x204"/>
    </TTGlyph>
    <TTGlyph name="afii10037" xMin="12" yMin="-20" xMax="1305" yMax="1462">
      <contour>
        <pt x="1305" y="1462" on="1"/>
        <pt x="844" y="422" on="1"/>
        <pt x="759" y="231" on="0"/>
        <pt x="617" y="60" on="0"/>
        <pt x="430" y="-20" on="0"/>
        <pt x="297" y="-20" on="1"/>
        <pt x="181" y="-20" on="0"/>
        <pt x="82" y="10" on="1"/>
        <pt x="82" y="225" on="1"/>
        <pt x="180" y="186" on="0"/>
        <pt x="287" y="186" on="1"/>
        <pt x="378" y="186" on="0"/>
        <pt x="501" y="275" on="0"/>
        <pt x="551" y="391" on="1"/>
        <pt x="12" y="1462" on="1"/>
        <pt x="270" y="1462" on="1"/>
        <pt x="627" y="729" on="1"/>
        <pt x="675" y="625" on="0"/>
        <pt x="686" y="590" on="1"/>
        <pt x="696" y="590" on="1"/>
        <pt x="702" y="616" on="0"/>
        <pt x="726" y="673" on="1"/>
        <pt x="1055" y="1462" on="1"/>
      </contour>
    </TTGlyph>
    <TTGlyph name="afii10038" xMin="98" yMin="-20" xMax="1597" yMax="1483">
      <component glyphName="Phi" x="0" y="0" flags="0x204"/>
    </TTGlyph>
    <TTGlyph name="afii10039" xMin="4" yMin="0" xMax="1270" yMax="1462">
      <component glyphName="X" x="0" y="0" flags="0x204"/>
    </TTGlyph>
    <TTGlyph name="afii10040" xMin="193" yMin="-403" xMax="1511" yMax="1462">
      <contour>
        <pt x="1317" y="199" on="1"/>
        <pt x="1511" y="199" on="1"/>
        <pt x="1511" y="-403" on="1"/>
        <pt x="1280" y="-403" on="1"/>
        <pt x="1280" y="0" on="1"/>
        <pt x="193" y="0" on="1"/>
        <pt x="193" y="1462" on="1"/>
        <pt x="432" y="1462" on="1"/>
        <pt x="432" y="205" on="1"/>
        <pt x="1077" y="205" on="1"/>
        <pt x="1077" y="1462" on="1"/>
        <pt x="1317" y="1462" on="1"/>
      </contour>
    </TTGlyph>
    <TTGlyph name="afii10041" xMin="139" yMin="0" xMax="1264" yMax="1462">
      <contour>
        <pt x="1264" y="0" on="1"/>
        <pt x="1024" y="0" on="1"/>
        <pt x="1024" y="584" on="1"/>
        <pt x="889" y="536" on="0"/>
        <pt x="678" y="494" on="0"/>
        <pt x="571" y="494" on="1"/>
        <pt x="364" y="494" on="0"/>
        <pt x="139" y="689" on="0"/>
        <pt x="139" y="868" on="1"/>
        <pt x="139" y="1462" on="1"/>
        <pt x="379" y="1462" on="1"/>
        <pt x="379" y="924" on="1"/>
        <pt x="379" y="810" on="0"/>
        <pt x="492" y="698" on="0"/>
        <pt x="621" y="698" on="1"/>
        <pt x="716" y="698" on="0"/>
        <pt x="896" y="733" on="0"/>
        <pt x="1024" y="776" on="1"/>
        <pt x="1024" y="1462" on="1"/>
        <pt x="1264" y="1462" on="1"/>
      </contour>
    </TTGlyph>
    <TTGlyph name="afii10042" xMin="193" yMin="0" xMax="1968" yMax="1462">
      <contour>
        <pt x="1200" y="205" on="1"/>
        <pt x="1726" y="205" on="1"/>
        <pt x="1726" y="1462" on="1"/>
        <pt x="1968" y="1462" on="1"/>
        <pt x="1968" y="0" on="1"/>
        <pt x="193" y="0" on="1"/>
        <pt x="193" y="1462" on="1"/>
        <pt x="432" y="1462" on="1"/>
        <pt x="432" y="205" on="1"/>
        <pt x="958" y="205" on="1"/>
        <pt x="958" y="1462" on="1"/>
        <pt x="1200" y="1462" on="1"/>
      </contour>
    </TTGlyph>
    <TTGlyph name="afii10043" xMin="193" yMin="-403" xMax="2146" yMax="1462">
      <contour>
        <pt x="1192" y="205" on="1"/>
        <pt x="1712" y="205" on="1"/>
        <pt x="1712" y="1462" on="1"/>
        <pt x="1952" y="1462" on="1"/>
        <pt x="1952" y="199" on="1"/>
        <pt x="2146" y="199" on="1"/>
        <pt x="2146" y="-403" on="1"/>
        <pt x="1915" y="-403" on="1"/>
        <pt x="1915" y="0" on="1"/>
        <pt x="193" y="0" on="1"/>
        <pt x="193" y="1462" on="1"/>
        <pt x="432" y="1462" on="1"/>
        <pt x="432" y="205" on="1"/>
        <pt x="950" y="205" on="1"/>
        <pt x="950" y="1462" on="1"/>
        <pt x="1192" y="1462" on="1"/>
      </contour>
    </TTGlyph>
    <TTGlyph name="afii10044" xMin="8" yMin="0" xMax="1350" yMax="1462">
      <contour>
        <pt x="1350" y="440" on="1"/>
        <pt x="1350" y="223" on="0"/>
        <pt x="1067" y="0" on="0"/>
        <pt x="793" y="0" on="1"/>
        <pt x="360" y="0" on="1"/>
        <pt x="360" y="1257" on="1"/>
        <pt x="8" y="1257" on="1"/>
        <pt x="8" y="1462" on="1"/>
        <pt x="600" y="1462" on="1"/>
        <pt x="600" y="868" on="1"/>
        <pt x="782" y="868" on="1"/>
        <pt x="1058" y="868" on="0"/>
        <pt x="1350" y="649" on="0"/>
      </contour>
      <contour>
        <pt x="600" y="201" on="1"/>
        <pt x="778" y="201" on="1"/>
        <pt x="939" y="201" on="0"/>
        <pt x="1104" y="314" on="0"/>
        <pt x="1104" y="440" on="1"/>
        <pt x="1104" y="558" on="0"/>
        <pt x="943" y="668" on="0"/>
        <pt x="752" y="668" on="1"/>
        <pt x="600" y="668" on="1"/>
      </contour>
    </TTGlyph>
    <TTGlyph name="afii10045" xMin="193" yMin="0" xMax="1608" yMax="1462">
      <contour>
        <pt x="1163" y="440" on="1"/>
        <pt x="1163" y="223" on="0"/>
        <pt x="882" y="0" on="0"/>
        <pt x="610" y="0" on="1"/>
        <pt x="193" y="0" on="1"/>
        <pt x="193" y="1462" on="1"/>
        <pt x="432" y="1462" on="1"/>
        <pt x="432" y="868" on="1"/>
        <pt x="602" y="868" on="1"/>
        <pt x="876" y="868" on="0"/>
        <pt x="1163" y="648" on="0"/>
      </contour>
      <contour>
        <pt x="432" y="199" on="1"/>
        <pt x="596" y="199" on="1"/>
        <pt x="756" y="199" on="0"/>
        <pt x="920" y="314" on="0"/>
        <pt x="920" y="440" on="1"/>
        <pt x="920" y="559" on="0"/>
        <pt x="763" y="666" on="0"/>
        <pt x="575" y="666" on="1"/>
        <pt x="432" y="666" on="1"/>
      </contour>
      <contour>
        <pt x="1608" y="0" on="1"/>
        <pt x="1368" y="0" on="1"/>
        <pt x="1368" y="1462" on="1"/>
        <pt x="1608" y="1462" on="1"/>
      </contour>
    </TTGlyph>
    <TTGlyph name="afii10046" xMin="193" yMin="0" xMax="1212" yMax="1462">
      <contour>
        <pt x="1212" y="440" on="1"/>
        <pt x="1212" y="225" on="0"/>
        <pt x="923" y="0" on="0"/>
        <pt x="649" y="0" on="1"/>
        <pt x="193" y="0" on="1"/>
        <pt x="193" y="1462" on="1"/>
        <pt x="432" y="1462" on="1"/>
        <pt x="432" y="868" on="1"/>
        <pt x="639" y="868" on="1"/>
        <pt x="917" y="868" on="0"/>
        <pt x="1212" y="647" on="0"/>
      </contour>
      <contour>
        <pt x="432" y="201" on="1"/>
        <pt x="633" y="201" on="1"/>
        <pt x="794" y="201" on="0"/>
        <pt x="967" y="314" on="0"/>
        <pt x="967" y="440" on="1"/>
        <pt x="967" y="558" on="0"/>
        <pt x="801" y="668" on="0"/>
        <pt x="606" y="668" on="1"/>
        <pt x="432" y="668" on="1"/>
      </contour>
    </TTGlyph>
    <TTGlyph name="afii10047" xMin="66" yMin="-20" xMax="1200" yMax="1483">
      <contour>
        <pt x="510" y="1278" on="1"/>
        <pt x="344" y="1278" on="0"/>
        <pt x="152" y="1192" on="1"/>
        <pt x="66" y="1389" on="1"/>
        <pt x="267" y="1483" on="0"/>
        <pt x="514" y="1483" on="1"/>
        <pt x="840" y="1483" on="0"/>
        <pt x="1200" y="1090" on="0"/>
        <pt x="1200" y="743" on="1"/>
        <pt x="1200" y="375" on="0"/>
        <pt x="835" y="-20" on="0"/>
        <pt x="492" y="-20" on="1"/>
        <pt x="264" y="-20" on="0"/>
        <pt x="84" y="45" on="1"/>
        <pt x="84" y="250" on="1"/>
        <pt x="184" y="221" on="0"/>
        <pt x="370" y="184" on="0"/>
        <pt x="469" y="184" on="1"/>
        <pt x="699" y="184" on="0"/>
        <pt x="938" y="421" on="0"/>
        <pt x="946" y="651" on="1"/>
        <pt x="270" y="651" on="1"/>
        <pt x="270" y="854" on="1"/>
        <pt x="944" y="854" on="1"/>
        <pt x="930" y="1054" on="0"/>
        <pt x="698" y="1278" on="0"/>
      </contour>
    </TTGlyph>
    <TTGlyph name="afii10048" xMin="193" yMin="-20" xMax="2048" yMax="1485">
      <contour>
        <pt x="2048" y="733" on="1"/>
        <pt x="2048" y="375" on="0"/>
        <pt x="1709" y="-20" on="0"/>
        <pt x="1399" y="-20" on="1"/>
        <pt x="1102" y="-20" on="0"/>
        <pt x="767" y="335" on="0"/>
        <pt x="750" y="659" on="1"/>
        <pt x="432" y="659" on="1"/>
        <pt x="432" y="0" on="1"/>
        <pt x="193" y="0" on="1"/>
        <pt x="193" y="1462" on="1"/>
        <pt x="432" y="1462" on="1"/>
        <pt x="432" y="864" on="1"/>
        <pt x="754" y="864" on="1"/>
        <pt x="782" y="1165" on="0"/>
        <pt x="1114" y="1485" on="0"/>
        <pt x="1399" y="1485" on="1"/>
        <pt x="1708" y="1485" on="0"/>
        <pt x="2048" y="1089" on="0"/>
      </contour>
      <contour>
        <pt x="997" y="733" on="1"/>
        <pt x="997" y="462" on="0"/>
        <pt x="1199" y="184" on="0"/>
        <pt x="1397" y="184" on="1"/>
        <pt x="1598" y="184" on="0"/>
        <pt x="1798" y="464" on="0"/>
        <pt x="1798" y="733" on="1"/>
        <pt x="1798" y="1004" on="0"/>
        <pt x="1596" y="1280" on="0"/>
        <pt x="1401" y="1280" on="1"/>
        <pt x="1201" y="1280" on="0"/>
        <pt x="997" y="1002" on="0"/>
      </contour>
    </TTGlyph>
    <TTGlyph name="afii10049" xMin="20" yMin="0" xMax="1139" yMax="1462">
      <contour>
        <pt x="655" y="586" on="1"/>
        <pt x="293" y="0" on="1"/>
        <pt x="20" y="0" on="1"/>
        <pt x="432" y="641" on="1"/>
        <pt x="152" y="738" on="0"/>
        <pt x="152" y="1049" on="1"/>
        <pt x="152" y="1250" on="0"/>
        <pt x="430" y="1462" on="0"/>
        <pt x="700" y="1462" on="1"/>
        <pt x="1139" y="1462" on="1"/>
        <pt x="1139" y="0" on="1"/>
        <pt x="899" y="0" on="1"/>
        <pt x="899" y="586" on="1"/>
      </contour>
      <contour>
        <pt x="899" y="1262" on="1"/>
        <pt x="709" y="1262" on="1"/>
        <pt x="558" y="1262" on="0"/>
        <pt x="397" y="1155" on="0"/>
        <pt x="397" y="1034" on="1"/>
        <pt x="397" y="916" on="0"/>
        <pt x="553" y="784" on="0"/>
        <pt x="717" y="784" on="1"/>
        <pt x="899" y="784" on="1"/>
      </contour>
    </TTGlyph>
    <TTGlyph name="afii10050" xMin="193" yMin="0" xMax="1090" yMax="1767">
      <contour>
        <pt x="432" y="0" on="1"/>
        <pt x="193" y="0" on="1"/>
        <pt x="193" y="1462" on="1"/>
        <pt x="874" y="1462" on="1"/>
        <pt x="874" y="1767" on="1"/>
        <pt x="1090" y="1767" on="1"/>
        <pt x="1090" y="1257" on="1"/>
        <pt x="432" y="1257" on="1"/>
      </contour>
    </TTGlyph>
    <TTGlyph name="afii10051" xMin="29" yMin="-20" xMax="1442" yMax="1462">
      <contour>
        <pt x="1053" y="-20" on="1"/>
        <pt x="950" y="-20" on="0"/>
        <pt x="877" y="10" on="1"/>
        <pt x="877" y="213" on="1"/>
        <pt x="961" y="182" on="0"/>
        <pt x="1036" y="182" on="1"/>
        <pt x="1123" y="182" on="0"/>
        <pt x="1202" y="280" on="0"/>
        <pt x="1202" y="377" on="1"/>
        <pt x="1202" y="506" on="1"/>
        <pt x="1202" y="614" on="0"/>
        <pt x="1098" y="707" on="0"/>
        <pt x="979" y="707" on="1"/>
        <pt x="621" y="707" on="1"/>
        <pt x="621" y="0" on="1"/>
        <pt x="381" y="0" on="1"/>
        <pt x="381" y="1257" on="1"/>
        <pt x="29" y="1257" on="1"/>
        <pt x="29" y="1462" on="1"/>
        <pt x="1061" y="1462" on="1"/>
        <pt x="1061" y="1257" on="1"/>
        <pt x="621" y="1257" on="1"/>
        <pt x="621" y="911" on="1"/>
        <pt x="991" y="911" on="1"/>
        <pt x="1209" y="911" on="0"/>
        <pt x="1442" y="711" on="0"/>
        <pt x="1442" y="530" on="1"/>
        <pt x="1442" y="393" on="1"/>
        <pt x="1442" y="195" on="0"/>
        <pt x="1242" y="-20" on="0"/>
      </contour>
    </TTGlyph>
    <TTGlyph name="afii10052" xMin="193" yMin="0" xMax="1061" yMax="1907">
      <component glyphName="Gamma" x="0" y="0" flags="0x204"/>
      <component glyphName="acute" x="111" y="338" flags="0x4"/>
    </TTGlyph>
    <TTGlyph name="afii10053" xMin="121" yMin="-20" xMax="1282" yMax="1483">
      <contour>
        <pt x="838" y="1278" on="1"/>
        <pt x="638" y="1278" on="0"/>
        <pt x="397" y="1056" on="0"/>
        <pt x="377" y="852" on="1"/>
        <pt x="1055" y="852" on="1"/>
        <pt x="1055" y="649" on="1"/>
        <pt x="375" y="649" on="1"/>
        <pt x="385" y="426" on="0"/>
        <pt x="617" y="184" on="0"/>
        <pt x="838" y="184" on="1"/>
        <pt x="999" y="184" on="0"/>
        <pt x="1227" y="250" on="1"/>
        <pt x="1227" y="45" on="1"/>
        <pt x="1047" y="-20" on="0"/>
        <pt x="817" y="-20" on="1"/>
        <pt x="481" y="-20" on="0"/>
        <pt x="121" y="364" on="0"/>
        <pt x="121" y="731" on="1"/>
        <pt x="121" y="959" on="0"/>
        <pt x="294" y="1300" on="0"/>
        <pt x="621" y="1483" on="0"/>
        <pt x="846" y="1483" on="1"/>
        <pt x="1077" y="1483" on="0"/>
        <pt x="1282" y="1389" on="1"/>
        <pt x="1192" y="1188" on="1"/>
        <pt x="1067" y="1243" on="0"/>
        <pt x="917" y="1278" on="0"/>
      </contour>
    </TTGlyph>
    <TTGlyph name="afii10054" xMin="100" yMin="-20" xMax="1036" yMax="1483">
      <component glyphName="S" x="0" y="0" flags="0x204"/>
    </TTGlyph>
    <TTGlyph name="afii10055" xMin="193" yMin="0" xMax="432" yMax="1462">
      <component glyphName="I" x="0" y="0" flags="0x204"/>
    </TTGlyph>
    <TTGlyph name="afii10055.alt" xMin="74" yMin="0" xMax="664" yMax="1462">
      <component glyphName="I.alt" x="0" y="0" flags="0x204"/>
    </TTGlyph>
    <TTGlyph name="afii10056" xMin="1" yMin="0" xMax="626" yMax="1854">
      <component glyphName="I" x="0" y="0" flags="0x204"/>
      <component glyphName="dieresis" x="-292" y="338" flags="0x4"/>
    </TTGlyph>
    <TTGlyph name="afii10056.alt" xMin="58" yMin="0" xMax="683" yMax="1854">
      <component glyphName="I.alt" x="0" y="0" flags="0x204"/>
      <component glyphName="dieresis" x="-235" y="338" flags="0x4"/>
    </TTGlyph>
    <TTGlyph name="afii10057" xMin="-156" yMin="-408" xMax="426" yMax="1462">
      <component glyphName="J" x="0" y="0" flags="0x204"/>
    </TTGlyph>
    <TTGlyph name="afii10058" xMin="8" yMin="-23" xMax="1890" yMax="1462">
      <contour>
        <pt x="1890" y="440" on="1"/>
        <pt x="1890" y="223" on="0"/>
        <pt x="1605" y="0" on="0"/>
        <pt x="1331" y="0" on="1"/>
        <pt x="965" y="0" on="1"/>
        <pt x="965" y="1257" on="1"/>
        <pt x="637" y="1257" on="1"/>
        <pt x="608" y="1034" on="1"/>
        <pt x="558" y="658" on="0"/>
        <pt x="489" y="271" on="0"/>
        <pt x="399" y="72" on="0"/>
        <pt x="256" y="-23" on="0"/>
        <pt x="147" y="-23" on="1"/>
        <pt x="74" y="-23" on="0"/>
        <pt x="8" y="2" on="1"/>
        <pt x="8" y="201" on="1"/>
        <pt x="65" y="176" on="0"/>
        <pt x="119" y="176" on="1"/>
        <pt x="191" y="176" on="0"/>
        <pt x="274" y="355" on="0"/>
        <pt x="376" y="986" on="0"/>
        <pt x="436" y="1462" on="1"/>
        <pt x="1204" y="1462" on="1"/>
        <pt x="1204" y="868" on="1"/>
        <pt x="1323" y="868" on="1"/>
        <pt x="1599" y="868" on="0"/>
        <pt x="1890" y="649" on="0"/>
      </contour>
      <contour>
        <pt x="1204" y="201" on="1"/>
        <pt x="1317" y="201" on="1"/>
        <pt x="1480" y="201" on="0"/>
        <pt x="1645" y="314" on="0"/>
        <pt x="1645" y="440" on="1"/>
        <pt x="1645" y="560" on="0"/>
        <pt x="1483" y="668" on="0"/>
        <pt x="1290" y="668" on="1"/>
        <pt x="1204" y="668" on="1"/>
      </contour>
    </TTGlyph>
    <TTGlyph name="afii10059" xMin="193" yMin="0" xMax="1917" yMax="1462">
      <contour>
        <pt x="1917" y="440" on="1"/>
        <pt x="1917" y="223" on="0"/>
        <pt x="1634" y="0" on="0"/>
        <pt x="1360" y="0" on="1"/>
        <pt x="991" y="0" on="1"/>
        <pt x="991" y="659" on="1"/>
        <pt x="432" y="659" on="1"/>
        <pt x="432" y="0" on="1"/>
        <pt x="193" y="0" on="1"/>
        <pt x="193" y="1462" on="1"/>
        <pt x="432" y="1462" on="1"/>
        <pt x="432" y="864" on="1"/>
        <pt x="991" y="864" on="1"/>
        <pt x="991" y="1462" on="1"/>
        <pt x="1233" y="1462" on="1"/>
        <pt x="1233" y="868" on="1"/>
        <pt x="1350" y="868" on="1"/>
        <pt x="1628" y="868" on="0"/>
        <pt x="1917" y="647" on="0"/>
      </contour>
      <contour>
        <pt x="1233" y="201" on="1"/>
        <pt x="1346" y="201" on="1"/>
        <pt x="1507" y="201" on="0"/>
        <pt x="1673" y="314" on="0"/>
        <pt x="1673" y="440" on="1"/>
        <pt x="1673" y="558" on="0"/>
        <pt x="1512" y="668" on="0"/>
        <pt x="1319" y="668" on="1"/>
        <pt x="1233" y="668" on="1"/>
      </contour>
    </TTGlyph>
    <TTGlyph name="afii10060" xMin="29" yMin="0" xMax="1442" yMax="1462">
      <contour>
        <pt x="1202" y="0" on="1"/>
        <pt x="1202" y="508" on="1"/>
        <pt x="1202" y="612" on="0"/>
        <pt x="1107" y="707" on="0"/>
        <pt x="995" y="707" on="1"/>
        <pt x="621" y="707" on="1"/>
        <pt x="621" y="0" on="1"/>
        <pt x="381" y="0" on="1"/>
        <pt x="381" y="1257" on="1"/>
        <pt x="29" y="1257" on="1"/>
        <pt x="29" y="1462" on="1"/>
        <pt x="1094" y="1462" on="1"/>
        <pt x="1094" y="1257" on="1"/>
        <pt x="621" y="1257" on="1"/>
        <pt x="621" y="911" on="1"/>
        <pt x="1012" y="911" on="1"/>
        <pt x="1219" y="911" on="0"/>
        <pt x="1442" y="712" on="0"/>
        <pt x="1442" y="530" on="1"/>
        <pt x="1442" y="0" on="1"/>
      </contour>
    </TTGlyph>
    <TTGlyph name="afii10061" xMin="193" yMin="0" xMax="1315" yMax="1907">
      <component glyphName="afii10028" x="0" y="0" flags="0x204"/>
      <component glyphName="acute" x="205" y="338" flags="0x4"/>
    </TTGlyph>
    <TTGlyph name="afii10062" xMin="12" yMin="-20" xMax="1305" yMax="1911">
      <component glyphName="afii10037" x="0" y="0" flags="0x204"/>
      <component glyphName="cyrillicbreve" x="80" y="338" flags="0x4"/>
    </TTGlyph>
    <TTGlyph name="afii10065" xMin="90" yMin="-20" xMax="1028" yMax="1126">
      <component glyphName="a" x="0" y="0" flags="0x204"/>
    </TTGlyph>
    <TTGlyph name="afii10066" xMin="104" yMin="-20" xMax="1145" yMax="1571">
      <contour>
        <pt x="104" y="664" on="1"/>
        <pt x="104" y="1034" on="0"/>
        <pt x="355" y="1432" on="0"/>
        <pt x="629" y="1489" on="1"/>
        <pt x="836" y="1531" on="0"/>
        <pt x="1106" y="1571" on="1"/>
        <pt x="1139" y="1364" on="1"/>
        <pt x="811" y="1314" on="0"/>
        <pt x="659" y="1286" on="1"/>
        <pt x="502" y="1257" on="0"/>
        <pt x="363" y="1057" on="0"/>
        <pt x="352" y="856" on="1"/>
        <pt x="367" y="856" on="1"/>
        <pt x="424" y="939" on="0"/>
        <pt x="608" y="1030" on="0"/>
        <pt x="713" y="1030" on="1"/>
        <pt x="917" y="1030" on="0"/>
        <pt x="1145" y="772" on="0"/>
        <pt x="1145" y="539" on="1"/>
        <pt x="1145" y="272" on="0"/>
        <pt x="868" y="-20" on="0"/>
        <pt x="623" y="-20" on="1"/>
        <pt x="380" y="-20" on="0"/>
        <pt x="104" y="340" on="0"/>
      </contour>
      <contour>
        <pt x="639" y="172" on="1"/>
        <pt x="901" y="172" on="0"/>
        <pt x="901" y="516" on="1"/>
        <pt x="901" y="848" on="0"/>
        <pt x="664" y="848" on="1"/>
        <pt x="599" y="848" on="0"/>
        <pt x="477" y="792" on="0"/>
        <pt x="374" y="700" on="0"/>
        <pt x="346" y="651" on="1"/>
        <pt x="346" y="415" on="0"/>
        <pt x="496" y="172" on="0"/>
      </contour>
    </TTGlyph>
    <TTGlyph name="afii10067" xMin="168" yMin="0" xMax="1163" yMax="1106">
      <contour>
        <pt x="1128" y="823" on="1"/>
        <pt x="1128" y="627" on="0"/>
        <pt x="899" y="586" on="1"/>
        <pt x="899" y="578" on="1"/>
        <pt x="1027" y="563" on="0"/>
        <pt x="1163" y="431" on="0"/>
        <pt x="1163" y="326" on="1"/>
        <pt x="1163" y="169" on="0"/>
        <pt x="924" y="0" on="0"/>
        <pt x="696" y="0" on="1"/>
        <pt x="168" y="0" on="1"/>
        <pt x="168" y="1106" on="1"/>
        <pt x="694" y="1106" on="1"/>
        <pt x="1128" y="1106" on="0"/>
      </contour>
      <contour>
        <pt x="922" y="340" on="1"/>
        <pt x="922" y="420" on="0"/>
        <pt x="798" y="487" on="0"/>
        <pt x="674" y="487" on="1"/>
        <pt x="403" y="487" on="1"/>
        <pt x="403" y="174" on="1"/>
        <pt x="680" y="174" on="1"/>
        <pt x="922" y="174" on="0"/>
      </contour>
      <contour>
        <pt x="893" y="803" on="1"/>
        <pt x="893" y="869" on="0"/>
        <pt x="790" y="928" on="0"/>
        <pt x="688" y="928" on="1"/>
        <pt x="403" y="928" on="1"/>
        <pt x="403" y="662" on="1"/>
        <pt x="653" y="662" on="1"/>
        <pt x="771" y="662" on="0"/>
        <pt x="893" y="723" on="0"/>
      </contour>
    </TTGlyph>
    <TTGlyph name="afii10068" xMin="168" yMin="0" xMax="883" yMax="1106">
      <contour>
        <pt x="883" y="1106" on="1"/>
        <pt x="883" y="922" on="1"/>
        <pt x="403" y="922" on="1"/>
        <pt x="403" y="0" on="1"/>
        <pt x="168" y="0" on="1"/>
        <pt x="168" y="1106" on="1"/>
      </contour>
    </TTGlyph>
    <TTGlyph name="afii10069" xMin="35" yMin="-391" xMax="1229" yMax="1106">
      <contour>
        <pt x="1229" y="-391" on="1"/>
        <pt x="1010" y="-391" on="1"/>
        <pt x="1010" y="0" on="1"/>
        <pt x="252" y="0" on="1"/>
        <pt x="252" y="-391" on="1"/>
        <pt x="35" y="-391" on="1"/>
        <pt x="35" y="182" on="1"/>
        <pt x="125" y="182" on="1"/>
        <pt x="243" y="351" on="0"/>
        <pt x="382" y="830" on="0"/>
        <pt x="395" y="1106" on="1"/>
        <pt x="1067" y="1106" on="1"/>
        <pt x="1067" y="182" on="1"/>
        <pt x="1229" y="182" on="1"/>
      </contour>
      <contour>
        <pt x="836" y="182" on="1"/>
        <pt x="836" y="926" on="1"/>
        <pt x="598" y="926" on="1"/>
        <pt x="579" y="720" on="0"/>
        <pt x="458" y="320" on="0"/>
        <pt x="371" y="182" on="1"/>
      </contour>
    </TTGlyph>
    <TTGlyph name="afii10070" xMin="102" yMin="-20" xMax="1081" yMax="1126">
      <component glyphName="e" x="0" y="0" flags="0x204"/>
    </TTGlyph>
    <TTGlyph name="afii10071" xMin="102" yMin="-20" xMax="1081" yMax="1516">
      <component glyphName="e" x="0" y="0" flags="0x204"/>
      <component glyphName="dieresis" x="4" y="0" flags="0x4"/>
    </TTGlyph>
    <TTGlyph name="afii10072" xMin="2" yMin="0" xMax="1645" yMax="1106">
      <contour>
        <pt x="713" y="569" on="1"/>
        <pt x="713" y="1106" on="1"/>
        <pt x="932" y="1106" on="1"/>
        <pt x="932" y="569" on="1"/>
        <pt x="1358" y="1106" on="1"/>
        <pt x="1606" y="1106" on="1"/>
        <pt x="1171" y="571" on="1"/>
        <pt x="1645" y="0" on="1"/>
        <pt x="1386" y="0" on="1"/>
        <pt x="932" y="561" on="1"/>
        <pt x="932" y="0" on="1"/>
        <pt x="713" y="0" on="1"/>
        <pt x="713" y="561" on="1"/>
        <pt x="260" y="0" on="1"/>
        <pt x="2" y="0" on="1"/>
        <pt x="475" y="571" on="1"/>
        <pt x="41" y="1106" on="1"/>
        <pt x="289" y="1106" on="1"/>
      </contour>
    </TTGlyph>
    <TTGlyph name="afii10073" xMin="72" yMin="-20" xMax="977" yMax="1126">
      <contour>
        <pt x="412" y="664" on="1"/>
        <pt x="573" y="664" on="0"/>
        <pt x="725" y="735" on="0"/>
        <pt x="725" y="809" on="1"/>
        <pt x="725" y="944" on="0"/>
        <pt x="485" y="944" on="1"/>
        <pt x="325" y="944" on="0"/>
        <pt x="158" y="872" on="1"/>
        <pt x="82" y="1047" on="1"/>
        <pt x="275" y="1126" on="0"/>
        <pt x="508" y="1126" on="1"/>
        <pt x="714" y="1126" on="0"/>
        <pt x="942" y="975" on="0"/>
        <pt x="942" y="834" on="1"/>
        <pt x="942" y="648" on="0"/>
        <pt x="729" y="590" on="1"/>
        <pt x="729" y="582" on="1"/>
        <pt x="862" y="546" on="0"/>
        <pt x="977" y="412" on="0"/>
        <pt x="977" y="313" on="1"/>
        <pt x="977" y="161" on="0"/>
        <pt x="710" y="-20" on="0"/>
        <pt x="471" y="-20" on="1"/>
        <pt x="210" y="-20" on="0"/>
        <pt x="72" y="49" on="1"/>
        <pt x="72" y="252" on="1"/>
        <pt x="255" y="166" on="0"/>
        <pt x="451" y="166" on="1"/>
        <pt x="592" y="166" on="0"/>
        <pt x="745" y="245" on="0"/>
        <pt x="745" y="326" on="1"/>
        <pt x="745" y="409" on="0"/>
        <pt x="591" y="487" on="0"/>
        <pt x="430" y="487" on="1"/>
        <pt x="295" y="487" on="1"/>
        <pt x="295" y="664" on="1"/>
      </contour>
    </TTGlyph>
    <TTGlyph name="afii10074" xMin="168" yMin="0" xMax="1219" yMax="1106">
      <contour>
        <pt x="393" y="1106" on="1"/>
        <pt x="393" y="539" on="1"/>
        <pt x="393" y="440" on="0"/>
        <pt x="377" y="248" on="1"/>
        <pt x="932" y="1106" on="1"/>
        <pt x="1219" y="1106" on="1"/>
        <pt x="1219" y="0" on="1"/>
        <pt x="993" y="0" on="1"/>
        <pt x="993" y="557" on="1"/>
        <pt x="993" y="603" on="0"/>
        <pt x="1004" y="809" on="0"/>
        <pt x="1008" y="856" on="1"/>
        <pt x="455" y="0" on="1"/>
        <pt x="168" y="0" on="1"/>
        <pt x="168" y="1106" on="1"/>
      </contour>
    </TTGlyph>
    <TTGlyph name="afii10075" xMin="168" yMin="0" xMax="1219" yMax="1573">
      <component glyphName="afii10074" x="0" y="0" flags="0x204"/>
      <component glyphName="cyrillicbreve" x="104" y="0" flags="0x4"/>
    </TTGlyph>
    <TTGlyph name="afii10076" xMin="168" yMin="0" xMax="1151" yMax="1106">
      <contour>
        <pt x="854" y="1106" on="1"/>
        <pt x="1112" y="1106" on="1"/>
        <pt x="655" y="573" on="1"/>
        <pt x="1151" y="0" on="1"/>
        <pt x="881" y="0" on="1"/>
        <pt x="403" y="561" on="1"/>
        <pt x="403" y="0" on="1"/>
        <pt x="168" y="0" on="1"/>
        <pt x="168" y="1106" on="1"/>
        <pt x="403" y="1106" on="1"/>
        <pt x="403" y="569" on="1"/>
      </contour>
    </TTGlyph>
    <TTGlyph name="afii10077" xMin="8" yMin="-18" xMax="1077" yMax="1106">
      <contour>
        <pt x="1077" y="0" on="1"/>
        <pt x="840" y="0" on="1"/>
        <pt x="840" y="922" on="1"/>
        <pt x="535" y="922" on="1"/>
        <pt x="507" y="566" on="0"/>
        <pt x="412" y="166" on="0"/>
        <pt x="259" y="-18" on="0"/>
        <pt x="137" y="-18" on="1"/>
        <pt x="60" y="-18" on="0"/>
        <pt x="8" y="4" on="1"/>
        <pt x="8" y="188" on="1"/>
        <pt x="45" y="174" on="0"/>
        <pt x="82" y="174" on="1"/>
        <pt x="184" y="174" on="0"/>
        <pt x="301" y="633" on="0"/>
        <pt x="334" y="1106" on="1"/>
        <pt x="1077" y="1106" on="1"/>
      </contour>
    </TTGlyph>
    <TTGlyph name="afii10078" xMin="168" yMin="0" xMax="1448" yMax="1106">
      <contour>
        <pt x="803" y="225" on="1"/>
        <pt x="816" y="273" on="1"/>
        <pt x="857" y="422" on="0"/>
        <pt x="887" y="502" on="1"/>
        <pt x="1135" y="1106" on="1"/>
        <pt x="1448" y="1106" on="1"/>
        <pt x="1448" y="0" on="1"/>
        <pt x="1231" y="0" on="1"/>
        <pt x="1231" y="893" on="1"/>
        <pt x="1213" y="833" on="1"/>
        <pt x="1168" y="672" on="0"/>
        <pt x="1137" y="596" on="1"/>
        <pt x="895" y="0" on="1"/>
        <pt x="717" y="0" on="1"/>
        <pt x="475" y="600" on="1"/>
        <pt x="425" y="730" on="0"/>
        <pt x="383" y="893" on="1"/>
        <pt x="383" y="0" on="1"/>
        <pt x="168" y="0" on="1"/>
        <pt x="168" y="1106" on="1"/>
        <pt x="479" y="1106" on="1"/>
        <pt x="719" y="520" on="1"/>
        <pt x="751" y="439" on="0"/>
      </contour>
    </TTGlyph>
    <TTGlyph name="afii10079" xMin="168" yMin="0" xMax="1159" yMax="1106">
      <contour>
        <pt x="403" y="1106" on="1"/>
        <pt x="403" y="662" on="1"/>
        <pt x="924" y="662" on="1"/>
        <pt x="924" y="1106" on="1"/>
        <pt x="1159" y="1106" on="1"/>
        <pt x="1159" y="0" on="1"/>
        <pt x="924" y="0" on="1"/>
        <pt x="924" y="477" on="1"/>
        <pt x="403" y="477" on="1"/>
        <pt x="403" y="0" on="1"/>
        <pt x="168" y="0" on="1"/>
        <pt x="168" y="1106" on="1"/>
      </contour>
    </TTGlyph>
    <TTGlyph name="afii10080" xMin="102" yMin="-20" xMax="1149" yMax="1126">
      <component glyphName="o" x="0" y="0" flags="0x204"/>
    </TTGlyph>
    <TTGlyph name="afii10081" xMin="168" yMin="0" xMax="1135" yMax="1106">
      <contour>
        <pt x="1135" y="1106" on="1"/>
        <pt x="1135" y="0" on="1"/>
        <pt x="899" y="0" on="1"/>
        <pt x="899" y="920" on="1"/>
        <pt x="403" y="920" on="1"/>
        <pt x="403" y="0" on="1"/>
        <pt x="168" y="0" on="1"/>
        <pt x="168" y="1106" on="1"/>
      </contour>
    </TTGlyph>
    <TTGlyph name="afii10082" xMin="168" yMin="-492" xMax="1171" yMax="1126">
      <component glyphName="p" x="0" y="0" flags="0x204"/>
    </TTGlyph>
    <TTGlyph name="afii10083" xMin="102" yMin="-20" xMax="948" yMax="1126">
      <component glyphName="c" x="0" y="0" flags="0x204"/>
    </TTGlyph>
    <TTGlyph name="afii10084" xMin="43" yMin="0" xMax="999" yMax="1106">
      <contour>
        <pt x="999" y="1106" on="1"/>
        <pt x="999" y="922" on="1"/>
        <pt x="639" y="922" on="1"/>
        <pt x="639" y="0" on="1"/>
        <pt x="403" y="0" on="1"/>
        <pt x="403" y="922" on="1"/>
        <pt x="43" y="922" on="1"/>
        <pt x="43" y="1106" on="1"/>
      </contour>
    </TTGlyph>
    <TTGlyph name="afii10085" xMin="0" yMin="-492" xMax="1098" yMax="1106">
      <component glyphName="y" x="0" y="0" flags="0x204"/>
    </TTGlyph>
    <TTGlyph name="afii10086" xMin="102" yMin="-492" xMax="1462" yMax="1556">
      <contour>
        <pt x="1462" y="553" on="1"/>
        <pt x="1462" y="304" on="0"/>
        <pt x="1161" y="8" on="0"/>
        <pt x="895" y="-12" on="1"/>
        <pt x="895" y="-492" on="1"/>
        <pt x="672" y="-492" on="1"/>
        <pt x="672" y="-12" on="1"/>
        <pt x="409" y="8" on="0"/>
        <pt x="102" y="309" on="0"/>
        <pt x="102" y="553" on="1"/>
        <pt x="102" y="806" on="0"/>
        <pt x="400" y="1099" on="0"/>
        <pt x="674" y="1118" on="1"/>
        <pt x="674" y="1556" on="1"/>
        <pt x="895" y="1556" on="1"/>
        <pt x="895" y="1118" on="1"/>
        <pt x="1161" y="1094" on="0"/>
        <pt x="1462" y="796" on="0"/>
      </contour>
      <contour>
        <pt x="346" y="553" on="1"/>
        <pt x="346" y="389" on="0"/>
        <pt x="510" y="189" on="0"/>
        <pt x="674" y="172" on="1"/>
        <pt x="674" y="934" on="1"/>
        <pt x="509" y="915" on="0"/>
        <pt x="346" y="717" on="0"/>
      </contour>
      <contour>
        <pt x="1219" y="553" on="1"/>
        <pt x="1219" y="715" on="0"/>
        <pt x="1056" y="911" on="0"/>
        <pt x="895" y="930" on="1"/>
        <pt x="895" y="172" on="1"/>
        <pt x="1058" y="191" on="0"/>
        <pt x="1219" y="390" on="0"/>
      </contour>
    </TTGlyph>
    <TTGlyph name="afii10087" xMin="25" yMin="0" xMax="1102" yMax="1106">
      <component glyphName="x" x="0" y="0" flags="0x204"/>
    </TTGlyph>
    <TTGlyph name="afii10088" xMin="168" yMin="-389" xMax="1313" yMax="1106">
      <contour>
        <pt x="1153" y="182" on="1"/>
        <pt x="1313" y="182" on="1"/>
        <pt x="1313" y="-389" on="1"/>
        <pt x="1092" y="-389" on="1"/>
        <pt x="1092" y="0" on="1"/>
        <pt x="168" y="0" on="1"/>
        <pt x="168" y="1106" on="1"/>
        <pt x="403" y="1106" on="1"/>
        <pt x="403" y="186" on="1"/>
        <pt x="918" y="186" on="1"/>
        <pt x="918" y="1106" on="1"/>
        <pt x="1153" y="1106" on="1"/>
      </contour>
    </TTGlyph>
    <TTGlyph name="afii10089" xMin="139" yMin="0" xMax="1126" yMax="1106">
      <contour>
        <pt x="375" y="1106" on="1"/>
        <pt x="375" y="702" on="1"/>
        <pt x="375" y="532" on="0"/>
        <pt x="551" y="532" on="1"/>
        <pt x="636" y="532" on="0"/>
        <pt x="798" y="579" on="0"/>
        <pt x="891" y="631" on="1"/>
        <pt x="891" y="1106" on="1"/>
        <pt x="1126" y="1106" on="1"/>
        <pt x="1126" y="0" on="1"/>
        <pt x="891" y="0" on="1"/>
        <pt x="891" y="469" on="1"/>
        <pt x="794" y="409" on="0"/>
        <pt x="613" y="352" on="0"/>
        <pt x="506" y="352" on="1"/>
        <pt x="333" y="352" on="0"/>
        <pt x="139" y="531" on="0"/>
        <pt x="139" y="692" on="1"/>
        <pt x="139" y="1106" on="1"/>
      </contour>
    </TTGlyph>
    <TTGlyph name="afii10090" xMin="168" yMin="0" xMax="1735" yMax="1106">
      <contour>
        <pt x="1735" y="0" on="1"/>
        <pt x="168" y="0" on="1"/>
        <pt x="168" y="1106" on="1"/>
        <pt x="403" y="1106" on="1"/>
        <pt x="403" y="186" on="1"/>
        <pt x="834" y="186" on="1"/>
        <pt x="834" y="1106" on="1"/>
        <pt x="1069" y="1106" on="1"/>
        <pt x="1069" y="186" on="1"/>
        <pt x="1499" y="186" on="1"/>
        <pt x="1499" y="1106" on="1"/>
        <pt x="1735" y="1106" on="1"/>
      </contour>
    </TTGlyph>
    <TTGlyph name="afii10091" xMin="168" yMin="-389" xMax="1894" yMax="1106">
      <contour>
        <pt x="1735" y="182" on="1"/>
        <pt x="1894" y="182" on="1"/>
        <pt x="1894" y="-389" on="1"/>
        <pt x="1673" y="-389" on="1"/>
        <pt x="1673" y="0" on="1"/>
        <pt x="168" y="0" on="1"/>
        <pt x="168" y="1106" on="1"/>
        <pt x="403" y="1106" on="1"/>
        <pt x="403" y="186" on="1"/>
        <pt x="834" y="186" on="1"/>
        <pt x="834" y="1106" on="1"/>
        <pt x="1069" y="1106" on="1"/>
        <pt x="1069" y="186" on="1"/>
        <pt x="1499" y="186" on="1"/>
        <pt x="1499" y="1106" on="1"/>
        <pt x="1735" y="1106" on="1"/>
      </contour>
    </TTGlyph>
    <TTGlyph name="afii10092" xMin="20" yMin="0" xMax="1346" yMax="1106">
      <contour>
        <pt x="608" y="1106" on="1"/>
        <pt x="608" y="664" on="1"/>
        <pt x="872" y="664" on="1"/>
        <pt x="1113" y="664" on="0"/>
        <pt x="1346" y="504" on="0"/>
        <pt x="1346" y="344" on="1"/>
        <pt x="1346" y="175" on="0"/>
        <pt x="1110" y="0" on="0"/>
        <pt x="877" y="0" on="1"/>
        <pt x="373" y="0" on="1"/>
        <pt x="373" y="922" on="1"/>
        <pt x="20" y="922" on="1"/>
        <pt x="20" y="1106" on="1"/>
      </contour>
      <contour>
        <pt x="1110" y="338" on="1"/>
        <pt x="1110" y="421" on="0"/>
        <pt x="989" y="487" on="0"/>
        <pt x="866" y="487" on="1"/>
        <pt x="608" y="487" on="1"/>
        <pt x="608" y="174" on="1"/>
        <pt x="872" y="174" on="1"/>
        <pt x="1110" y="174" on="0"/>
      </contour>
    </TTGlyph>
    <TTGlyph name="afii10093" xMin="168" yMin="0" xMax="1491" yMax="1106">
      <contour>
        <pt x="403" y="664" on="1"/>
        <pt x="627" y="664" on="1"/>
        <pt x="859" y="664" on="0"/>
        <pt x="1081" y="504" on="0"/>
        <pt x="1081" y="344" on="1"/>
        <pt x="1081" y="173" on="0"/>
        <pt x="850" y="0" on="0"/>
        <pt x="627" y="0" on="1"/>
        <pt x="168" y="0" on="1"/>
        <pt x="168" y="1106" on="1"/>
        <pt x="403" y="1106" on="1"/>
      </contour>
      <contour>
        <pt x="848" y="338" on="1"/>
        <pt x="848" y="421" on="0"/>
        <pt x="725" y="487" on="0"/>
        <pt x="610" y="487" on="1"/>
        <pt x="403" y="487" on="1"/>
        <pt x="403" y="174" on="1"/>
        <pt x="580" y="174" on="1"/>
        <pt x="722" y="174" on="0"/>
        <pt x="848" y="254" on="0"/>
      </contour>
      <contour>
        <pt x="1491" y="0" on="1"/>
        <pt x="1255" y="0" on="1"/>
        <pt x="1255" y="1106" on="1"/>
        <pt x="1491" y="1106" on="1"/>
      </contour>
    </TTGlyph>
    <TTGlyph name="afii10094" xMin="168" yMin="0" xMax="1143" yMax="1106">
      <contour>
        <pt x="403" y="664" on="1"/>
        <pt x="680" y="664" on="1"/>
        <pt x="1143" y="664" on="0"/>
        <pt x="1143" y="344" on="1"/>
        <pt x="1143" y="175" on="0"/>
        <pt x="907" y="0" on="0"/>
        <pt x="680" y="0" on="1"/>
        <pt x="168" y="0" on="1"/>
        <pt x="168" y="1106" on="1"/>
        <pt x="403" y="1106" on="1"/>
      </contour>
      <contour>
        <pt x="907" y="338" on="1"/>
        <pt x="907" y="421" on="0"/>
        <pt x="781" y="487" on="0"/>
        <pt x="666" y="487" on="1"/>
        <pt x="403" y="487" on="1"/>
        <pt x="403" y="174" on="1"/>
        <pt x="670" y="174" on="1"/>
        <pt x="786" y="174" on="0"/>
        <pt x="907" y="258" on="0"/>
      </contour>
    </TTGlyph>
    <TTGlyph name="afii10095" xMin="66" yMin="-20" xMax="924" yMax="1126">
      <contour>
        <pt x="379" y="-20" on="1"/>
        <pt x="194" y="-20" on="0"/>
        <pt x="66" y="43" on="1"/>
        <pt x="66" y="236" on="1"/>
        <pt x="225" y="166" on="0"/>
        <pt x="375" y="166" on="1"/>
        <pt x="661" y="166" on="0"/>
        <pt x="680" y="479" on="1"/>
        <pt x="193" y="479" on="1"/>
        <pt x="193" y="651" on="1"/>
        <pt x="680" y="651" on="1"/>
        <pt x="668" y="800" on="0"/>
        <pt x="530" y="940" on="0"/>
        <pt x="399" y="940" on="1"/>
        <pt x="301" y="940" on="0"/>
        <pt x="141" y="883" on="1"/>
        <pt x="76" y="1057" on="1"/>
        <pt x="143" y="1088" on="0"/>
        <pt x="318" y="1126" on="0"/>
        <pt x="403" y="1126" on="1"/>
        <pt x="664" y="1126" on="0"/>
        <pt x="924" y="838" on="0"/>
        <pt x="924" y="559" on="1"/>
        <pt x="924" y="280" on="0"/>
        <pt x="645" y="-20" on="0"/>
      </contour>
    </TTGlyph>
    <TTGlyph name="afii10096" xMin="168" yMin="-20" xMax="1645" yMax="1126">
      <contour>
        <pt x="1645" y="555" on="1"/>
        <pt x="1645" y="283" on="0"/>
        <pt x="1380" y="-20" on="0"/>
        <pt x="1143" y="-20" on="1"/>
        <pt x="925" y="-20" on="0"/>
        <pt x="668" y="237" on="0"/>
        <pt x="647" y="477" on="1"/>
        <pt x="403" y="477" on="1"/>
        <pt x="403" y="0" on="1"/>
        <pt x="168" y="0" on="1"/>
        <pt x="168" y="1106" on="1"/>
        <pt x="403" y="1106" on="1"/>
        <pt x="403" y="662" on="1"/>
        <pt x="649" y="662" on="1"/>
        <pt x="674" y="882" on="0"/>
        <pt x="933" y="1126" on="0"/>
        <pt x="1147" y="1126" on="1"/>
        <pt x="1377" y="1126" on="0"/>
        <pt x="1645" y="817" on="0"/>
      </contour>
      <contour>
        <pt x="887" y="555" on="1"/>
        <pt x="887" y="366" on="0"/>
        <pt x="1008" y="172" on="0"/>
        <pt x="1145" y="172" on="1"/>
        <pt x="1281" y="172" on="0"/>
        <pt x="1403" y="366" on="0"/>
        <pt x="1403" y="555" on="1"/>
        <pt x="1403" y="742" on="0"/>
        <pt x="1281" y="934" on="0"/>
        <pt x="1145" y="934" on="1"/>
        <pt x="1008" y="934" on="0"/>
        <pt x="887" y="742" on="0"/>
      </contour>
    </TTGlyph>
    <TTGlyph name="afii10097" xMin="18" yMin="0" xMax="1008" yMax="1106">
      <contour>
        <pt x="281" y="0" on="1"/>
        <pt x="18" y="0" on="1"/>
        <pt x="326" y="453" on="1"/>
        <pt x="214" y="485" on="0"/>
        <pt x="86" y="650" on="0"/>
        <pt x="86" y="772" on="1"/>
        <pt x="86" y="929" on="0"/>
        <pt x="310" y="1106" on="0"/>
        <pt x="504" y="1106" on="1"/>
        <pt x="1008" y="1106" on="1"/>
        <pt x="1008" y="0" on="1"/>
        <pt x="772" y="0" on="1"/>
        <pt x="772" y="426" on="1"/>
        <pt x="549" y="426" on="1"/>
      </contour>
      <contour>
        <pt x="315" y="770" on="1"/>
        <pt x="315" y="685" on="0"/>
        <pt x="444" y="600" on="0"/>
        <pt x="553" y="600" on="1"/>
        <pt x="772" y="600" on="1"/>
        <pt x="772" y="928" on="1"/>
        <pt x="516" y="928" on="1"/>
        <pt x="420" y="928" on="0"/>
        <pt x="315" y="846" on="0"/>
      </contour>
    </TTGlyph>
    <TTGlyph name="afii10098" xMin="168" yMin="0" xMax="905" yMax="1419">
      <contour>
        <pt x="403" y="0" on="1"/>
        <pt x="168" y="0" on="1"/>
        <pt x="168" y="1106" on="1"/>
        <pt x="684" y="1106" on="1"/>
        <pt x="684" y="1419" on="1"/>
        <pt x="905" y="1419" on="1"/>
        <pt x="905" y="928" on="1"/>
        <pt x="403" y="928" on="1"/>
      </contour>
    </TTGlyph>
    <TTGlyph name="afii10099" xMin="12" yMin="-492" xMax="1141" yMax="1556">
      <contour>
        <pt x="821" y="-492" on="1"/>
        <pt x="730" y="-492" on="0"/>
        <pt x="664" y="-467" on="1"/>
        <pt x="664" y="-279" on="1"/>
        <pt x="722" y="-297" on="0"/>
        <pt x="780" y="-297" on="1"/>
        <pt x="905" y="-297" on="0"/>
        <pt x="905" y="-127" on="1"/>
        <pt x="905" y="641" on="1"/>
        <pt x="905" y="885" on="0"/>
        <pt x="690" y="885" on="1"/>
        <pt x="542" y="885" on="0"/>
        <pt x="403" y="705" on="0"/>
        <pt x="403" y="500" on="1"/>
        <pt x="403" y="0" on="1"/>
        <pt x="168" y="0" on="1"/>
        <pt x="168" y="1219" on="1"/>
        <pt x="12" y="1219" on="1"/>
        <pt x="12" y="1382" on="1"/>
        <pt x="168" y="1382" on="1"/>
        <pt x="168" y="1556" on="1"/>
        <pt x="403" y="1556" on="1"/>
        <pt x="403" y="1382" on="1"/>
        <pt x="762" y="1382" on="1"/>
        <pt x="762" y="1219" on="1"/>
        <pt x="403" y="1219" on="1"/>
        <pt x="403" y="1112" on="1"/>
        <pt x="403" y="1083" on="0"/>
        <pt x="399" y="1002" on="0"/>
        <pt x="391" y="909" on="1"/>
        <pt x="406" y="909" on="1"/>
        <pt x="460" y="996" on="0"/>
        <pt x="635" y="1077" on="0"/>
        <pt x="741" y="1077" on="1"/>
        <pt x="1141" y="1077" on="0"/>
        <pt x="1141" y="672" on="1"/>
        <pt x="1141" y="-143" on="1"/>
        <pt x="1141" y="-311" on="0"/>
        <pt x="976" y="-492" on="0"/>
      </contour>
    </TTGlyph>
    <TTGlyph name="afii10100" xMin="168" yMin="0" xMax="883" yMax="1569">
      <component glyphName="afii10068" x="0" y="0" flags="0x204"/>
      <component glyphName="acute" x="6" y="0" flags="0x4"/>
    </TTGlyph>
    <TTGlyph name="afii10101" xMin="102" yMin="-20" xMax="973" yMax="1126">
      <contour>
        <pt x="643" y="-20" on="1"/>
        <pt x="379" y="-20" on="0"/>
        <pt x="102" y="270" on="0"/>
        <pt x="102" y="547" on="1"/>
        <pt x="102" y="832" on="0"/>
        <pt x="373" y="1126" on="0"/>
        <pt x="645" y="1126" on="1"/>
        <pt x="828" y="1126" on="0"/>
        <pt x="973" y="1061" on="1"/>
        <pt x="903" y="883" on="1"/>
        <pt x="749" y="940" on="0"/>
        <pt x="639" y="940" on="1"/>
        <pt x="505" y="940" on="0"/>
        <pt x="363" y="798" on="0"/>
        <pt x="346" y="651" on="1"/>
        <pt x="834" y="651" on="1"/>
        <pt x="834" y="479" on="1"/>
        <pt x="346" y="479" on="1"/>
        <pt x="357" y="318" on="0"/>
        <pt x="497" y="166" on="0"/>
        <pt x="633" y="166" on="1"/>
        <pt x="785" y="166" on="0"/>
        <pt x="948" y="236" on="1"/>
        <pt x="948" y="45" on="1"/>
        <pt x="816" y="-20" on="0"/>
      </contour>
    </TTGlyph>
    <TTGlyph name="afii10102" xMin="98" yMin="-20" xMax="911" yMax="1126">
      <component glyphName="s" x="0" y="0" flags="0x204"/>
    </TTGlyph>
    <TTGlyph name="afii10103" xMin="154" yMin="0" xMax="418" yMax="1530">
      <component glyphName="i" x="0" y="0" flags="0x204"/>
    </TTGlyph>
    <TTGlyph name="afii10104" xMin="-23" yMin="0" xMax="602" yMax="1516">
      <component glyphName="dotlessi" x="0" y="0" flags="0x204"/>
      <component glyphName="dieresis" x="-316" y="0" flags="0x4"/>
    </TTGlyph>
    <TTGlyph name="afii10105" xMin="-121" yMin="-492" xMax="418" yMax="1530">
      <component glyphName="j" x="0" y="0" flags="0x204"/>
    </TTGlyph>
    <TTGlyph name="afii10106" xMin="8" yMin="-16" xMax="1673" yMax="1106">
      <contour>
        <pt x="782" y="0" on="1"/>
        <pt x="782" y="922" on="1"/>
        <pt x="535" y="922" on="1"/>
        <pt x="507" y="561" on="0"/>
        <pt x="413" y="166" on="0"/>
        <pt x="260" y="-16" on="0"/>
        <pt x="139" y="-16" on="1"/>
        <pt x="55" y="-16" on="0"/>
        <pt x="8" y="4" on="1"/>
        <pt x="8" y="188" on="1"/>
        <pt x="45" y="174" on="0"/>
        <pt x="82" y="174" on="1"/>
        <pt x="184" y="174" on="0"/>
        <pt x="301" y="633" on="0"/>
        <pt x="334" y="1106" on="1"/>
        <pt x="1030" y="1106" on="1"/>
        <pt x="1030" y="664" on="1"/>
        <pt x="1223" y="664" on="1"/>
        <pt x="1453" y="664" on="0"/>
        <pt x="1673" y="504" on="0"/>
        <pt x="1673" y="344" on="1"/>
        <pt x="1673" y="173" on="0"/>
        <pt x="1440" y="0" on="0"/>
        <pt x="1214" y="0" on="1"/>
      </contour>
      <contour>
        <pt x="1438" y="338" on="1"/>
        <pt x="1438" y="421" on="0"/>
        <pt x="1317" y="487" on="0"/>
        <pt x="1200" y="487" on="1"/>
        <pt x="1020" y="487" on="1"/>
        <pt x="1020" y="174" on="1"/>
        <pt x="1204" y="174" on="1"/>
        <pt x="1319" y="174" on="0"/>
        <pt x="1438" y="258" on="0"/>
      </contour>
    </TTGlyph>
    <TTGlyph name="afii10107" xMin="168" yMin="0" xMax="1722" yMax="1106">
      <contour>
        <pt x="1071" y="664" on="1"/>
        <pt x="1270" y="664" on="1"/>
        <pt x="1502" y="664" on="0"/>
        <pt x="1722" y="504" on="0"/>
        <pt x="1722" y="344" on="1"/>
        <pt x="1722" y="174" on="0"/>
        <pt x="1493" y="0" on="0"/>
        <pt x="1266" y="0" on="1"/>
        <pt x="831" y="0" on="1"/>
        <pt x="831" y="477" on="1"/>
        <pt x="406" y="477" on="1"/>
        <pt x="406" y="0" on="1"/>
        <pt x="168" y="0" on="1"/>
        <pt x="168" y="1106" on="1"/>
        <pt x="406" y="1106" on="1"/>
        <pt x="406" y="662" on="1"/>
        <pt x="834" y="662" on="1"/>
        <pt x="834" y="1106" on="1"/>
        <pt x="1071" y="1106" on="1"/>
      </contour>
      <contour>
        <pt x="1489" y="338" on="1"/>
        <pt x="1489" y="421" on="0"/>
        <pt x="1368" y="487" on="0"/>
        <pt x="1251" y="487" on="1"/>
        <pt x="1069" y="487" on="1"/>
        <pt x="1069" y="174" on="1"/>
        <pt x="1255" y="174" on="1"/>
        <pt x="1489" y="174" on="0"/>
      </contour>
    </TTGlyph>
    <TTGlyph name="afii10108" xMin="12" yMin="0" xMax="1141" yMax="1556">
      <contour>
        <pt x="1141" y="0" on="1"/>
        <pt x="905" y="0" on="1"/>
        <pt x="905" y="631" on="1"/>
        <pt x="905" y="758" on="0"/>
        <pt x="802" y="885" on="0"/>
        <pt x="690" y="885" on="1"/>
        <pt x="542" y="885" on="0"/>
        <pt x="403" y="708" on="0"/>
        <pt x="403" y="500" on="1"/>
        <pt x="403" y="0" on="1"/>
        <pt x="168" y="0" on="1"/>
        <pt x="168" y="1219" on="1"/>
        <pt x="12" y="1219" on="1"/>
        <pt x="12" y="1382" on="1"/>
        <pt x="168" y="1382" on="1"/>
        <pt x="168" y="1556" on="1"/>
        <pt x="403" y="1556" on="1"/>
        <pt x="403" y="1382" on="1"/>
        <pt x="784" y="1382" on="1"/>
        <pt x="784" y="1219" on="1"/>
        <pt x="403" y="1219" on="1"/>
        <pt x="403" y="1112" on="1"/>
        <pt x="403" y="1083" on="0"/>
        <pt x="399" y="1002" on="0"/>
        <pt x="391" y="909" on="1"/>
        <pt x="406" y="909" on="1"/>
        <pt x="460" y="996" on="0"/>
        <pt x="635" y="1077" on="0"/>
        <pt x="741" y="1077" on="1"/>
        <pt x="1141" y="1077" on="0"/>
        <pt x="1141" y="672" on="1"/>
      </contour>
    </TTGlyph>
    <TTGlyph name="afii10109" xMin="168" yMin="0" xMax="1151" yMax="1569">
      <component glyphName="afii10076" x="0" y="0" flags="0x204"/>
      <component glyphName="acute" x="113" y="0" flags="0x4"/>
    </TTGlyph>
    <TTGlyph name="afii10110" xMin="0" yMin="-492" xMax="1098" yMax="1573">
      <component glyphName="y" x="0" y="0" flags="0x204"/>
      <component glyphName="cyrillicbreve" x="-38" y="0" flags="0x4"/>
    </TTGlyph>
    <TTGlyph name="afii10145" xMin="193" yMin="-403" xMax="1317" yMax="1462">
      <contour>
        <pt x="1317" y="0" on="1"/>
        <pt x="870" y="0" on="1"/>
        <pt x="870" y="-403" on="1"/>
        <pt x="633" y="-403" on="1"/>
        <pt x="633" y="0" on="1"/>
        <pt x="193" y="0" on="1"/>
        <pt x="193" y="1462" on="1"/>
        <pt x="432" y="1462" on="1"/>
        <pt x="432" y="205" on="1"/>
        <pt x="1077" y="205" on="1"/>
        <pt x="1077" y="1462" on="1"/>
        <pt x="1317" y="1462" on="1"/>
      </contour>
    </TTGlyph>
    <TTGlyph name="afii10193" xMin="168" yMin="-389" xMax="1155" yMax="1106">
      <contour>
        <pt x="168" y="0" on="1"/>
        <pt x="168" y="1106" on="1"/>
        <pt x="403" y="1106" on="1"/>
        <pt x="403" y="186" on="1"/>
        <pt x="920" y="186" on="1"/>
        <pt x="920" y="1106" on="1"/>
        <pt x="1155" y="1106" on="1"/>
        <pt x="1155" y="0" on="1"/>
        <pt x="774" y="0" on="1"/>
        <pt x="774" y="-389" on="1"/>
        <pt x="555" y="-389" on="1"/>
        <pt x="555" y="0" on="1"/>
      </contour>
    </TTGlyph>
    <TTGlyph name="afii61248" xMin="102" yMin="-14" xMax="1554" yMax="1473">
      <contour>
        <pt x="1311" y="1462" on="1"/>
        <pt x="500" y="0" on="1"/>
        <pt x="305" y="0" on="1"/>
        <pt x="1116" y="1462" on="1"/>
      </contour>
      <contour>
        <pt x="1554" y="338" on="1"/>
        <pt x="1554" y="175" on="0"/>
        <pt x="1380" y="-14" on="0"/>
        <pt x="1227" y="-14" on="1"/>
        <pt x="1081" y="-14" on="0"/>
        <pt x="907" y="177" on="0"/>
        <pt x="907" y="338" on="1"/>
        <pt x="907" y="503" on="0"/>
        <pt x="1079" y="690" on="0"/>
        <pt x="1233" y="690" on="1"/>
        <pt x="1379" y="690" on="0"/>
        <pt x="1554" y="498" on="0"/>
      </contour>
      <contour>
        <pt x="1075" y="338" on="1"/>
        <pt x="1075" y="119" on="0"/>
        <pt x="1231" y="119" on="1"/>
        <pt x="1384" y="119" on="0"/>
        <pt x="1384" y="338" on="1"/>
        <pt x="1384" y="555" on="0"/>
        <pt x="1231" y="555" on="1"/>
        <pt x="1146" y="555" on="0"/>
        <pt x="1075" y="441" on="0"/>
      </contour>
      <contour>
        <pt x="455" y="772" on="1"/>
        <pt x="287" y="772" on="0"/>
        <pt x="102" y="954" on="0"/>
        <pt x="102" y="1118" on="1"/>
        <pt x="102" y="1291" on="0"/>
        <pt x="286" y="1473" on="0"/>
        <pt x="459" y="1473" on="1"/>
        <pt x="569" y="1473" on="0"/>
        <pt x="664" y="1430" on="1"/>
        <pt x="618" y="1300" on="1"/>
        <pt x="530" y="1337" on="0"/>
        <pt x="455" y="1337" on="1"/>
        <pt x="270" y="1337" on="0"/>
        <pt x="270" y="1120" on="1"/>
        <pt x="270" y="907" on="0"/>
        <pt x="451" y="907" on="1"/>
        <pt x="560" y="907" on="0"/>
        <pt x="647" y="944" on="1"/>
        <pt x="647" y="813" on="1"/>
        <pt x="571" y="772" on="0"/>
      </contour>
    </TTGlyph>
    <TTGlyph name="afii61289" xMin="80" yMin="-20" xMax="956" yMax="1481">
      <contour>
        <pt x="639" y="150" on="1"/>
        <pt x="713" y="150" on="0"/>
        <pt x="800" y="254" on="0"/>
        <pt x="807" y="356" on="1"/>
        <pt x="956" y="356" on="1"/>
        <pt x="947" y="163" on="0"/>
        <pt x="776" y="-20" on="0"/>
        <pt x="614" y="-20" on="1"/>
        <pt x="447" y="-20" on="0"/>
        <pt x="266" y="176" on="0"/>
        <pt x="266" y="356" on="1"/>
        <pt x="266" y="543" on="1"/>
        <pt x="198" y="520" on="0"/>
        <pt x="80" y="489" on="1"/>
        <pt x="80" y="643" on="1"/>
        <pt x="186" y="672" on="0"/>
        <pt x="266" y="700" on="1"/>
        <pt x="266" y="1155" on="1"/>
        <pt x="266" y="1309" on="0"/>
        <pt x="430" y="1481" on="0"/>
        <pt x="602" y="1481" on="1"/>
        <pt x="741" y="1481" on="0"/>
        <pt x="903" y="1317" on="0"/>
        <pt x="903" y="1169" on="1"/>
        <pt x="903" y="800" on="0"/>
        <pt x="492" y="614" on="1"/>
        <pt x="492" y="356" on="1"/>
        <pt x="492" y="150" on="0"/>
      </contour>
      <contour>
        <pt x="711" y="1163" on="1"/>
        <pt x="711" y="1331" on="0"/>
        <pt x="602" y="1331" on="1"/>
        <pt x="544" y="1331" on="0"/>
        <pt x="492" y="1256" on="0"/>
        <pt x="492" y="1163" on="1"/>
        <pt x="492" y="782" on="1"/>
        <pt x="603" y="836" on="0"/>
        <pt x="711" y="1033" on="0"/>
      </contour>
    </TTGlyph>
    <TTGlyph name="afii61352" xMin="168" yMin="0" xMax="2007" yMax="1462">
      <contour>
        <pt x="1227" y="0" on="1"/>
        <pt x="969" y="0" on="1"/>
        <pt x="369" y="1137" on="1"/>
        <pt x="356" y="1137" on="1"/>
        <pt x="377" y="882" on="0"/>
        <pt x="377" y="729" on="1"/>
        <pt x="377" y="0" on="1"/>
        <pt x="168" y="0" on="1"/>
        <pt x="168" y="1462" on="1"/>
        <pt x="430" y="1462" on="1"/>
        <pt x="1024" y="330" on="1"/>
        <pt x="1036" y="330" on="1"/>
        <pt x="1018" y="578" on="0"/>
        <pt x="1018" y="723" on="1"/>
        <pt x="1018" y="1462" on="1"/>
        <pt x="1227" y="1462" on="1"/>
      </contour>
      <contour>
        <pt x="2007" y="629" on="1"/>
        <pt x="2007" y="461" on="0"/>
        <pt x="1836" y="274" on="0"/>
        <pt x="1683" y="274" on="1"/>
        <pt x="1538" y="274" on="0"/>
        <pt x="1364" y="462" on="0"/>
        <pt x="1364" y="629" on="1"/>
        <pt x="1364" y="796" on="0"/>
        <pt x="1535" y="983" on="0"/>
        <pt x="1688" y="983" on="1"/>
        <pt x="1834" y="983" on="0"/>
        <pt x="2007" y="789" on="0"/>
      </contour>
      <contour>
        <pt x="1530" y="629" on="1"/>
        <pt x="1530" y="522" on="0"/>
        <pt x="1602" y="414" on="0"/>
        <pt x="1686" y="414" on="1"/>
        <pt x="1767" y="414" on="0"/>
        <pt x="1839" y="522" on="0"/>
        <pt x="1839" y="629" on="1"/>
        <pt x="1839" y="737" on="0"/>
        <pt x="1767" y="842" on="0"/>
        <pt x="1686" y="842" on="1"/>
        <pt x="1604" y="842" on="0"/>
        <pt x="1530" y="737" on="0"/>
      </contour>
      <contour>
        <pt x="1397" y="0" on="1"/>
        <pt x="1397" y="162" on="1"/>
        <pt x="1972" y="162" on="1"/>
        <pt x="1972" y="0" on="1"/>
      </contour>
    </TTGlyph>
    <TTGlyph name="agrave" xMin="90" yMin="-20" xMax="1028" yMax="1569">
      <component glyphName="a" x="0" y="0" flags="0x204"/>
      <component glyphName="grave" x="-103" y="0" flags="0x4"/>
    </TTGlyph>
    <TTGlyph name="alpha" xMin="102" yMin="-20" xMax="1251" yMax="1126">
      <contour>
        <pt x="606" y="170" on="1"/>
        <pt x="752" y="170" on="0"/>
        <pt x="879" y="339" on="0"/>
        <pt x="881" y="539" on="1"/>
        <pt x="881" y="551" on="1"/>
        <pt x="881" y="757" on="0"/>
        <pt x="747" y="934" on="0"/>
        <pt x="604" y="934" on="1"/>
        <pt x="344" y="934" on="0"/>
        <pt x="344" y="547" on="1"/>
        <pt x="344" y="358" on="0"/>
        <pt x="470" y="170" on="0"/>
      </contour>
      <contour>
        <pt x="549" y="-20" on="1"/>
        <pt x="339" y="-20" on="0"/>
        <pt x="102" y="280" on="0"/>
        <pt x="102" y="549" on="1"/>
        <pt x="102" y="826" on="0"/>
        <pt x="347" y="1126" on="0"/>
        <pt x="567" y="1126" on="1"/>
        <pt x="687" y="1126" on="0"/>
        <pt x="844" y="1041" on="0"/>
        <pt x="897" y="958" on="1"/>
        <pt x="909" y="958" on="1"/>
        <pt x="936" y="1055" on="0"/>
        <pt x="977" y="1106" on="1"/>
        <pt x="1167" y="1106" on="1"/>
        <pt x="1140" y="1024" on="0"/>
        <pt x="1106" y="767" on="0"/>
        <pt x="1106" y="666" on="1"/>
        <pt x="1106" y="291" on="1"/>
        <pt x="1106" y="234" on="0"/>
        <pt x="1150" y="174" on="0"/>
        <pt x="1190" y="174" on="1"/>
        <pt x="1221" y="174" on="0"/>
        <pt x="1251" y="184" on="1"/>
        <pt x="1251" y="6" on="1"/>
        <pt x="1235" y="-4" on="0"/>
        <pt x="1156" y="-20" on="0"/>
        <pt x="1126" y="-20" on="1"/>
        <pt x="1031" y="-20" on="0"/>
        <pt x="927" y="58" on="0"/>
        <pt x="901" y="147" on="1"/>
        <pt x="885" y="147" on="1"/>
        <pt x="770" y="-20" on="0"/>
      </contour>
    </TTGlyph>
    <TTGlyph name="alphatonos" xMin="102" yMin="-20" xMax="1251" yMax="1640">
      <component glyphName="alpha" x="0" y="0" flags="0x204"/>
      <component glyphName="tonos" x="39" y="0" flags="0x4"/>
    </TTGlyph>
    <TTGlyph name="amacron" xMin="90" yMin="-20" xMax="1028" yMax="1415">
      <component glyphName="a" x="0" y="0" flags="0x204"/>
      <component glyphName="macron" x="0" y="0" flags="0x4"/>
    </TTGlyph>
    <TTGlyph name="ampersand" xMin="96" yMin="-20" xMax="1513" yMax="1483">
      <contour>
        <pt x="451" y="1147" on="1"/>
        <pt x="451" y="1084" on="0"/>
        <pt x="518" y="972" on="0"/>
        <pt x="578" y="909" on="1"/>
        <pt x="691" y="973" on="0"/>
        <pt x="782" y="1084" on="0"/>
        <pt x="782" y="1153" on="1"/>
        <pt x="782" y="1218" on="0"/>
        <pt x="695" y="1296" on="0"/>
        <pt x="623" y="1296" on="1"/>
        <pt x="544" y="1296" on="0"/>
        <pt x="451" y="1215" on="0"/>
      </contour>
      <contour>
        <pt x="600" y="182" on="1"/>
        <pt x="783" y="182" on="0"/>
        <pt x="913" y="289" on="1"/>
        <pt x="530" y="666" on="1"/>
        <pt x="424" y="598" on="0"/>
        <pt x="344" y="479" on="0"/>
        <pt x="344" y="403" on="1"/>
        <pt x="344" y="305" on="0"/>
        <pt x="483" y="182" on="0"/>
      </contour>
      <contour>
        <pt x="96" y="387" on="1"/>
        <pt x="96" y="518" on="0"/>
        <pt x="224" y="713" on="0"/>
        <pt x="391" y="809" on="1"/>
        <pt x="296" y="920" on="0"/>
        <pt x="227" y="1073" on="0"/>
        <pt x="227" y="1155" on="1"/>
        <pt x="227" y="1307" on="0"/>
        <pt x="444" y="1483" on="0"/>
        <pt x="627" y="1483" on="1"/>
        <pt x="804" y="1483" on="0"/>
        <pt x="1006" y="1312" on="0"/>
        <pt x="1006" y="1167" on="1"/>
        <pt x="1006" y="1053" on="0"/>
        <pt x="871" y="867" on="0"/>
        <pt x="713" y="774" on="1"/>
        <pt x="1059" y="440" on="1"/>
        <pt x="1140" y="547" on="0"/>
        <pt x="1194" y="754" on="1"/>
        <pt x="1436" y="754" on="1"/>
        <pt x="1366" y="470" on="0"/>
        <pt x="1212" y="291" on="1"/>
        <pt x="1513" y="0" on="1"/>
        <pt x="1210" y="0" on="1"/>
        <pt x="1061" y="145" on="1"/>
        <pt x="959" y="63" on="0"/>
        <pt x="728" y="-20" on="0"/>
        <pt x="588" y="-20" on="1"/>
        <pt x="358" y="-20" on="0"/>
        <pt x="96" y="198" on="0"/>
      </contour>
    </TTGlyph>
    <TTGlyph name="anoteleia" xMin="133" yMin="569" xMax="430" yMax="874">
      <contour>
        <pt x="133" y="721" on="1"/>
        <pt x="133" y="796" on="0"/>
        <pt x="208" y="874" on="0"/>
        <pt x="281" y="874" on="1"/>
        <pt x="354" y="874" on="0"/>
        <pt x="430" y="794" on="0"/>
        <pt x="430" y="721" on="1"/>
        <pt x="430" y="649" on="0"/>
        <pt x="352" y="569" on="0"/>
        <pt x="281" y="569" on="1"/>
        <pt x="210" y="569" on="0"/>
        <pt x="133" y="647" on="0"/>
      </contour>
    </TTGlyph>
    <TTGlyph name="aogonek" xMin="90" yMin="-469" xMax="1061" yMax="1126">
      <component glyphName="a" x="0" y="0" flags="0x204"/>
      <component glyphName="ogonek" x="670" y="0" flags="0x4"/>
    </TTGlyph>
    <TTGlyph name="approxequal" xMin="92" yMin="369" xMax="1075" yMax="1071">
      <contour>
        <pt x="328" y="489" on="1"/>
        <pt x="275" y="489" on="0"/>
        <pt x="147" y="424" on="0"/>
        <pt x="92" y="369" on="1"/>
        <pt x="92" y="559" on="1"/>
        <pt x="201" y="670" on="0"/>
        <pt x="348" y="670" on="1"/>
        <pt x="420" y="670" on="0"/>
        <pt x="549" y="635" on="0"/>
        <pt x="621" y="604" on="1"/>
        <pt x="748" y="549" on="0"/>
        <pt x="840" y="549" on="1"/>
        <pt x="893" y="549" on="0"/>
        <pt x="1019" y="612" on="0"/>
        <pt x="1075" y="670" on="1"/>
        <pt x="1075" y="479" on="1"/>
        <pt x="973" y="371" on="0"/>
        <pt x="819" y="371" on="1"/>
        <pt x="752" y="371" on="0"/>
        <pt x="637" y="397" on="0"/>
        <pt x="549" y="434" on="1"/>
        <pt x="478" y="463" on="0"/>
        <pt x="379" y="489" on="0"/>
      </contour>
      <contour>
        <pt x="328" y="893" on="1"/>
        <pt x="276" y="893" on="0"/>
        <pt x="149" y="829" on="0"/>
        <pt x="92" y="772" on="1"/>
        <pt x="92" y="963" on="1"/>
        <pt x="198" y="1071" on="0"/>
        <pt x="348" y="1071" on="1"/>
        <pt x="418" y="1071" on="0"/>
        <pt x="539" y="1040" on="0"/>
        <pt x="621" y="1006" on="1"/>
        <pt x="694" y="975" on="0"/>
        <pt x="792" y="950" on="0"/>
        <pt x="840" y="950" on="1"/>
        <pt x="893" y="950" on="0"/>
        <pt x="1017" y="1013" on="0"/>
        <pt x="1075" y="1071" on="1"/>
        <pt x="1075" y="881" on="1"/>
        <pt x="974" y="772" on="0"/>
        <pt x="819" y="772" on="1"/>
        <pt x="750" y="772" on="0"/>
        <pt x="632" y="801" on="0"/>
        <pt x="549" y="836" on="1"/>
        <pt x="464" y="871" on="0"/>
        <pt x="369" y="893" on="0"/>
      </contour>
    </TTGlyph>
    <TTGlyph name="aring" xMin="90" yMin="-20" xMax="1028" yMax="1692">
      <component glyphName="a" x="0" y="0" flags="0x204"/>
      <component glyphName="ring" x="14" y="0" flags="0x4"/>
    </TTGlyph>
    <TTGlyph name="aringacute" xMin="90" yMin="-20" xMax="1028" yMax="1962">
      <contour>
        <pt x="860" y="0" on="1"/>
        <pt x="813" y="154" on="1"/>
        <pt x="805" y="154" on="1"/>
        <pt x="738" y="67" on="0"/>
        <pt x="554" y="-20" on="0"/>
        <pt x="436" y="-20" on="1"/>
        <pt x="276" y="-20" on="0"/>
        <pt x="90" y="156" on="0"/>
        <pt x="90" y="317" on="1"/>
        <pt x="90" y="486" on="0"/>
        <pt x="347" y="662" on="0"/>
        <pt x="604" y="670" on="1"/>
        <pt x="795" y="676" on="1"/>
        <pt x="795" y="735" on="1"/>
        <pt x="795" y="840" on="0"/>
        <pt x="693" y="946" on="0"/>
        <pt x="592" y="946" on="1"/>
        <pt x="521" y="946" on="0"/>
        <pt x="365" y="904" on="0"/>
        <pt x="279" y="862" on="1"/>
        <pt x="203" y="1030" on="1"/>
        <pt x="299" y="1078" on="0"/>
        <pt x="498" y="1126" on="0"/>
        <pt x="602" y="1126" on="1"/>
        <pt x="815" y="1126" on="0"/>
        <pt x="1028" y="935" on="0"/>
        <pt x="1028" y="745" on="1"/>
        <pt x="1028" y="0" on="1"/>
      </contour>
      <contour>
        <pt x="510" y="160" on="1"/>
        <pt x="637" y="160" on="0"/>
        <pt x="793" y="303" on="0"/>
        <pt x="793" y="432" on="1"/>
        <pt x="793" y="528" on="1"/>
        <pt x="651" y="522" on="1"/>
        <pt x="492" y="515" on="0"/>
        <pt x="334" y="411" on="0"/>
        <pt x="334" y="315" on="1"/>
        <pt x="334" y="237" on="0"/>
        <pt x="422" y="160" on="0"/>
      </contour>
      <contour>
        <pt x="471" y="1753" on="1"/>
        <pt x="471" y="1769" on="1"/>
        <pt x="569" y="1860" on="0"/>
        <pt x="645" y="1962" on="1"/>
        <pt x="946" y="1962" on="1"/>
        <pt x="946" y="1950" on="1"/>
        <pt x="887" y="1886" on="0"/>
        <pt x="633" y="1753" on="1"/>
      </contour>
      <contour>
        <pt x="602" y="1219" on="1"/>
        <pt x="498" y="1219" on="0"/>
        <pt x="367" y="1339" on="0"/>
        <pt x="367" y="1446" on="1"/>
        <pt x="367" y="1550" on="0"/>
        <pt x="498" y="1671" on="0"/>
        <pt x="602" y="1671" on="1"/>
        <pt x="702" y="1671" on="0"/>
        <pt x="842" y="1552" on="0"/>
        <pt x="842" y="1448" on="1"/>
        <pt x="842" y="1339" on="0"/>
        <pt x="705" y="1219" on="0"/>
      </contour>
      <contour>
        <pt x="602" y="1552" on="1"/>
        <pt x="549" y="1552" on="0"/>
        <pt x="496" y="1499" on="0"/>
        <pt x="496" y="1446" on="1"/>
        <pt x="496" y="1392" on="0"/>
        <pt x="549" y="1339" on="0"/>
        <pt x="602" y="1339" on="1"/>
        <pt x="655" y="1339" on="0"/>
        <pt x="709" y="1392" on="0"/>
        <pt x="709" y="1446" on="1"/>
        <pt x="709" y="1499" on="0"/>
        <pt x="655" y="1552" on="0"/>
      </contour>
    </TTGlyph>
    <TTGlyph name="asciicircum" xMin="29" yMin="535" xMax="1071" yMax="1470">
      <contour>
        <pt x="29" y="535" on="1"/>
        <pt x="465" y="1470" on="1"/>
        <pt x="586" y="1470" on="1"/>
        <pt x="1071" y="535" on="1"/>
        <pt x="877" y="535" on="1"/>
        <pt x="528" y="1229" on="1"/>
        <pt x="221" y="535" on="1"/>
      </contour>
    </TTGlyph>
    <TTGlyph name="asciitilde" xMin="96" yMin="571" xMax="1073" yMax="872">
      <contour>
        <pt x="330" y="692" on="1"/>
        <pt x="280" y="692" on="0"/>
        <pt x="157" y="632" on="0"/>
        <pt x="96" y="571" on="1"/>
        <pt x="96" y="762" on="1"/>
        <pt x="195" y="870" on="0"/>
        <pt x="346" y="870" on="1"/>
        <pt x="412" y="870" on="0"/>
        <pt x="530" y="844" on="0"/>
        <pt x="618" y="807" on="1"/>
        <pt x="749" y="752" on="0"/>
        <pt x="838" y="752" on="1"/>
        <pt x="890" y="752" on="0"/>
        <pt x="1015" y="814" on="0"/>
        <pt x="1073" y="872" on="1"/>
        <pt x="1073" y="682" on="1"/>
        <pt x="968" y="571" on="0"/>
        <pt x="823" y="571" on="1"/>
        <pt x="758" y="571" on="0"/>
        <pt x="633" y="602" on="0"/>
        <pt x="549" y="637" on="1"/>
        <pt x="422" y="692" on="0"/>
      </contour>
    </TTGlyph>
    <TTGlyph name="asterisk" xMin="74" yMin="618" xMax="1044" yMax="1556">
      <contour>
        <pt x="672" y="1556" on="1"/>
        <pt x="631" y="1174" on="1"/>
        <pt x="1016" y="1282" on="1"/>
        <pt x="1044" y="1065" on="1"/>
        <pt x="684" y="1036" on="1"/>
        <pt x="920" y="725" on="1"/>
        <pt x="721" y="618" on="1"/>
        <pt x="555" y="956" on="1"/>
        <pt x="406" y="618" on="1"/>
        <pt x="201" y="725" on="1"/>
        <pt x="432" y="1036" on="1"/>
        <pt x="74" y="1065" on="1"/>
        <pt x="109" y="1282" on="1"/>
        <pt x="485" y="1174" on="1"/>
        <pt x="444" y="1556" on="1"/>
      </contour>
    </TTGlyph>
    <TTGlyph name="at" xMin="111" yMin="-170" xMax="1726" yMax="1470">
      <contour>
        <pt x="1726" y="739" on="1"/>
        <pt x="1726" y="596" on="0"/>
        <pt x="1636" y="359" on="0"/>
        <pt x="1473" y="227" on="0"/>
        <pt x="1366" y="227" on="1"/>
        <pt x="1287" y="227" on="0"/>
        <pt x="1171" y="311" on="0"/>
        <pt x="1151" y="383" on="1"/>
        <pt x="1139" y="383" on="1"/>
        <pt x="1090" y="305" on="0"/>
        <pt x="946" y="227" on="0"/>
        <pt x="856" y="227" on="1"/>
        <pt x="693" y="227" on="0"/>
        <pt x="506" y="437" on="0"/>
        <pt x="506" y="616" on="1"/>
        <pt x="506" y="822" on="0"/>
        <pt x="754" y="1079" on="0"/>
        <pt x="963" y="1079" on="1"/>
        <pt x="1039" y="1079" on="0"/>
        <pt x="1224" y="1052" on="0"/>
        <pt x="1296" y="1028" on="1"/>
        <pt x="1274" y="563" on="1"/>
        <pt x="1274" y="539" on="1"/>
        <pt x="1274" y="379" on="0"/>
        <pt x="1378" y="379" on="1"/>
        <pt x="1457" y="379" on="0"/>
        <pt x="1550" y="583" on="0"/>
        <pt x="1550" y="741" on="1"/>
        <pt x="1550" y="912" on="0"/>
        <pt x="1410" y="1171" on="0"/>
        <pt x="1152" y="1311" on="0"/>
        <pt x="985" y="1311" on="1"/>
        <pt x="772" y="1311" on="0"/>
        <pt x="457" y="1135" on="0"/>
        <pt x="291" y="808" on="0"/>
        <pt x="291" y="592" on="1"/>
        <pt x="291" y="302" on="0"/>
        <pt x="601" y="-10" on="0"/>
        <pt x="891" y="-10" on="1"/>
        <pt x="1112" y="-10" on="0"/>
        <pt x="1352" y="80" on="1"/>
        <pt x="1352" y="-84" on="1"/>
        <pt x="1142" y="-170" on="0"/>
        <pt x="895" y="-170" on="1"/>
        <pt x="525" y="-170" on="0"/>
        <pt x="111" y="229" on="0"/>
        <pt x="111" y="586" on="1"/>
        <pt x="111" y="847" on="0"/>
        <pt x="335" y="1254" on="0"/>
        <pt x="732" y="1470" on="0"/>
        <pt x="983" y="1470" on="1"/>
        <pt x="1200" y="1470" on="0"/>
        <pt x="1539" y="1290" on="0"/>
        <pt x="1726" y="957" on="0"/>
      </contour>
      <contour>
        <pt x="698" y="612" on="1"/>
        <pt x="698" y="379" on="0"/>
        <pt x="881" y="379" on="1"/>
        <pt x="1074" y="379" on="0"/>
        <pt x="1092" y="672" on="1"/>
        <pt x="1104" y="911" on="1"/>
        <pt x="1041" y="928" on="0"/>
        <pt x="969" y="928" on="1"/>
        <pt x="841" y="928" on="0"/>
        <pt x="698" y="758" on="0"/>
      </contour>
    </TTGlyph>
    <TTGlyph name="atilde" xMin="90" yMin="-20" xMax="1028" yMax="1526">
      <component glyphName="a" x="0" y="0" flags="0x204"/>
      <component glyphName="tilde" x="-28" y="0" flags="0x4"/>
    </TTGlyph>
    <TTGlyph name="b" xMin="168" yMin="-20" xMax="1171" yMax="1556">
      <contour>
        <pt x="733" y="1126" on="1"/>
        <pt x="940" y="1126" on="0"/>
        <pt x="1171" y="826" on="0"/>
        <pt x="1171" y="555" on="1"/>
        <pt x="1171" y="283" on="0"/>
        <pt x="937" y="-20" on="0"/>
        <pt x="729" y="-20" on="1"/>
        <pt x="519" y="-20" on="0"/>
        <pt x="403" y="131" on="1"/>
        <pt x="387" y="131" on="1"/>
        <pt x="344" y="0" on="1"/>
        <pt x="168" y="0" on="1"/>
        <pt x="168" y="1556" on="1"/>
        <pt x="403" y="1556" on="1"/>
        <pt x="403" y="1186" on="1"/>
        <pt x="403" y="1145" on="0"/>
        <pt x="395" y="983" on="0"/>
        <pt x="393" y="961" on="1"/>
        <pt x="403" y="961" on="1"/>
        <pt x="515" y="1126" on="0"/>
      </contour>
      <contour>
        <pt x="672" y="934" on="1"/>
        <pt x="530" y="934" on="0"/>
        <pt x="405" y="767" on="0"/>
        <pt x="403" y="571" on="1"/>
        <pt x="403" y="555" on="1"/>
        <pt x="403" y="353" on="0"/>
        <pt x="531" y="172" on="0"/>
        <pt x="676" y="172" on="1"/>
        <pt x="801" y="172" on="0"/>
        <pt x="930" y="370" on="0"/>
        <pt x="930" y="557" on="1"/>
        <pt x="930" y="934" on="0"/>
      </contour>
    </TTGlyph>
    <TTGlyph name="backslash" xMin="16" yMin="0" xMax="782" yMax="1462">
      <contour>
        <pt x="238" y="1462" on="1"/>
        <pt x="782" y="0" on="1"/>
        <pt x="561" y="0" on="1"/>
        <pt x="16" y="1462" on="1"/>
      </contour>
    </TTGlyph>
    <TTGlyph name="bar" xMin="473" yMin="-481" xMax="653" yMax="1552">
      <contour>
        <pt x="473" y="1552" on="1"/>
        <pt x="653" y="1552" on="1"/>
        <pt x="653" y="-481" on="1"/>
        <pt x="473" y="-481" on="1"/>
      </contour>
    </TTGlyph>
    <TTGlyph name="beta" xMin="168" yMin="-492" xMax="1235" yMax="1567">
      <contour>
        <pt x="676" y="1567" on="1"/>
        <pt x="902" y="1567" on="0"/>
        <pt x="1163" y="1359" on="0"/>
        <pt x="1163" y="1174" on="1"/>
        <pt x="1163" y="881" on="0"/>
        <pt x="860" y="829" on="1"/>
        <pt x="860" y="823" on="1"/>
        <pt x="1235" y="779" on="0"/>
        <pt x="1235" y="422" on="1"/>
        <pt x="1235" y="210" on="0"/>
        <pt x="971" y="-20" on="0"/>
        <pt x="739" y="-20" on="1"/>
        <pt x="535" y="-20" on="0"/>
        <pt x="403" y="45" on="1"/>
        <pt x="403" y="-492" on="1"/>
        <pt x="168" y="-492" on="1"/>
        <pt x="168" y="1096" on="1"/>
        <pt x="168" y="1321" on="0"/>
        <pt x="435" y="1567" on="0"/>
      </contour>
      <contour>
        <pt x="672" y="1378" on="1"/>
        <pt x="403" y="1378" on="0"/>
        <pt x="403" y="1077" on="1"/>
        <pt x="403" y="248" on="1"/>
        <pt x="541" y="170" on="0"/>
        <pt x="696" y="170" on="1"/>
        <pt x="995" y="170" on="0"/>
        <pt x="995" y="440" on="1"/>
        <pt x="995" y="572" on="0"/>
        <pt x="834" y="715" on="0"/>
        <pt x="682" y="715" on="1"/>
        <pt x="590" y="715" on="1"/>
        <pt x="590" y="905" on="1"/>
        <pt x="662" y="905" on="1"/>
        <pt x="790" y="905" on="0"/>
        <pt x="926" y="1034" on="0"/>
        <pt x="926" y="1153" on="1"/>
        <pt x="926" y="1262" on="0"/>
        <pt x="791" y="1378" on="0"/>
      </contour>
    </TTGlyph>
    <TTGlyph name="braceleft" xMin="45" yMin="-324" xMax="745" yMax="1462">
      <contour>
        <pt x="311" y="287" on="1"/>
        <pt x="311" y="473" on="0"/>
        <pt x="45" y="473" on="1"/>
        <pt x="45" y="664" on="1"/>
        <pt x="180" y="664" on="0"/>
        <pt x="311" y="755" on="0"/>
        <pt x="311" y="848" on="1"/>
        <pt x="311" y="1159" on="1"/>
        <pt x="311" y="1315" on="0"/>
        <pt x="528" y="1462" on="0"/>
        <pt x="745" y="1462" on="1"/>
        <pt x="745" y="1280" on="1"/>
        <pt x="631" y="1275" on="0"/>
        <pt x="528" y="1192" on="0"/>
        <pt x="528" y="1110" on="1"/>
        <pt x="528" y="813" on="1"/>
        <pt x="528" y="614" on="0"/>
        <pt x="299" y="575" on="1"/>
        <pt x="299" y="563" on="1"/>
        <pt x="528" y="527" on="0"/>
        <pt x="528" y="326" on="1"/>
        <pt x="528" y="27" on="1"/>
        <pt x="528" y="-55" on="0"/>
        <pt x="630" y="-139" on="0"/>
        <pt x="745" y="-141" on="1"/>
        <pt x="745" y="-324" on="1"/>
        <pt x="514" y="-322" on="0"/>
        <pt x="311" y="-169" on="0"/>
        <pt x="311" y="2" on="1"/>
      </contour>
    </TTGlyph>
    <TTGlyph name="braceright" xMin="45" yMin="-324" xMax="715" yMax="1462">
      <contour>
        <pt x="463" y="-20" on="1"/>
        <pt x="463" y="-176" on="0"/>
        <pt x="264" y="-322" on="0"/>
        <pt x="45" y="-324" on="1"/>
        <pt x="45" y="-141" on="1"/>
        <pt x="140" y="-140" on="0"/>
        <pt x="246" y="-65" on="0"/>
        <pt x="246" y="27" on="1"/>
        <pt x="246" y="289" on="1"/>
        <pt x="246" y="410" on="0"/>
        <pt x="352" y="542" on="0"/>
        <pt x="475" y="563" on="1"/>
        <pt x="475" y="575" on="1"/>
        <pt x="246" y="614" on="0"/>
        <pt x="246" y="813" on="1"/>
        <pt x="246" y="1110" on="1"/>
        <pt x="246" y="1192" on="0"/>
        <pt x="155" y="1275" on="0"/>
        <pt x="45" y="1280" on="1"/>
        <pt x="45" y="1462" on="1"/>
        <pt x="268" y="1462" on="0"/>
        <pt x="463" y="1309" on="0"/>
        <pt x="463" y="1135" on="1"/>
        <pt x="463" y="848" on="1"/>
        <pt x="463" y="748" on="0"/>
        <pt x="590" y="664" on="0"/>
        <pt x="715" y="664" on="1"/>
        <pt x="715" y="473" on="1"/>
        <pt x="592" y="473" on="0"/>
        <pt x="463" y="388" on="0"/>
        <pt x="463" y="287" on="1"/>
      </contour>
    </TTGlyph>
    <TTGlyph name="bracketleft" xMin="154" yMin="-324" xMax="625" yMax="1462">
      <contour>
        <pt x="625" y="-324" on="1"/>
        <pt x="154" y="-324" on="1"/>
        <pt x="154" y="1462" on="1"/>
        <pt x="625" y="1462" on="1"/>
        <pt x="625" y="1286" on="1"/>
        <pt x="369" y="1286" on="1"/>
        <pt x="369" y="-147" on="1"/>
        <pt x="625" y="-147" on="1"/>
      </contour>
    </TTGlyph>
    <TTGlyph name="bracketright" xMin="51" yMin="-324" xMax="520" yMax="1462">
      <contour>
        <pt x="51" y="-147" on="1"/>
        <pt x="307" y="-147" on="1"/>
        <pt x="307" y="1286" on="1"/>
        <pt x="51" y="1286" on="1"/>
        <pt x="51" y="1462" on="1"/>
        <pt x="520" y="1462" on="1"/>
        <pt x="520" y="-324" on="1"/>
        <pt x="51" y="-324" on="1"/>
      </contour>
    </TTGlyph>
    <TTGlyph name="breve" xMin="260" yMin="1241" xMax="963" yMax="1544">
      <contour>
        <pt x="606" y="1241" on="1"/>
        <pt x="449" y="1241" on="0"/>
        <pt x="268" y="1400" on="0"/>
        <pt x="260" y="1544" on="1"/>
        <pt x="397" y="1544" on="1"/>
        <pt x="402" y="1496" on="0"/>
        <pt x="446" y="1439" on="0"/>
        <pt x="527" y="1415" on="0"/>
        <pt x="610" y="1415" on="1"/>
        <pt x="715" y="1415" on="0"/>
        <pt x="816" y="1481" on="0"/>
        <pt x="823" y="1544" on="1"/>
        <pt x="963" y="1544" on="1"/>
        <pt x="951" y="1403" on="0"/>
        <pt x="759" y="1241" on="0"/>
      </contour>
    </TTGlyph>
    <TTGlyph name="breveacutecomb" xMin="-940" yMin="1241" xMax="-283" yMax="1729">
      <contour>
        <pt x="-694" y="1526" on="1"/>
        <pt x="-620" y="1627" on="0"/>
        <pt x="-571" y="1729" on="1"/>
        <pt x="-375" y="1729" on="1"/>
        <pt x="-375" y="1708" on="1"/>
        <pt x="-465" y="1592" on="0"/>
        <pt x="-580" y="1501" on="1"/>
        <pt x="-694" y="1501" on="1"/>
      </contour>
      <contour>
        <pt x="-614" y="1241" on="1"/>
        <pt x="-765" y="1241" on="0"/>
        <pt x="-932" y="1393" on="0"/>
        <pt x="-940" y="1540" on="1"/>
        <pt x="-813" y="1540" on="1"/>
        <pt x="-806" y="1464" on="0"/>
        <pt x="-713" y="1391" on="0"/>
        <pt x="-612" y="1391" on="1"/>
        <pt x="-525" y="1391" on="0"/>
        <pt x="-421" y="1466" on="0"/>
        <pt x="-412" y="1540" on="1"/>
        <pt x="-283" y="1540" on="1"/>
        <pt x="-293" y="1398" on="0"/>
        <pt x="-468" y="1241" on="0"/>
      </contour>
    </TTGlyph>
    <TTGlyph name="brevegravecomb" xMin="-940" yMin="1241" xMax="-283" yMax="1729">
      <contour>
        <pt x="-537" y="1501" on="1"/>
        <pt x="-649" y="1501" on="1"/>
        <pt x="-764" y="1592" on="0"/>
        <pt x="-854" y="1708" on="1"/>
        <pt x="-854" y="1729" on="1"/>
        <pt x="-657" y="1729" on="1"/>
        <pt x="-608" y="1622" on="0"/>
        <pt x="-537" y="1526" on="1"/>
      </contour>
      <contour>
        <pt x="-610" y="1241" on="1"/>
        <pt x="-761" y="1241" on="0"/>
        <pt x="-931" y="1398" on="0"/>
        <pt x="-940" y="1540" on="1"/>
        <pt x="-811" y="1540" on="1"/>
        <pt x="-796" y="1391" on="0"/>
        <pt x="-610" y="1391" on="1"/>
        <pt x="-428" y="1391" on="0"/>
        <pt x="-410" y="1540" on="1"/>
        <pt x="-283" y="1540" on="1"/>
        <pt x="-294" y="1392" on="0"/>
        <pt x="-461" y="1241" on="0"/>
      </contour>
    </TTGlyph>
    <TTGlyph name="brevehookcomb" xMin="-940" yMin="1241" xMax="-283" yMax="1798">
      <contour>
        <pt x="-463" y="1659" on="1"/>
        <pt x="-463" y="1557" on="0"/>
        <pt x="-580" y="1528" on="1"/>
        <pt x="-586" y="1487" on="1"/>
        <pt x="-680" y="1487" on="1"/>
        <pt x="-690" y="1587" on="1"/>
        <pt x="-633" y="1596" on="0"/>
        <pt x="-584" y="1626" on="0"/>
        <pt x="-584" y="1655" on="1"/>
        <pt x="-584" y="1706" on="0"/>
        <pt x="-664" y="1706" on="1"/>
        <pt x="-705" y="1706" on="0"/>
        <pt x="-741" y="1700" on="1"/>
        <pt x="-741" y="1790" on="1"/>
        <pt x="-722" y="1798" on="0"/>
        <pt x="-653" y="1798" on="1"/>
        <pt x="-564" y="1798" on="0"/>
        <pt x="-463" y="1730" on="0"/>
      </contour>
      <contour>
        <pt x="-610" y="1241" on="1"/>
        <pt x="-761" y="1241" on="0"/>
        <pt x="-931" y="1398" on="0"/>
        <pt x="-940" y="1540" on="1"/>
        <pt x="-811" y="1540" on="1"/>
        <pt x="-796" y="1391" on="0"/>
        <pt x="-610" y="1391" on="1"/>
        <pt x="-428" y="1391" on="0"/>
        <pt x="-410" y="1540" on="1"/>
        <pt x="-283" y="1540" on="1"/>
        <pt x="-294" y="1392" on="0"/>
        <pt x="-461" y="1241" on="0"/>
      </contour>
    </TTGlyph>
    <TTGlyph name="brevetildecomb" xMin="-940" yMin="1241" xMax="-270" yMax="1806">
      <contour>
        <pt x="-463" y="1587" on="1"/>
        <pt x="-499" y="1587" on="0"/>
        <pt x="-572" y="1614" on="0"/>
        <pt x="-641" y="1647" on="0"/>
        <pt x="-707" y="1675" on="0"/>
        <pt x="-735" y="1675" on="1"/>
        <pt x="-775" y="1675" on="0"/>
        <pt x="-817" y="1635" on="0"/>
        <pt x="-831" y="1585" on="1"/>
        <pt x="-932" y="1585" on="1"/>
        <pt x="-924" y="1683" on="0"/>
        <pt x="-823" y="1804" on="0"/>
        <pt x="-739" y="1804" on="1"/>
        <pt x="-702" y="1804" on="0"/>
        <pt x="-627" y="1776" on="0"/>
        <pt x="-557" y="1742" on="0"/>
        <pt x="-493" y="1714" on="0"/>
        <pt x="-467" y="1714" on="1"/>
        <pt x="-427" y="1714" on="0"/>
        <pt x="-385" y="1757" on="0"/>
        <pt x="-371" y="1806" on="1"/>
        <pt x="-270" y="1806" on="1"/>
        <pt x="-281" y="1702" on="0"/>
        <pt x="-382" y="1587" on="0"/>
      </contour>
      <contour>
        <pt x="-610" y="1241" on="1"/>
        <pt x="-763" y="1241" on="0"/>
        <pt x="-932" y="1389" on="0"/>
        <pt x="-940" y="1520" on="1"/>
        <pt x="-811" y="1520" on="1"/>
        <pt x="-804" y="1453" on="0"/>
        <pt x="-712" y="1391" on="0"/>
        <pt x="-610" y="1391" on="1"/>
        <pt x="-511" y="1391" on="0"/>
        <pt x="-419" y="1453" on="0"/>
        <pt x="-410" y="1520" on="1"/>
        <pt x="-283" y="1520" on="1"/>
        <pt x="-294" y="1382" on="0"/>
        <pt x="-462" y="1241" on="0"/>
      </contour>
    </TTGlyph>
    <TTGlyph name="brokenbar" xMin="473" yMin="-481" xMax="653" yMax="1552">
      <contour>
        <pt x="473" y="1552" on="1"/>
        <pt x="653" y="1552" on="1"/>
        <pt x="653" y="758" on="1"/>
        <pt x="473" y="758" on="1"/>
      </contour>
      <contour>
        <pt x="473" y="315" on="1"/>
        <pt x="653" y="315" on="1"/>
        <pt x="653" y="-481" on="1"/>
        <pt x="473" y="-481" on="1"/>
      </contour>
    </TTGlyph>
    <TTGlyph name="bullet" xMin="131" yMin="465" xMax="639" yMax="1030">
      <contour>
        <pt x="131" y="748" on="1"/>
        <pt x="131" y="886" on="0"/>
        <pt x="263" y="1030" on="0"/>
        <pt x="385" y="1030" on="1"/>
        <pt x="506" y="1030" on="0"/>
        <pt x="639" y="885" on="0"/>
        <pt x="639" y="748" on="1"/>
        <pt x="639" y="613" on="0"/>
        <pt x="505" y="465" on="0"/>
        <pt x="385" y="465" on="1"/>
        <pt x="265" y="465" on="0"/>
        <pt x="131" y="610" on="0"/>
      </contour>
    </TTGlyph>
    <TTGlyph name="c" xMin="102" yMin="-20" xMax="948" yMax="1126">
      <contour>
        <pt x="614" y="-20" on="1"/>
        <pt x="363" y="-20" on="0"/>
        <pt x="102" y="273" on="0"/>
        <pt x="102" y="547" on="1"/>
        <pt x="102" y="826" on="0"/>
        <pt x="375" y="1126" on="0"/>
        <pt x="633" y="1126" on="1"/>
        <pt x="808" y="1126" on="0"/>
        <pt x="948" y="1061" on="1"/>
        <pt x="877" y="872" on="1"/>
        <pt x="728" y="930" on="0"/>
        <pt x="631" y="930" on="1"/>
        <pt x="344" y="930" on="0"/>
        <pt x="344" y="549" on="1"/>
        <pt x="344" y="363" on="0"/>
        <pt x="487" y="176" on="0"/>
        <pt x="625" y="176" on="1"/>
        <pt x="782" y="176" on="0"/>
        <pt x="922" y="254" on="1"/>
        <pt x="922" y="49" on="1"/>
        <pt x="859" y="12" on="0"/>
        <pt x="716" y="-20" on="0"/>
      </contour>
    </TTGlyph>
    <TTGlyph name="cacute" xMin="102" yMin="-20" xMax="948" yMax="1569">
      <component glyphName="c" x="0" y="0" flags="0x204"/>
      <component glyphName="acute" x="88" y="0" flags="0x4"/>
    </TTGlyph>
    <TTGlyph name="caron" xMin="227" yMin="1241" xMax="997" yMax="1569">
      <contour>
        <pt x="997" y="1569" on="1"/>
        <pt x="997" y="1542" on="1"/>
        <pt x="871" y="1411" on="0"/>
        <pt x="768" y="1287" on="0"/>
        <pt x="741" y="1241" on="1"/>
        <pt x="481" y="1241" on="1"/>
        <pt x="416" y="1346" on="0"/>
        <pt x="227" y="1542" on="1"/>
        <pt x="227" y="1569" on="1"/>
        <pt x="385" y="1569" on="1"/>
        <pt x="523" y="1479" on="0"/>
        <pt x="610" y="1386" on="1"/>
        <pt x="707" y="1486" on="0"/>
        <pt x="838" y="1569" on="1"/>
      </contour>
    </TTGlyph>
    <TTGlyph name="caroncommaaccent" xMin="371" yMin="1229" xMax="662" yMax="1556">
      <contour>
        <pt x="371" y="1253" on="1"/>
        <pt x="418" y="1411" on="0"/>
        <pt x="436" y="1556" on="1"/>
        <pt x="662" y="1556" on="1"/>
        <pt x="662" y="1536" on="1"/>
        <pt x="639" y="1474" on="0"/>
        <pt x="549" y="1295" on="0"/>
        <pt x="506" y="1229" on="1"/>
        <pt x="371" y="1229" on="1"/>
      </contour>
    </TTGlyph>
    <TTGlyph name="ccaron" xMin="102" yMin="-20" xMax="992" yMax="1569">
      <component glyphName="c" x="0" y="0" flags="0x204"/>
      <component glyphName="caron" x="-5" y="0" flags="0x4"/>
    </TTGlyph>
    <TTGlyph name="ccedilla" xMin="102" yMin="-492" xMax="948" yMax="1126">
      <component glyphName="c" x="0" y="0" flags="0x204"/>
      <component glyphName="cedilla" x="356" y="0" flags="0x4"/>
    </TTGlyph>
    <TTGlyph name="ccircumflex" xMin="102" yMin="-20" xMax="967" yMax="1569">
      <component glyphName="c" x="0" y="0" flags="0x204"/>
      <component glyphName="circumflex" x="-30" y="0" flags="0x4"/>
    </TTGlyph>
    <TTGlyph name="cdot" xMin="102" yMin="-20" xMax="948" yMax="1530">
      <component glyphName="c" x="0" y="0" flags="0x204"/>
      <component glyphName="dotaccent" x="326" y="0" flags="0x4"/>
    </TTGlyph>
    <TTGlyph name="cedilla" xMin="0" yMin="-492" xMax="426" yMax="0">
      <contour>
        <pt x="426" y="-270" on="1"/>
        <pt x="426" y="-492" on="0"/>
        <pt x="121" y="-492" on="1"/>
        <pt x="55" y="-492" on="0"/>
        <pt x="0" y="-477" on="1"/>
        <pt x="0" y="-340" on="1"/>
        <pt x="54" y="-354" on="0"/>
        <pt x="123" y="-354" on="1"/>
        <pt x="177" y="-354" on="0"/>
        <pt x="240" y="-321" on="0"/>
        <pt x="240" y="-276" on="1"/>
        <pt x="240" y="-191" on="0"/>
        <pt x="61" y="-166" on="1"/>
        <pt x="145" y="0" on="1"/>
        <pt x="297" y="0" on="1"/>
        <pt x="256" y="-88" on="1"/>
        <pt x="336" y="-109" on="0"/>
        <pt x="426" y="-204" on="0"/>
      </contour>
    </TTGlyph>
    <TTGlyph name="cent" xMin="166" yMin="-20" xMax="1014" yMax="1483">
      <contour>
        <pt x="987" y="238" on="1"/>
        <pt x="868" y="179" on="0"/>
        <pt x="729" y="174" on="1"/>
        <pt x="729" y="-20" on="1"/>
        <pt x="573" y="-20" on="1"/>
        <pt x="573" y="180" on="1"/>
        <pt x="366" y="211" on="0"/>
        <pt x="166" y="491" on="0"/>
        <pt x="166" y="741" on="1"/>
        <pt x="166" y="995" on="0"/>
        <pt x="367" y="1281" on="0"/>
        <pt x="573" y="1313" on="1"/>
        <pt x="573" y="1483" on="1"/>
        <pt x="731" y="1483" on="1"/>
        <pt x="731" y="1321" on="1"/>
        <pt x="883" y="1316" on="0"/>
        <pt x="1014" y="1255" on="1"/>
        <pt x="944" y="1067" on="1"/>
        <pt x="798" y="1126" on="0"/>
        <pt x="694" y="1126" on="1"/>
        <pt x="548" y="1126" on="0"/>
        <pt x="408" y="936" on="0"/>
        <pt x="408" y="743" on="1"/>
        <pt x="408" y="549" on="0"/>
        <pt x="552" y="371" on="0"/>
        <pt x="690" y="371" on="1"/>
        <pt x="765" y="371" on="0"/>
        <pt x="900" y="401" on="0"/>
        <pt x="987" y="438" on="1"/>
      </contour>
    </TTGlyph>
    <TTGlyph name="chi" xMin="-35" yMin="-492" xMax="1163" yMax="1116">
      <contour>
        <pt x="209" y="1116" on="1"/>
        <pt x="280" y="1116" on="0"/>
        <pt x="375" y="1070" on="0"/>
        <pt x="445" y="973" on="0"/>
        <pt x="489" y="850" on="1"/>
        <pt x="600" y="555" on="1"/>
        <pt x="897" y="1106" on="1"/>
        <pt x="1141" y="1106" on="1"/>
        <pt x="700" y="340" on="1"/>
        <pt x="893" y="-139" on="1"/>
        <pt x="928" y="-227" on="0"/>
        <pt x="1005" y="-297" on="0"/>
        <pt x="1069" y="-297" on="1"/>
        <pt x="1113" y="-297" on="0"/>
        <pt x="1163" y="-287" on="1"/>
        <pt x="1163" y="-469" on="1"/>
        <pt x="1098" y="-492" on="0"/>
        <pt x="1008" y="-492" on="1"/>
        <pt x="886" y="-492" on="0"/>
        <pt x="737" y="-366" on="0"/>
        <pt x="682" y="-207" on="1"/>
        <pt x="555" y="150" on="1"/>
        <pt x="217" y="-492" on="1"/>
        <pt x="-35" y="-492" on="1"/>
        <pt x="449" y="369" on="1"/>
        <pt x="295" y="766" on="1"/>
        <pt x="266" y="846" on="0"/>
        <pt x="194" y="922" on="0"/>
        <pt x="143" y="922" on="1"/>
        <pt x="98" y="922" on="0"/>
        <pt x="55" y="907" on="1"/>
        <pt x="55" y="1094" on="1"/>
        <pt x="131" y="1116" on="0"/>
      </contour>
    </TTGlyph>
    <TTGlyph name="circumflex" xMin="227" yMin="1241" xMax="997" yMax="1569">
      <contour>
        <pt x="838" y="1241" on="1"/>
        <pt x="715" y="1314" on="0"/>
        <pt x="610" y="1421" on="1"/>
        <pt x="507" y="1318" on="0"/>
        <pt x="385" y="1241" on="1"/>
        <pt x="227" y="1241" on="1"/>
        <pt x="227" y="1266" on="1"/>
        <pt x="418" y="1464" on="0"/>
        <pt x="481" y="1569" on="1"/>
        <pt x="741" y="1569" on="1"/>
        <pt x="804" y="1459" on="0"/>
        <pt x="997" y="1266" on="1"/>
        <pt x="997" y="1241" on="1"/>
      </contour>
    </TTGlyph>
    <TTGlyph name="circumflexacutecomb" xMin="-946" yMin="1241" xMax="-12" yMax="1663">
      <contour>
        <pt x="-268" y="1241" on="1"/>
        <pt x="-395" y="1241" on="1"/>
        <pt x="-507" y="1316" on="0"/>
        <pt x="-606" y="1407" on="1"/>
        <pt x="-720" y="1306" on="0"/>
        <pt x="-817" y="1241" on="1"/>
        <pt x="-946" y="1241" on="1"/>
        <pt x="-946" y="1266" on="1"/>
        <pt x="-790" y="1447" on="0"/>
        <pt x="-729" y="1536" on="1"/>
        <pt x="-483" y="1536" on="1"/>
        <pt x="-395" y="1408" on="0"/>
        <pt x="-268" y="1266" on="1"/>
      </contour>
      <contour>
        <pt x="-352" y="1460" on="1"/>
        <pt x="-269" y="1559" on="0"/>
        <pt x="-219" y="1663" on="1"/>
        <pt x="-12" y="1663" on="1"/>
        <pt x="-12" y="1642" on="1"/>
        <pt x="-81" y="1550" on="0"/>
        <pt x="-227" y="1436" on="1"/>
        <pt x="-352" y="1436" on="1"/>
      </contour>
    </TTGlyph>
    <TTGlyph name="circumflexgravecomb" xMin="-1196" yMin="1241" xMax="-264" yMax="1663">
      <contour>
        <pt x="-942" y="1266" on="1"/>
        <pt x="-830" y="1396" on="0"/>
        <pt x="-753" y="1495" on="0"/>
        <pt x="-725" y="1536" on="1"/>
        <pt x="-479" y="1536" on="1"/>
        <pt x="-391" y="1408" on="0"/>
        <pt x="-264" y="1266" on="1"/>
        <pt x="-264" y="1241" on="1"/>
        <pt x="-391" y="1241" on="1"/>
        <pt x="-488" y="1306" on="0"/>
        <pt x="-602" y="1407" on="1"/>
        <pt x="-708" y="1311" on="0"/>
        <pt x="-813" y="1241" on="1"/>
        <pt x="-942" y="1241" on="1"/>
      </contour>
      <contour>
        <pt x="-858" y="1436" on="1"/>
        <pt x="-981" y="1436" on="1"/>
        <pt x="-1120" y="1541" on="0"/>
        <pt x="-1196" y="1642" on="1"/>
        <pt x="-1196" y="1663" on="1"/>
        <pt x="-989" y="1663" on="1"/>
        <pt x="-936" y="1553" on="0"/>
        <pt x="-858" y="1460" on="1"/>
      </contour>
    </TTGlyph>
    <TTGlyph name="circumflexhookcomb" xMin="-946" yMin="1241" xMax="-84" yMax="1784">
      <contour>
        <pt x="-268" y="1241" on="1"/>
        <pt x="-395" y="1241" on="1"/>
        <pt x="-507" y="1316" on="0"/>
        <pt x="-606" y="1407" on="1"/>
        <pt x="-720" y="1306" on="0"/>
        <pt x="-817" y="1241" on="1"/>
        <pt x="-946" y="1241" on="1"/>
        <pt x="-946" y="1266" on="1"/>
        <pt x="-790" y="1447" on="0"/>
        <pt x="-729" y="1536" on="1"/>
        <pt x="-483" y="1536" on="1"/>
        <pt x="-395" y="1408" on="0"/>
        <pt x="-268" y="1266" on="1"/>
      </contour>
      <contour>
        <pt x="-84" y="1638" on="1"/>
        <pt x="-84" y="1530" on="0"/>
        <pt x="-209" y="1503" on="1"/>
        <pt x="-215" y="1432" on="1"/>
        <pt x="-319" y="1432" on="1"/>
        <pt x="-330" y="1554" on="1"/>
        <pt x="-265" y="1561" on="0"/>
        <pt x="-209" y="1595" on="0"/>
        <pt x="-209" y="1626" on="1"/>
        <pt x="-209" y="1681" on="0"/>
        <pt x="-299" y="1681" on="1"/>
        <pt x="-336" y="1681" on="0"/>
        <pt x="-371" y="1673" on="1"/>
        <pt x="-371" y="1778" on="1"/>
        <pt x="-346" y="1784" on="0"/>
        <pt x="-285" y="1784" on="1"/>
        <pt x="-84" y="1784" on="0"/>
      </contour>
    </TTGlyph>
    <TTGlyph name="circumflextildecomb" xMin="-942" yMin="1241" xMax="-264" yMax="1808">
      <contour>
        <pt x="-463" y="1577" on="1"/>
        <pt x="-499" y="1577" on="0"/>
        <pt x="-572" y="1604" on="0"/>
        <pt x="-641" y="1637" on="0"/>
        <pt x="-707" y="1665" on="0"/>
        <pt x="-735" y="1665" on="1"/>
        <pt x="-775" y="1665" on="0"/>
        <pt x="-817" y="1624" on="0"/>
        <pt x="-831" y="1575" on="1"/>
        <pt x="-932" y="1575" on="1"/>
        <pt x="-924" y="1678" on="0"/>
        <pt x="-821" y="1806" on="0"/>
        <pt x="-739" y="1806" on="1"/>
        <pt x="-702" y="1806" on="0"/>
        <pt x="-627" y="1778" on="0"/>
        <pt x="-557" y="1744" on="0"/>
        <pt x="-493" y="1716" on="0"/>
        <pt x="-467" y="1716" on="1"/>
        <pt x="-427" y="1716" on="0"/>
        <pt x="-385" y="1759" on="0"/>
        <pt x="-371" y="1808" on="1"/>
        <pt x="-270" y="1808" on="1"/>
        <pt x="-281" y="1700" on="0"/>
        <pt x="-384" y="1577" on="0"/>
      </contour>
      <contour>
        <pt x="-264" y="1241" on="1"/>
        <pt x="-381" y="1241" on="1"/>
        <pt x="-503" y="1310" on="0"/>
        <pt x="-602" y="1399" on="1"/>
        <pt x="-693" y="1318" on="0"/>
        <pt x="-823" y="1241" on="1"/>
        <pt x="-942" y="1241" on="1"/>
        <pt x="-942" y="1266" on="1"/>
        <pt x="-773" y="1441" on="0"/>
        <pt x="-715" y="1526" on="1"/>
        <pt x="-489" y="1526" on="1"/>
        <pt x="-422" y="1430" on="0"/>
        <pt x="-264" y="1266" on="1"/>
      </contour>
    </TTGlyph>
    <TTGlyph name="colon" xMin="133" yMin="-29" xMax="430" yMax="1130">
      <contour>
        <pt x="133" y="125" on="1"/>
        <pt x="133" y="198" on="0"/>
        <pt x="209" y="276" on="0"/>
        <pt x="281" y="276" on="1"/>
        <pt x="354" y="276" on="0"/>
        <pt x="430" y="195" on="0"/>
        <pt x="430" y="125" on="1"/>
        <pt x="430" y="54" on="0"/>
        <pt x="353" y="-29" on="0"/>
        <pt x="281" y="-29" on="1"/>
        <pt x="209" y="-29" on="0"/>
        <pt x="133" y="53" on="0"/>
      </contour>
      <contour>
        <pt x="133" y="979" on="1"/>
        <pt x="133" y="1130" on="0"/>
        <pt x="281" y="1130" on="1"/>
        <pt x="356" y="1130" on="0"/>
        <pt x="430" y="1050" on="0"/>
        <pt x="430" y="979" on="1"/>
        <pt x="430" y="908" on="0"/>
        <pt x="353" y="825" on="0"/>
        <pt x="281" y="825" on="1"/>
        <pt x="209" y="825" on="0"/>
        <pt x="133" y="907" on="0"/>
      </contour>
    </TTGlyph>
    <TTGlyph name="comma" xMin="63" yMin="-264" xMax="412" yMax="238">
      <contour>
        <pt x="412" y="215" on="1"/>
        <pt x="364" y="29" on="0"/>
        <pt x="236" y="-264" on="1"/>
        <pt x="63" y="-264" on="1"/>
        <pt x="132" y="6" on="0"/>
        <pt x="166" y="238" on="1"/>
        <pt x="397" y="238" on="1"/>
      </contour>
    </TTGlyph>
    <TTGlyph name="commaaccent" xMin="358" yMin="-453" xMax="657" yMax="-125">
      <contour>
        <pt x="358" y="-428" on="1"/>
        <pt x="381" y="-364" on="0"/>
        <pt x="424" y="-191" on="0"/>
        <pt x="432" y="-125" on="1"/>
        <pt x="657" y="-125" on="1"/>
        <pt x="657" y="-145" on="1"/>
        <pt x="628" y="-225" on="0"/>
        <pt x="536" y="-397" on="0"/>
        <pt x="494" y="-453" on="1"/>
        <pt x="358" y="-453" on="1"/>
      </contour>
    </TTGlyph>
    <TTGlyph name="commaaccentrotate" xMin="358" yMin="1241" xMax="657" yMax="1569">
      <contour>
        <pt x="657" y="1542" on="1"/>
        <pt x="638" y="1489" on="0"/>
        <pt x="593" y="1312" on="0"/>
        <pt x="584" y="1241" on="1"/>
        <pt x="358" y="1241" on="1"/>
        <pt x="358" y="1260" on="1"/>
        <pt x="386" y="1337" on="0"/>
        <pt x="479" y="1510" on="0"/>
        <pt x="522" y="1569" on="1"/>
        <pt x="657" y="1569" on="1"/>
      </contour>
    </TTGlyph>
    <TTGlyph name="copyright" xMin="100" yMin="-20" xMax="1604" yMax="1483">
      <contour>
        <pt x="893" y="1034" on="1"/>
        <pt x="782" y="1034" on="0"/>
        <pt x="662" y="873" on="0"/>
        <pt x="662" y="731" on="1"/>
        <pt x="662" y="584" on="0"/>
        <pt x="770" y="426" on="0"/>
        <pt x="893" y="426" on="1"/>
        <pt x="948" y="426" on="0"/>
        <pt x="1074" y="456" on="0"/>
        <pt x="1120" y="477" on="1"/>
        <pt x="1120" y="319" on="1"/>
        <pt x="1005" y="268" on="0"/>
        <pt x="885" y="268" on="1"/>
        <pt x="688" y="268" on="0"/>
        <pt x="471" y="509" on="0"/>
        <pt x="471" y="731" on="1"/>
        <pt x="471" y="945" on="0"/>
        <pt x="691" y="1192" on="0"/>
        <pt x="887" y="1192" on="1"/>
        <pt x="1025" y="1192" on="0"/>
        <pt x="1161" y="1122" on="1"/>
        <pt x="1096" y="979" on="1"/>
        <pt x="990" y="1034" on="0"/>
      </contour>
      <contour>
        <pt x="100" y="731" on="1"/>
        <pt x="100" y="931" on="0"/>
        <pt x="300" y="1281" on="0"/>
        <pt x="650" y="1483" on="0"/>
        <pt x="852" y="1483" on="1"/>
        <pt x="1052" y="1483" on="0"/>
        <pt x="1402" y="1283" on="0"/>
        <pt x="1604" y="933" on="0"/>
        <pt x="1604" y="731" on="1"/>
        <pt x="1604" y="534" on="0"/>
        <pt x="1410" y="188" on="0"/>
        <pt x="1060" y="-20" on="0"/>
        <pt x="852" y="-20" on="1"/>
        <pt x="645" y="-20" on="0"/>
        <pt x="295" y="187" on="0"/>
        <pt x="100" y="533" on="0"/>
      </contour>
      <contour>
        <pt x="223" y="731" on="1"/>
        <pt x="223" y="561" on="0"/>
        <pt x="392" y="270" on="0"/>
        <pt x="684" y="102" on="0"/>
        <pt x="852" y="102" on="1"/>
        <pt x="1022" y="102" on="0"/>
        <pt x="1314" y="273" on="0"/>
        <pt x="1481" y="562" on="0"/>
        <pt x="1481" y="731" on="1"/>
        <pt x="1481" y="899" on="0"/>
        <pt x="1312" y="1192" on="0"/>
        <pt x="1019" y="1360" on="0"/>
        <pt x="852" y="1360" on="1"/>
        <pt x="684" y="1360" on="0"/>
        <pt x="395" y="1194" on="0"/>
        <pt x="223" y="902" on="0"/>
      </contour>
    </TTGlyph>
    <TTGlyph name="currency" xMin="117" yMin="258" xMax="1051" yMax="1188">
      <contour>
        <pt x="186" y="723" on="1"/>
        <pt x="186" y="832" on="0"/>
        <pt x="250" y="936" on="1"/>
        <pt x="117" y="1069" on="1"/>
        <pt x="238" y="1188" on="1"/>
        <pt x="369" y="1059" on="1"/>
        <pt x="469" y="1122" on="0"/>
        <pt x="584" y="1122" on="1"/>
        <pt x="699" y="1122" on="0"/>
        <pt x="797" y="1057" on="1"/>
        <pt x="930" y="1188" on="1"/>
        <pt x="1051" y="1071" on="1"/>
        <pt x="920" y="938" on="1"/>
        <pt x="983" y="838" on="0"/>
        <pt x="983" y="723" on="1"/>
        <pt x="983" y="604" on="0"/>
        <pt x="920" y="506" on="1"/>
        <pt x="1049" y="377" on="1"/>
        <pt x="930" y="258" on="1"/>
        <pt x="797" y="387" on="1"/>
        <pt x="698" y="326" on="0"/>
        <pt x="584" y="326" on="1"/>
        <pt x="458" y="326" on="0"/>
        <pt x="369" y="387" on="1"/>
        <pt x="238" y="260" on="1"/>
        <pt x="119" y="379" on="1"/>
        <pt x="250" y="508" on="1"/>
        <pt x="186" y="607" on="0"/>
      </contour>
      <contour>
        <pt x="354" y="723" on="1"/>
        <pt x="354" y="625" on="0"/>
        <pt x="490" y="492" on="0"/>
        <pt x="584" y="492" on="1"/>
        <pt x="681" y="492" on="0"/>
        <pt x="817" y="625" on="0"/>
        <pt x="817" y="723" on="1"/>
        <pt x="817" y="820" on="0"/>
        <pt x="681" y="956" on="0"/>
        <pt x="584" y="956" on="1"/>
        <pt x="491" y="956" on="0"/>
        <pt x="354" y="820" on="0"/>
      </contour>
    </TTGlyph>
    <TTGlyph name="cyrillicbighookLC" xMin="20" yMin="-444" xMax="461" yMax="203">
      <contour>
        <pt x="170" y="-444" on="1"/>
        <pt x="89" y="-444" on="0"/>
        <pt x="20" y="-420" on="1"/>
        <pt x="20" y="-231" on="1"/>
        <pt x="75" y="-250" on="0"/>
        <pt x="131" y="-250" on="1"/>
        <pt x="240" y="-250" on="0"/>
        <pt x="240" y="-115" on="1"/>
        <pt x="240" y="203" on="1"/>
        <pt x="461" y="203" on="1"/>
        <pt x="461" y="-129" on="1"/>
        <pt x="461" y="-283" on="0"/>
        <pt x="311" y="-444" on="0"/>
      </contour>
    </TTGlyph>
    <TTGlyph name="cyrillicbighookUC" xMin="20" yMin="-444" xMax="461" yMax="227">
      <contour>
        <pt x="170" y="-444" on="1"/>
        <pt x="89" y="-444" on="0"/>
        <pt x="20" y="-420" on="1"/>
        <pt x="20" y="-231" on="1"/>
        <pt x="75" y="-250" on="0"/>
        <pt x="131" y="-250" on="1"/>
        <pt x="240" y="-250" on="0"/>
        <pt x="240" y="-115" on="1"/>
        <pt x="240" y="227" on="1"/>
        <pt x="461" y="227" on="1"/>
        <pt x="461" y="-129" on="1"/>
        <pt x="461" y="-283" on="0"/>
        <pt x="311" y="-444" on="0"/>
      </contour>
    </TTGlyph>
    <TTGlyph name="cyrillicbreve" xMin="162" yMin="1241" xMax="1016" yMax="1573">
      <contour>
        <pt x="582" y="1241" on="1"/>
        <pt x="370" y="1241" on="0"/>
        <pt x="173" y="1394" on="0"/>
        <pt x="162" y="1573" on="1"/>
        <pt x="375" y="1573" on="1"/>
        <pt x="381" y="1501" on="0"/>
        <pt x="424" y="1421" on="0"/>
        <pt x="505" y="1386" on="0"/>
        <pt x="588" y="1386" on="1"/>
        <pt x="686" y="1386" on="0"/>
        <pt x="788" y="1473" on="0"/>
        <pt x="799" y="1573" on="1"/>
        <pt x="1016" y="1573" on="1"/>
        <pt x="1001" y="1401" on="0"/>
        <pt x="789" y="1241" on="0"/>
      </contour>
    </TTGlyph>
    <TTGlyph name="cyrillichookleft" xMin="29" yMin="-469" xMax="389" yMax="0">
      <contour>
        <pt x="213" y="-233" on="1"/>
        <pt x="213" y="-179" on="0"/>
        <pt x="139" y="-66" on="0"/>
        <pt x="70" y="0" on="1"/>
        <pt x="221" y="0" on="1"/>
        <pt x="293" y="-56" on="0"/>
        <pt x="355" y="-129" on="0"/>
        <pt x="389" y="-213" on="0"/>
        <pt x="389" y="-258" on="1"/>
        <pt x="389" y="-355" on="0"/>
        <pt x="268" y="-469" on="0"/>
        <pt x="164" y="-469" on="1"/>
        <pt x="94" y="-469" on="0"/>
        <pt x="29" y="-451" on="1"/>
        <pt x="29" y="-307" on="1"/>
        <pt x="83" y="-322" on="0"/>
        <pt x="129" y="-322" on="1"/>
        <pt x="166" y="-322" on="0"/>
        <pt x="213" y="-277" on="0"/>
      </contour>
    </TTGlyph>
    <TTGlyph name="d" xMin="102" yMin="-20" xMax="1108" yMax="1556">
      <contour>
        <pt x="541" y="-20" on="1"/>
        <pt x="334" y="-20" on="0"/>
        <pt x="102" y="280" on="0"/>
        <pt x="102" y="551" on="1"/>
        <pt x="102" y="823" on="0"/>
        <pt x="337" y="1126" on="0"/>
        <pt x="545" y="1126" on="1"/>
        <pt x="763" y="1126" on="0"/>
        <pt x="877" y="965" on="1"/>
        <pt x="889" y="965" on="1"/>
        <pt x="872" y="1084" on="0"/>
        <pt x="872" y="1153" on="1"/>
        <pt x="872" y="1556" on="1"/>
        <pt x="1108" y="1556" on="1"/>
        <pt x="1108" y="0" on="1"/>
        <pt x="924" y="0" on="1"/>
        <pt x="883" y="145" on="1"/>
        <pt x="872" y="145" on="1"/>
        <pt x="759" y="-20" on="0"/>
      </contour>
      <contour>
        <pt x="604" y="170" on="1"/>
        <pt x="749" y="170" on="0"/>
        <pt x="881" y="333" on="0"/>
        <pt x="883" y="516" on="1"/>
        <pt x="883" y="549" on="1"/>
        <pt x="883" y="758" on="0"/>
        <pt x="747" y="934" on="0"/>
        <pt x="602" y="934" on="1"/>
        <pt x="478" y="934" on="0"/>
        <pt x="344" y="733" on="0"/>
        <pt x="344" y="547" on="1"/>
        <pt x="344" y="363" on="0"/>
        <pt x="474" y="170" on="0"/>
      </contour>
    </TTGlyph>
    <TTGlyph name="dagger" xMin="123" yMin="0" xMax="920" yMax="1556">
      <contour>
        <pt x="920" y="963" on="1"/>
        <pt x="578" y="993" on="1"/>
        <pt x="629" y="0" on="1"/>
        <pt x="391" y="0" on="1"/>
        <pt x="444" y="993" on="1"/>
        <pt x="123" y="963" on="1"/>
        <pt x="123" y="1169" on="1"/>
        <pt x="444" y="1139" on="1"/>
        <pt x="391" y="1556" on="1"/>
        <pt x="629" y="1556" on="1"/>
        <pt x="578" y="1139" on="1"/>
        <pt x="920" y="1169" on="1"/>
      </contour>
    </TTGlyph>
    <TTGlyph name="daggerdbl" xMin="123" yMin="0" xMax="938" yMax="1556">
      <contour>
        <pt x="596" y="522" on="1"/>
        <pt x="938" y="553" on="1"/>
        <pt x="938" y="348" on="1"/>
        <pt x="596" y="377" on="1"/>
        <pt x="647" y="0" on="1"/>
        <pt x="410" y="0" on="1"/>
        <pt x="461" y="377" on="1"/>
        <pt x="123" y="348" on="1"/>
        <pt x="123" y="553" on="1"/>
        <pt x="461" y="522" on="1"/>
        <pt x="416" y="786" on="1"/>
        <pt x="461" y="1034" on="1"/>
        <pt x="123" y="1004" on="1"/>
        <pt x="123" y="1208" on="1"/>
        <pt x="461" y="1178" on="1"/>
        <pt x="410" y="1556" on="1"/>
        <pt x="647" y="1556" on="1"/>
        <pt x="596" y="1178" on="1"/>
        <pt x="938" y="1208" on="1"/>
        <pt x="938" y="1004" on="1"/>
        <pt x="596" y="1034" on="1"/>
        <pt x="641" y="786" on="1"/>
      </contour>
    </TTGlyph>
    <TTGlyph name="dasiaoxia" xMin="135" yMin="1128" xMax="764" yMax="1477">
      <contour>
        <pt x="449" y="1161" on="1"/>
        <pt x="516" y="1363" on="0"/>
        <pt x="539" y="1462" on="1"/>
        <pt x="764" y="1462" on="1"/>
        <pt x="764" y="1442" on="1"/>
        <pt x="703" y="1316" on="0"/>
        <pt x="557" y="1135" on="1"/>
        <pt x="449" y="1135" on="1"/>
      </contour>
      <contour>
        <pt x="135" y="1260" on="1"/>
        <pt x="135" y="1341" on="0"/>
        <pt x="275" y="1453" on="0"/>
        <pt x="401" y="1477" on="1"/>
        <pt x="401" y="1405" on="1"/>
        <pt x="335" y="1383" on="0"/>
        <pt x="270" y="1341" on="0"/>
        <pt x="270" y="1313" on="1"/>
        <pt x="270" y="1294" on="0"/>
        <pt x="304" y="1276" on="0"/>
        <pt x="345" y="1260" on="0"/>
        <pt x="379" y="1234" on="0"/>
        <pt x="379" y="1206" on="1"/>
        <pt x="379" y="1169" on="0"/>
        <pt x="322" y="1128" on="0"/>
        <pt x="268" y="1128" on="1"/>
        <pt x="208" y="1128" on="0"/>
        <pt x="135" y="1198" on="0"/>
      </contour>
    </TTGlyph>
    <TTGlyph name="dcaron" xMin="102" yMin="-20" xMax="1491" yMax="1556">
      <component glyphName="d" x="0" y="0" flags="0x204"/>
      <component glyphName="caroncommaaccent" x="829" y="0" flags="0x4"/>
    </TTGlyph>
    <TTGlyph name="dcroat" xMin="102" yMin="-20" xMax="1264" yMax="1556">
      <contour>
        <pt x="537" y="-20" on="1"/>
        <pt x="331" y="-20" on="0"/>
        <pt x="102" y="275" on="0"/>
        <pt x="102" y="535" on="1"/>
        <pt x="102" y="812" on="0"/>
        <pt x="323" y="1096" on="0"/>
        <pt x="541" y="1096" on="1"/>
        <pt x="763" y="1096" on="0"/>
        <pt x="877" y="934" on="1"/>
        <pt x="889" y="934" on="1"/>
        <pt x="886" y="944" on="0"/>
        <pt x="872" y="1082" on="0"/>
        <pt x="872" y="1126" on="1"/>
        <pt x="872" y="1219" on="1"/>
        <pt x="489" y="1219" on="1"/>
        <pt x="489" y="1382" on="1"/>
        <pt x="872" y="1382" on="1"/>
        <pt x="872" y="1556" on="1"/>
        <pt x="1108" y="1556" on="1"/>
        <pt x="1108" y="1382" on="1"/>
        <pt x="1264" y="1382" on="1"/>
        <pt x="1264" y="1219" on="1"/>
        <pt x="1108" y="1219" on="1"/>
        <pt x="1108" y="0" on="1"/>
        <pt x="915" y="0" on="1"/>
        <pt x="872" y="145" on="1"/>
        <pt x="862" y="145" on="1"/>
        <pt x="754" y="-20" on="0"/>
      </contour>
      <contour>
        <pt x="610" y="170" on="1"/>
        <pt x="752" y="170" on="0"/>
        <pt x="883" y="329" on="0"/>
        <pt x="883" y="502" on="1"/>
        <pt x="883" y="535" on="1"/>
        <pt x="883" y="739" on="0"/>
        <pt x="754" y="903" on="0"/>
        <pt x="602" y="903" on="1"/>
        <pt x="477" y="903" on="0"/>
        <pt x="354" y="726" on="0"/>
        <pt x="354" y="532" on="1"/>
        <pt x="354" y="170" on="0"/>
      </contour>
    </TTGlyph>
    <TTGlyph name="degree" xMin="109" yMin="825" xMax="766" yMax="1483">
      <contour>
        <pt x="109" y="1153" on="1"/>
        <pt x="109" y="1288" on="0"/>
        <pt x="299" y="1483" on="0"/>
        <pt x="438" y="1483" on="1"/>
        <pt x="576" y="1483" on="0"/>
        <pt x="766" y="1291" on="0"/>
        <pt x="766" y="1153" on="1"/>
        <pt x="766" y="1014" on="0"/>
        <pt x="574" y="825" on="0"/>
        <pt x="438" y="825" on="1"/>
        <pt x="350" y="825" on="0"/>
        <pt x="197" y="912" on="0"/>
        <pt x="109" y="1064" on="0"/>
      </contour>
      <contour>
        <pt x="262" y="1153" on="1"/>
        <pt x="262" y="1083" on="0"/>
        <pt x="364" y="979" on="0"/>
        <pt x="438" y="979" on="1"/>
        <pt x="512" y="979" on="0"/>
        <pt x="614" y="1082" on="0"/>
        <pt x="614" y="1153" on="1"/>
        <pt x="614" y="1229" on="0"/>
        <pt x="510" y="1331" on="0"/>
        <pt x="438" y="1331" on="1"/>
        <pt x="366" y="1331" on="0"/>
        <pt x="262" y="1227" on="0"/>
      </contour>
    </TTGlyph>
</ttFont>
